<ttFont>
    <TTGlyph name="A" xMin="-15" yMin="-105" xMax="684" yMax="748">
      <contour>
        <pt x="491" y="268" on="1"/>
        <pt x="501" y="247" on="1"/>
        <pt x="499" y="236" on="1"/>
        <pt x="505" y="224" on="0"/>
        <pt x="505" y="220" on="1"/>
        <pt x="509" y="211" on="0"/>
        <pt x="508" y="206" on="0"/>
        <pt x="511" y="200" on="0"/>
        <pt x="514" y="192" on="0"/>
        <pt x="519" y="179" on="0"/>
        <pt x="525" y="166" on="0"/>
        <pt x="530" y="154" on="0"/>
        <pt x="531" y="145" on="0"/>
        <pt x="535" y="136" on="0"/>
        <pt x="540" y="129" on="0"/>
        <pt x="545" y="119" on="0"/>
        <pt x="548" y="108" on="0"/>
        <pt x="555" y="88" on="0"/>
        <pt x="564" y="74" on="0"/>
        <pt x="567" y="68" on="1"/>
        <pt x="565" y="62" on="0"/>
        <pt x="571" y="50" on="0"/>
        <pt x="575" y="35" on="0"/>
        <pt x="580" y="16" on="0"/>
        <pt x="587" y="5" on="0"/>
        <pt x="586" y="2" on="0"/>
        <pt x="588" y="-3" on="1"/>
        <pt x="593" y="-8" on="0"/>
        <pt x="604" y="-20" on="0"/>
        <pt x="617" y="-23" on="0"/>
        <pt x="626" y="-19" on="0"/>
        <pt x="632" y="-22" on="1"/>
        <pt x="653" y="-7" on="0"/>
        <pt x="665" y="-17" on="1"/>
        <pt x="683" y="-24" on="0"/>
        <pt x="684" y="-54" on="0"/>
        <pt x="675" y="-58" on="1"/>
        <pt x="661" y="-62" on="0"/>
        <pt x="658" y="-65" on="1"/>
        <pt x="654" y="-65" on="0"/>
        <pt x="644" y="-63" on="0"/>
        <pt x="633" y="-66" on="0"/>
        <pt x="621" y="-73" on="0"/>
        <pt x="602" y="-84" on="0"/>
        <pt x="591" y="-79" on="1"/>
        <pt x="583" y="-82" on="0"/>
        <pt x="574" y="-89" on="1"/>
        <pt x="569" y="-87" on="0"/>
        <pt x="562" y="-93" on="0"/>
        <pt x="553" y="-95" on="0"/>
        <pt x="544" y="-94" on="0"/>
        <pt x="538" y="-94" on="1"/>
        <pt x="525" y="-99" on="0"/>
        <pt x="522" y="-99" on="1"/>
        <pt x="497" y="-105" on="1"/>
        <pt x="491" y="-104" on="0"/>
        <pt x="481" y="-96" on="0"/>
        <pt x="476" y="-93" on="1"/>
        <pt x="476" y="-72" on="1"/>
        <pt x="480" y="-71" on="0"/>
        <pt x="483" y="-64" on="0"/>
        <pt x="490" y="-60" on="0"/>
        <pt x="494" y="-60" on="1"/>
        <pt x="508" y="-60" on="0"/>
        <pt x="514" y="-51" on="1"/>
        <pt x="516" y="-43" on="0"/>
        <pt x="508" y="-33" on="0"/>
        <pt x="512" y="-27" on="1"/>
        <pt x="507" y="-23" on="0"/>
        <pt x="510" y="-7" on="0"/>
        <pt x="501" y="4" on="0"/>
        <pt x="497" y="15" on="0"/>
        <pt x="498" y="30" on="0"/>
        <pt x="493" y="44" on="0"/>
        <pt x="484" y="58" on="0"/>
        <pt x="483" y="70" on="1"/>
        <pt x="474" y="72" on="0"/>
        <pt x="452" y="77" on="0"/>
        <pt x="444" y="72" on="1"/>
        <pt x="439" y="73" on="0"/>
        <pt x="432" y="78" on="0"/>
        <pt x="411" y="82" on="0"/>
        <pt x="380" y="77" on="0"/>
        <pt x="367" y="84" on="1"/>
        <pt x="361" y="82" on="0"/>
        <pt x="356" y="82" on="1"/>
        <pt x="344" y="86" on="1"/>
        <pt x="339" y="86" on="0"/>
        <pt x="326" y="80" on="0"/>
        <pt x="310" y="77" on="0"/>
        <pt x="300" y="78" on="1"/>
        <pt x="278" y="82" on="0"/>
        <pt x="262" y="80" on="1"/>
        <pt x="240" y="75" on="0"/>
        <pt x="222" y="78" on="0"/>
        <pt x="204" y="71" on="0"/>
        <pt x="196" y="73" on="0"/>
        <pt x="188" y="70" on="0"/>
        <pt x="180" y="59" on="0"/>
        <pt x="175" y="57" on="1"/>
        <pt x="174" y="48" on="0"/>
        <pt x="168" y="40" on="1"/>
        <pt x="167" y="36" on="0"/>
        <pt x="168" y="28" on="0"/>
        <pt x="163" y="12" on="0"/>
        <pt x="165" y="6" on="0"/>
        <pt x="162" y="-1" on="0"/>
        <pt x="155" y="-9" on="0"/>
        <pt x="151" y="-20" on="0"/>
        <pt x="149" y="-31" on="0"/>
        <pt x="146" y="-36" on="1"/>
        <pt x="148" y="-44" on="0"/>
        <pt x="157" y="-51" on="0"/>
        <pt x="174" y="-59" on="0"/>
        <pt x="199" y="-59" on="0"/>
        <pt x="207" y="-65" on="1"/>
        <pt x="209" y="-70" on="0"/>
        <pt x="210" y="-88" on="0"/>
        <pt x="205" y="-91" on="1"/>
        <pt x="201" y="-92" on="0"/>
        <pt x="196" y="-95" on="0"/>
        <pt x="192" y="-94" on="1"/>
        <pt x="181" y="-91" on="1"/>
        <pt x="175" y="-90" on="0"/>
        <pt x="162" y="-93" on="0"/>
        <pt x="151" y="-89" on="0"/>
        <pt x="145" y="-84" on="0"/>
        <pt x="142" y="-82" on="1"/>
        <pt x="137" y="-84" on="0"/>
        <pt x="126" y="-80" on="0"/>
        <pt x="114" y="-83" on="0"/>
        <pt x="109" y="-85" on="0"/>
        <pt x="106" y="-86" on="1"/>
        <pt x="91" y="-84" on="1"/>
        <pt x="19" y="-86" on="1"/>
        <pt x="6" y="-77" on="0"/>
        <pt x="-4" y="-83" on="0"/>
        <pt x="-9" y="-82" on="1"/>
        <pt x="-9" y="-77" on="0"/>
        <pt x="-17" y="-76" on="0"/>
        <pt x="-15" y="-70" on="1"/>
        <pt x="-15" y="-51" on="1"/>
        <pt x="-3" y="-48" on="0"/>
        <pt x="23" y="-50" on="0"/>
        <pt x="41" y="-47" on="0"/>
        <pt x="48" y="-43" on="0"/>
        <pt x="53" y="-45" on="1"/>
        <pt x="56" y="-40" on="0"/>
        <pt x="54" y="-30" on="0"/>
        <pt x="60" y="-15" on="0"/>
        <pt x="56" y="-7" on="0"/>
        <pt x="62" y="6" on="0"/>
        <pt x="65" y="20" on="0"/>
        <pt x="64" y="38" on="0"/>
        <pt x="70" y="45" on="1"/>
        <pt x="71" y="49" on="0"/>
        <pt x="67" y="52" on="0"/>
        <pt x="77" y="77" on="0"/>
        <pt x="84" y="122" on="0"/>
        <pt x="91" y="141" on="1"/>
        <pt x="90" y="143" on="0"/>
        <pt x="92" y="152" on="0"/>
        <pt x="89" y="152" on="1"/>
        <pt x="100" y="179" on="0"/>
        <pt x="101" y="194" on="1"/>
        <pt x="105" y="198" on="0"/>
        <pt x="112" y="215" on="0"/>
        <pt x="110" y="221" on="1"/>
        <pt x="114" y="222" on="0"/>
        <pt x="115" y="228" on="0"/>
        <pt x="117" y="230" on="1"/>
        <pt x="121" y="253" on="0"/>
        <pt x="123" y="292" on="0"/>
        <pt x="133" y="307" on="1"/>
        <pt x="133" y="326" on="1"/>
        <pt x="144" y="342" on="0"/>
        <pt x="142" y="352" on="1"/>
        <pt x="140" y="368" on="0"/>
        <pt x="149" y="386" on="1"/>
        <pt x="150" y="394" on="0"/>
        <pt x="154" y="399" on="0"/>
        <pt x="156" y="402" on="1"/>
        <pt x="156" y="407" on="0"/>
        <pt x="158" y="417" on="1"/>
        <pt x="164" y="433" on="0"/>
        <pt x="163" y="444" on="0"/>
        <pt x="167" y="467" on="0"/>
        <pt x="179" y="495" on="0"/>
        <pt x="180" y="509" on="1"/>
        <pt x="184" y="517" on="0"/>
        <pt x="190" y="538" on="0"/>
        <pt x="197" y="557" on="0"/>
        <pt x="202" y="575" on="0"/>
        <pt x="210" y="583" on="1"/>
        <pt x="212" y="590" on="0"/>
        <pt x="215" y="603" on="0"/>
        <pt x="217" y="609" on="1"/>
        <pt x="224" y="619" on="0"/>
        <pt x="223" y="625" on="0"/>
        <pt x="231" y="644" on="0"/>
        <pt x="231" y="652" on="1"/>
        <pt x="239" y="657" on="0"/>
        <pt x="239" y="672" on="0"/>
        <pt x="242" y="679" on="1"/>
        <pt x="249" y="686" on="0"/>
        <pt x="248" y="689" on="0"/>
        <pt x="254" y="696" on="0"/>
        <pt x="266" y="708" on="0"/>
        <pt x="269" y="715" on="1"/>
        <pt x="271" y="731" on="1"/>
        <pt x="287" y="752" on="0"/>
        <pt x="305" y="748" on="1"/>
        <pt x="317" y="744" on="0"/>
        <pt x="317" y="732" on="1"/>
        <pt x="317" y="729" on="0"/>
        <pt x="319" y="726" on="1"/>
        <pt x="326" y="720" on="0"/>
        <pt x="330" y="705" on="0"/>
        <pt x="343" y="686" on="0"/>
        <pt x="351" y="681" on="0"/>
        <pt x="357" y="667" on="0"/>
        <pt x="364" y="654" on="0"/>
        <pt x="370" y="641" on="0"/>
        <pt x="370" y="620" on="0"/>
        <pt x="380" y="616" on="1"/>
        <pt x="383" y="607" on="0"/>
        <pt x="385" y="607" on="0"/>
        <pt x="387" y="602" on="1"/>
        <pt x="390" y="595" on="0"/>
        <pt x="400" y="567" on="0"/>
        <pt x="394" y="561" on="1"/>
        <pt x="399" y="558" on="0"/>
        <pt x="400" y="545" on="0"/>
        <pt x="401" y="538" on="1"/>
        <pt x="406" y="530" on="0"/>
        <pt x="405" y="527" on="1"/>
        <pt x="407" y="522" on="0"/>
        <pt x="418" y="509" on="1"/>
        <pt x="418" y="497" on="1"/>
        <pt x="423" y="485" on="0"/>
        <pt x="432" y="466" on="0"/>
        <pt x="430" y="456" on="0"/>
        <pt x="434" y="443" on="0"/>
        <pt x="441" y="431" on="0"/>
        <pt x="439" y="424" on="1"/>
        <pt x="442" y="418" on="0"/>
        <pt x="448" y="409" on="0"/>
        <pt x="449" y="402" on="0"/>
        <pt x="456" y="388" on="0"/>
        <pt x="456" y="381" on="0"/>
        <pt x="464" y="369" on="0"/>
        <pt x="463" y="359" on="0"/>
        <pt x="469" y="340" on="0"/>
        <pt x="466" y="331" on="1"/>
        <pt x="473" y="322" on="0"/>
        <pt x="473" y="316" on="0"/>
        <pt x="479" y="303" on="0"/>
        <pt x="485" y="299" on="0"/>
        <pt x="485" y="289" on="1"/>
      </contour>
      <contour>
        <pt x="403" y="366" on="1"/>
        <pt x="395" y="390" on="1"/>
        <pt x="390" y="415" on="1"/>
        <pt x="390" y="421" on="0"/>
        <pt x="384" y="430" on="0"/>
        <pt x="385" y="437" on="0"/>
        <pt x="383" y="446" on="0"/>
        <pt x="381" y="455" on="0"/>
        <pt x="382" y="464" on="0"/>
        <pt x="378" y="473" on="0"/>
        <pt x="370" y="483" on="0"/>
        <pt x="368" y="494" on="0"/>
        <pt x="369" y="501" on="0"/>
        <pt x="369" y="506" on="1"/>
        <pt x="356" y="521" on="0"/>
        <pt x="356" y="544" on="1"/>
        <pt x="350" y="546" on="0"/>
        <pt x="345" y="559" on="0"/>
        <pt x="337" y="561" on="1"/>
        <pt x="338" y="569" on="0"/>
        <pt x="338" y="575" on="0"/>
        <pt x="336" y="583" on="1"/>
        <pt x="324" y="587" on="0"/>
        <pt x="319" y="585" on="1"/>
        <pt x="314" y="576" on="0"/>
        <pt x="307" y="556" on="0"/>
        <pt x="301" y="544" on="0"/>
        <pt x="301" y="537" on="0"/>
        <pt x="300" y="530" on="1"/>
        <pt x="295" y="525" on="0"/>
        <pt x="295" y="521" on="0"/>
        <pt x="286" y="502" on="0"/>
        <pt x="285" y="487" on="1"/>
        <pt x="283" y="484" on="0"/>
        <pt x="277" y="479" on="0"/>
        <pt x="276" y="464" on="0"/>
        <pt x="273" y="460" on="0"/>
        <pt x="271" y="452" on="0"/>
        <pt x="272" y="439" on="0"/>
        <pt x="264" y="415" on="0"/>
        <pt x="255" y="395" on="0"/>
        <pt x="255" y="383" on="1"/>
        <pt x="246" y="376" on="0"/>
        <pt x="244" y="350" on="1"/>
        <pt x="241" y="348" on="0"/>
        <pt x="248" y="343" on="0"/>
        <pt x="243" y="336" on="0"/>
        <pt x="237" y="331" on="0"/>
        <pt x="237" y="326" on="1"/>
        <pt x="234" y="322" on="0"/>
        <pt x="235" y="307" on="0"/>
        <pt x="228" y="290" on="0"/>
        <pt x="224" y="286" on="0"/>
        <pt x="226" y="278" on="0"/>
        <pt x="225" y="277" on="0"/>
        <pt x="222" y="267" on="0"/>
        <pt x="214" y="256" on="0"/>
        <pt x="213" y="240" on="0"/>
        <pt x="210" y="222" on="0"/>
        <pt x="210" y="211" on="1"/>
        <pt x="205" y="206" on="0"/>
        <pt x="204" y="194" on="0"/>
        <pt x="198" y="177" on="0"/>
        <pt x="198" y="174" on="1"/>
        <pt x="188" y="144" on="1"/>
        <pt x="188" y="141" on="0"/>
        <pt x="187" y="137" on="1"/>
        <pt x="193" y="127" on="0"/>
        <pt x="196" y="128" on="0"/>
        <pt x="202" y="121" on="0"/>
        <pt x="211" y="121" on="0"/>
        <pt x="218" y="118" on="0"/>
        <pt x="220" y="116" on="1"/>
        <pt x="225" y="113" on="0"/>
        <pt x="243" y="117" on="0"/>
        <pt x="256" y="111" on="0"/>
        <pt x="260" y="110" on="1"/>
        <pt x="280" y="115" on="0"/>
        <pt x="322" y="114" on="0"/>
        <pt x="341" y="120" on="1"/>
        <pt x="345" y="119" on="0"/>
        <pt x="348" y="116" on="0"/>
        <pt x="361" y="113" on="0"/>
        <pt x="380" y="117" on="0"/>
        <pt x="391" y="117" on="1"/>
        <pt x="415" y="113" on="0"/>
        <pt x="418" y="113" on="1"/>
        <pt x="437" y="115" on="1"/>
        <pt x="453" y="111" on="1"/>
        <pt x="469" y="114" on="0"/>
        <pt x="469" y="124" on="1"/>
        <pt x="470" y="129" on="0"/>
        <pt x="462" y="135" on="0"/>
        <pt x="461" y="146" on="0"/>
        <pt x="456" y="154" on="0"/>
        <pt x="453" y="165" on="0"/>
        <pt x="453" y="192" on="0"/>
        <pt x="440" y="211" on="1"/>
        <pt x="443" y="216" on="0"/>
        <pt x="437" y="232" on="0"/>
        <pt x="440" y="238" on="1"/>
        <pt x="430" y="251" on="0"/>
        <pt x="428" y="286" on="1"/>
        <pt x="423" y="292" on="0"/>
        <pt x="418" y="306" on="0"/>
        <pt x="408" y="333" on="0"/>
        <pt x="408" y="352" on="0"/>
        <pt x="403" y="357" on="1"/>
      </contour>
    </TTGlyph>
    <TTGlyph name="AE" xMin="-20" yMin="-28" xMax="760" yMax="837">
      <contour>
        <pt x="707" y="102" on="1"/>
        <pt x="707" y="172" on="0"/>
        <pt x="734" y="172" on="1"/>
        <pt x="745" y="173" on="0"/>
        <pt x="748" y="161" on="1"/>
        <pt x="750" y="156" on="0"/>
        <pt x="761" y="150" on="0"/>
        <pt x="760" y="144" on="1"/>
        <pt x="756" y="130" on="0"/>
        <pt x="756" y="119" on="1"/>
        <pt x="756" y="91" on="1"/>
        <pt x="758" y="85" on="0"/>
        <pt x="758" y="63" on="1"/>
        <pt x="756" y="50" on="1"/>
        <pt x="756" y="28" on="1"/>
        <pt x="756" y="14" on="0"/>
        <pt x="748" y="10" on="0"/>
        <pt x="731" y="-6" on="0"/>
        <pt x="720" y="-6" on="0"/>
        <pt x="707" y="4" on="0"/>
        <pt x="701" y="16" on="0"/>
        <pt x="699" y="32" on="0"/>
        <pt x="696" y="43" on="1"/>
        <pt x="687" y="44" on="0"/>
        <pt x="662" y="39" on="0"/>
        <pt x="656" y="46" on="1"/>
        <pt x="655" y="46" on="0"/>
        <pt x="633" y="42" on="1"/>
        <pt x="621" y="45" on="1"/>
        <pt x="606" y="41" on="0"/>
        <pt x="596" y="43" on="0"/>
        <pt x="584" y="42" on="0"/>
        <pt x="559" y="51" on="0"/>
        <pt x="546" y="44" on="1"/>
        <pt x="538" y="37" on="0"/>
        <pt x="530" y="37" on="1"/>
        <pt x="508" y="37" on="1"/>
        <pt x="494" y="37" on="0"/>
        <pt x="486" y="29" on="1"/>
        <pt x="466" y="27" on="1"/>
        <pt x="460" y="22" on="0"/>
        <pt x="454" y="12" on="0"/>
        <pt x="451" y="8" on="1"/>
        <pt x="442" y="0" on="0"/>
        <pt x="428" y="8" on="1"/>
        <pt x="411" y="14" on="0"/>
        <pt x="397" y="29" on="0"/>
        <pt x="392" y="31" on="1"/>
        <pt x="393" y="39" on="0"/>
        <pt x="383" y="54" on="0"/>
        <pt x="380" y="68" on="0"/>
        <pt x="382" y="77" on="0"/>
        <pt x="381" y="89" on="0"/>
        <pt x="376" y="105" on="0"/>
        <pt x="373" y="124" on="0"/>
        <pt x="376" y="143" on="0"/>
        <pt x="375" y="159" on="0"/>
        <pt x="370" y="187" on="0"/>
        <pt x="371" y="213" on="0"/>
        <pt x="367" y="234" on="0"/>
        <pt x="359" y="249" on="0"/>
        <pt x="356" y="263" on="0"/>
        <pt x="360" y="269" on="0"/>
        <pt x="359" y="275" on="1"/>
        <pt x="354" y="280" on="0"/>
        <pt x="351" y="290" on="0"/>
        <pt x="337" y="293" on="0"/>
        <pt x="320" y="288" on="0"/>
        <pt x="312" y="294" on="1"/>
        <pt x="278" y="283" on="1"/>
        <pt x="271" y="287" on="0"/>
        <pt x="252" y="286" on="0"/>
        <pt x="241" y="286" on="1"/>
        <pt x="228" y="283" on="0"/>
        <pt x="214" y="283" on="0"/>
        <pt x="205" y="276" on="0"/>
        <pt x="197" y="250" on="0"/>
        <pt x="199" y="239" on="1"/>
        <pt x="184" y="210" on="1"/>
        <pt x="187" y="198" on="0"/>
        <pt x="175" y="173" on="0"/>
        <pt x="165" y="144" on="0"/>
        <pt x="159" y="138" on="1"/>
        <pt x="157" y="133" on="0"/>
        <pt x="157" y="122" on="0"/>
        <pt x="149" y="109" on="0"/>
        <pt x="149" y="98" on="1"/>
        <pt x="139" y="84" on="1"/>
        <pt x="139" y="68" on="0"/>
        <pt x="127" y="44" on="0"/>
        <pt x="130" y="25" on="0"/>
        <pt x="138" y="23" on="0"/>
        <pt x="147" y="23" on="0"/>
        <pt x="157" y="24" on="0"/>
        <pt x="163" y="21" on="1"/>
        <pt x="174" y="16" on="0"/>
        <pt x="177" y="-12" on="1"/>
        <pt x="174" y="-14" on="0"/>
        <pt x="173" y="-20" on="0"/>
        <pt x="166" y="-24" on="0"/>
        <pt x="158" y="-21" on="0"/>
        <pt x="138" y="-29" on="0"/>
        <pt x="124" y="-25" on="0"/>
        <pt x="116" y="-25" on="1"/>
        <pt x="84" y="-28" on="1"/>
        <pt x="74" y="-28" on="0"/>
        <pt x="54" y="-16" on="0"/>
        <pt x="46" y="-16" on="1"/>
        <pt x="-3" y="-22" on="1"/>
        <pt x="-13" y="-22" on="0"/>
        <pt x="-20" y="-13" on="1"/>
        <pt x="-37" y="-13" on="0"/>
        <pt x="-20" y="29" on="1"/>
        <pt x="-13" y="37" on="0"/>
        <pt x="9" y="30" on="0"/>
        <pt x="15" y="32" on="1"/>
        <pt x="35" y="36" on="1"/>
        <pt x="48" y="39" on="0"/>
        <pt x="53" y="37" on="1"/>
        <pt x="56" y="39" on="0"/>
        <pt x="56" y="46" on="0"/>
        <pt x="60" y="55" on="0"/>
        <pt x="64" y="55" on="0"/>
        <pt x="70" y="69" on="0"/>
        <pt x="72" y="82" on="0"/>
        <pt x="80" y="100" on="0"/>
        <pt x="80" y="107" on="0"/>
        <pt x="82" y="114" on="0"/>
        <pt x="87" y="118" on="0"/>
        <pt x="91" y="125" on="0"/>
        <pt x="91" y="132" on="0"/>
        <pt x="95" y="143" on="0"/>
        <pt x="99" y="157" on="0"/>
        <pt x="101" y="164" on="1"/>
        <pt x="103" y="171" on="0"/>
        <pt x="109" y="184" on="0"/>
        <pt x="114" y="199" on="0"/>
        <pt x="116" y="206" on="1"/>
        <pt x="119" y="224" on="0"/>
        <pt x="140" y="273" on="0"/>
        <pt x="143" y="292" on="1"/>
        <pt x="145" y="295" on="0"/>
        <pt x="146" y="302" on="0"/>
        <pt x="150" y="312" on="0"/>
        <pt x="157" y="325" on="0"/>
        <pt x="161" y="337" on="0"/>
        <pt x="160" y="347" on="0"/>
        <pt x="162" y="356" on="0"/>
        <pt x="169" y="363" on="0"/>
        <pt x="172" y="372" on="0"/>
        <pt x="172" y="376" on="1"/>
        <pt x="176" y="408" on="0"/>
        <pt x="210" y="462" on="1"/>
        <pt x="214" y="469" on="0"/>
        <pt x="211" y="477" on="1"/>
        <pt x="217" y="480" on="0"/>
        <pt x="227" y="499" on="0"/>
        <pt x="229" y="508" on="0"/>
        <pt x="233" y="519" on="0"/>
        <pt x="236" y="531" on="0"/>
        <pt x="238" y="538" on="1"/>
        <pt x="244" y="545" on="0"/>
        <pt x="243" y="555" on="0"/>
        <pt x="245" y="559" on="1"/>
        <pt x="250" y="564" on="0"/>
        <pt x="255" y="578" on="0"/>
        <pt x="261" y="582" on="1"/>
        <pt x="259" y="593" on="0"/>
        <pt x="267" y="611" on="0"/>
        <pt x="274" y="628" on="0"/>
        <pt x="280" y="639" on="0"/>
        <pt x="280" y="647" on="1"/>
        <pt x="286" y="654" on="0"/>
        <pt x="291" y="674" on="0"/>
        <pt x="295" y="683" on="1"/>
        <pt x="299" y="684" on="0"/>
        <pt x="307" y="688" on="1"/>
        <pt x="308" y="700" on="0"/>
        <pt x="315" y="713" on="1"/>
        <pt x="327" y="750" on="0"/>
        <pt x="344" y="761" on="1"/>
        <pt x="349" y="763" on="0"/>
        <pt x="391" y="768" on="0"/>
        <pt x="395" y="766" on="0"/>
        <pt x="397" y="766" on="1"/>
        <pt x="414" y="769" on="1"/>
        <pt x="429" y="767" on="1"/>
        <pt x="443" y="767" on="0"/>
        <pt x="476" y="772" on="0"/>
        <pt x="479" y="770" on="0"/>
        <pt x="481" y="770" on="1"/>
        <pt x="483" y="770" on="0"/>
        <pt x="486" y="772" on="1"/>
        <pt x="497" y="776" on="0"/>
        <pt x="530" y="773" on="1"/>
        <pt x="545" y="775" on="1"/>
        <pt x="560" y="770" on="1"/>
        <pt x="570" y="770" on="0"/>
        <pt x="584" y="772" on="0"/>
        <pt x="591" y="771" on="0"/>
        <pt x="605" y="776" on="0"/>
        <pt x="611" y="773" on="0"/>
        <pt x="615" y="773" on="1"/>
        <pt x="625" y="773" on="1"/>
        <pt x="632" y="773" on="0"/>
        <pt x="655" y="779" on="0"/>
        <pt x="663" y="777" on="1"/>
        <pt x="679" y="773" on="0"/>
        <pt x="681" y="793" on="1"/>
        <pt x="681" y="801" on="0"/>
        <pt x="679" y="808" on="1"/>
        <pt x="683" y="813" on="0"/>
        <pt x="686" y="830" on="0"/>
        <pt x="691" y="835" on="1"/>
        <pt x="696" y="834" on="0"/>
        <pt x="702" y="838" on="0"/>
        <pt x="713" y="835" on="0"/>
        <pt x="729" y="818" on="0"/>
        <pt x="729" y="812" on="1"/>
        <pt x="738" y="763" on="1"/>
        <pt x="739" y="726" on="1"/>
        <pt x="740" y="718" on="0"/>
        <pt x="740" y="711" on="1"/>
        <pt x="738" y="696" on="0"/>
        <pt x="744" y="685" on="1"/>
        <pt x="744" y="679" on="0"/>
        <pt x="739" y="665" on="0"/>
        <pt x="741" y="658" on="1"/>
        <pt x="726" y="642" on="0"/>
        <pt x="700" y="659" on="1"/>
        <pt x="696" y="664" on="0"/>
        <pt x="693" y="692" on="0"/>
        <pt x="689" y="696" on="1"/>
        <pt x="688" y="710" on="0"/>
        <pt x="683" y="728" on="1"/>
        <pt x="645" y="725" on="0"/>
        <pt x="626" y="736" on="1"/>
        <pt x="597" y="723" on="0"/>
        <pt x="578" y="729" on="1"/>
        <pt x="575" y="730" on="0"/>
        <pt x="573" y="730" on="1"/>
        <pt x="556" y="724" on="0"/>
        <pt x="548" y="724" on="1"/>
        <pt x="521" y="721" on="1"/>
        <pt x="511" y="721" on="0"/>
        <pt x="498" y="712" on="0"/>
        <pt x="479" y="710" on="0"/>
        <pt x="453" y="714" on="0"/>
        <pt x="442" y="705" on="1"/>
        <pt x="435" y="680" on="0"/>
        <pt x="445" y="660" on="1"/>
        <pt x="446" y="657" on="0"/>
        <pt x="445" y="645" on="0"/>
        <pt x="448" y="634" on="0"/>
        <pt x="453" y="623" on="0"/>
        <pt x="455" y="617" on="1"/>
        <pt x="455" y="610" on="0"/>
        <pt x="450" y="598" on="0"/>
        <pt x="449" y="592" on="1"/>
        <pt x="451" y="580" on="1"/>
        <pt x="449" y="567" on="1"/>
        <pt x="452" y="551" on="1"/>
        <pt x="454" y="538" on="0"/>
        <pt x="453" y="513" on="0"/>
        <pt x="460" y="503" on="1"/>
        <pt x="458" y="493" on="0"/>
        <pt x="458" y="473" on="0"/>
        <pt x="460" y="457" on="0"/>
        <pt x="464" y="445" on="0"/>
        <pt x="466" y="430" on="0"/>
        <pt x="464" y="409" on="0"/>
        <pt x="468" y="396" on="0"/>
        <pt x="474" y="388" on="0"/>
        <pt x="475" y="383" on="1"/>
        <pt x="509" y="372" on="0"/>
        <pt x="558" y="376" on="1"/>
        <pt x="565" y="376" on="0"/>
        <pt x="577" y="380" on="0"/>
        <pt x="596" y="382" on="0"/>
        <pt x="617" y="379" on="0"/>
        <pt x="635" y="381" on="0"/>
        <pt x="646" y="383" on="0"/>
        <pt x="657" y="385" on="0"/>
        <pt x="665" y="384" on="0"/>
        <pt x="671" y="385" on="1"/>
        <pt x="681" y="392" on="0"/>
        <pt x="687" y="408" on="0"/>
        <pt x="690" y="442" on="0"/>
        <pt x="699" y="450" on="1"/>
        <pt x="705" y="453" on="0"/>
        <pt x="718" y="441" on="0"/>
        <pt x="723" y="438" on="1"/>
        <pt x="726" y="420" on="0"/>
        <pt x="728" y="374" on="0"/>
        <pt x="730" y="355" on="0"/>
        <pt x="730" y="348" on="1"/>
        <pt x="730" y="332" on="1"/>
        <pt x="730" y="310" on="0"/>
        <pt x="726" y="302" on="0"/>
        <pt x="718" y="298" on="0"/>
        <pt x="709" y="292" on="0"/>
        <pt x="700" y="282" on="0"/>
        <pt x="696" y="287" on="1"/>
        <pt x="688" y="287" on="0"/>
        <pt x="683" y="311" on="0"/>
        <pt x="681" y="325" on="0"/>
        <pt x="679" y="332" on="1"/>
        <pt x="675" y="346" on="0"/>
        <pt x="652" y="340" on="0"/>
        <pt x="639" y="335" on="0"/>
        <pt x="628" y="334" on="0"/>
        <pt x="611" y="341" on="0"/>
        <pt x="590" y="341" on="0"/>
        <pt x="548" y="329" on="0"/>
        <pt x="534" y="331" on="0"/>
        <pt x="522" y="330" on="0"/>
        <pt x="490" y="322" on="0"/>
        <pt x="481" y="310" on="0"/>
        <pt x="481" y="281" on="0"/>
        <pt x="483" y="275" on="1"/>
        <pt x="471" y="255" on="0"/>
        <pt x="477" y="244" on="0"/>
        <pt x="480" y="225" on="0"/>
        <pt x="478" y="196" on="0"/>
        <pt x="486" y="171" on="0"/>
        <pt x="484" y="165" on="1"/>
        <pt x="472" y="138" on="0"/>
        <pt x="491" y="93" on="1"/>
        <pt x="502" y="88" on="0"/>
        <pt x="523" y="89" on="0"/>
        <pt x="539" y="86" on="0"/>
        <pt x="544" y="89" on="0"/>
        <pt x="547" y="88" on="1"/>
        <pt x="566" y="86" on="1"/>
        <pt x="571" y="86" on="0"/>
        <pt x="575" y="88" on="0"/>
        <pt x="583" y="84" on="0"/>
        <pt x="595" y="92" on="0"/>
        <pt x="607" y="90" on="0"/>
        <pt x="620" y="87" on="0"/>
        <pt x="635" y="86" on="0"/>
        <pt x="651" y="93" on="0"/>
        <pt x="699" y="93" on="0"/>
      </contour>
      <contour>
        <pt x="310" y="558" on="1"/>
        <pt x="302" y="542" on="0"/>
        <pt x="300" y="522" on="1"/>
        <pt x="298" y="520" on="0"/>
        <pt x="292" y="518" on="0"/>
        <pt x="288" y="516" on="1"/>
        <pt x="288" y="513" on="0"/>
        <pt x="292" y="509" on="0"/>
        <pt x="290" y="504" on="1"/>
        <pt x="282" y="500" on="0"/>
        <pt x="277" y="486" on="1"/>
        <pt x="269" y="470" on="0"/>
        <pt x="257" y="434" on="0"/>
        <pt x="251" y="417" on="1"/>
        <pt x="248" y="414" on="0"/>
        <pt x="247" y="408" on="0"/>
        <pt x="244" y="404" on="1"/>
        <pt x="243" y="381" on="1"/>
        <pt x="242" y="376" on="0"/>
        <pt x="233" y="376" on="0"/>
        <pt x="232" y="371" on="1"/>
        <pt x="236" y="364" on="0"/>
        <pt x="227" y="344" on="0"/>
        <pt x="231" y="340" on="1"/>
        <pt x="229" y="337" on="0"/>
        <pt x="220" y="333" on="0"/>
        <pt x="222" y="327" on="1"/>
        <pt x="232" y="319" on="0"/>
        <pt x="254" y="325" on="0"/>
        <pt x="272" y="327" on="0"/>
        <pt x="282" y="324" on="0"/>
        <pt x="299" y="326" on="0"/>
        <pt x="318" y="331" on="0"/>
        <pt x="339" y="332" on="0"/>
        <pt x="351" y="334" on="1"/>
        <pt x="366" y="357" on="0"/>
        <pt x="352" y="382" on="1"/>
        <pt x="354" y="394" on="0"/>
        <pt x="348" y="414" on="0"/>
        <pt x="349" y="457" on="0"/>
        <pt x="337" y="517" on="0"/>
        <pt x="331" y="518" on="0"/>
        <pt x="333" y="534" on="0"/>
        <pt x="325" y="558" on="0"/>
      </contour>
    </TTGlyph>
    <TTGlyph name="Aacute" xMin="-15" yMin="-105" xMax="684" yMax="997">
      <component glyphName="A" x="0" y="0" flags="0x1204"/>
      <component glyphName="acute" x="-5" y="164" flags="0x1004"/>
    </TTGlyph>
    <TTGlyph name="Acircumflex" xMin="-15" yMin="-105" xMax="684" yMax="967">
      <component glyphName="A" x="0" y="0" flags="0x1204"/>
      <component glyphName="circumflex" x="-40" y="94" flags="0x1004"/>
    </TTGlyph>
    <TTGlyph name="Adieresis" xMin="-15" yMin="-105" xMax="684" yMax="905">
      <component glyphName="A" x="0" y="0" flags="0x1204"/>
      <component glyphName="dieresis" x="-29" y="106" flags="0x1004"/>
    </TTGlyph>
    <TTGlyph name="Agrave" xMin="-15" yMin="-105" xMax="684" yMax="962">
      <component glyphName="A" x="0" y="0" flags="0x1204"/>
      <component glyphName="grave" x="-16" y="133" flags="0x1004"/>
    </TTGlyph>
    <TTGlyph name="Aring" xMin="-14" yMin="-105" xMax="685" yMax="866">
      <contour>
        <pt x="492" y="268" on="1"/>
        <pt x="502" y="247" on="1"/>
        <pt x="500" y="236" on="1"/>
        <pt x="506" y="224" on="0"/>
        <pt x="506" y="220" on="1"/>
        <pt x="510" y="211" on="0"/>
        <pt x="509" y="206" on="0"/>
        <pt x="512" y="200" on="0"/>
        <pt x="515" y="192" on="0"/>
        <pt x="520" y="179" on="0"/>
        <pt x="526" y="166" on="0"/>
        <pt x="531" y="154" on="0"/>
        <pt x="532" y="145" on="0"/>
        <pt x="536" y="136" on="0"/>
        <pt x="541" y="129" on="0"/>
        <pt x="546" y="119" on="0"/>
        <pt x="549" y="108" on="0"/>
        <pt x="556" y="88" on="0"/>
        <pt x="565" y="74" on="0"/>
        <pt x="568" y="68" on="1"/>
        <pt x="566" y="62" on="0"/>
        <pt x="572" y="50" on="0"/>
        <pt x="576" y="35" on="0"/>
        <pt x="581" y="16" on="0"/>
        <pt x="588" y="5" on="0"/>
        <pt x="587" y="2" on="0"/>
        <pt x="589" y="-3" on="1"/>
        <pt x="594" y="-8" on="0"/>
        <pt x="605" y="-20" on="0"/>
        <pt x="618" y="-23" on="0"/>
        <pt x="627" y="-19" on="0"/>
        <pt x="633" y="-22" on="1"/>
        <pt x="654" y="-7" on="0"/>
        <pt x="666" y="-17" on="1"/>
        <pt x="684" y="-24" on="0"/>
        <pt x="685" y="-54" on="0"/>
        <pt x="676" y="-58" on="1"/>
        <pt x="662" y="-62" on="0"/>
        <pt x="659" y="-65" on="1"/>
        <pt x="655" y="-65" on="0"/>
        <pt x="645" y="-63" on="0"/>
        <pt x="634" y="-66" on="0"/>
        <pt x="622" y="-73" on="0"/>
        <pt x="603" y="-84" on="0"/>
        <pt x="592" y="-79" on="1"/>
        <pt x="584" y="-82" on="0"/>
        <pt x="575" y="-89" on="1"/>
        <pt x="570" y="-87" on="0"/>
        <pt x="563" y="-93" on="0"/>
        <pt x="554" y="-95" on="0"/>
        <pt x="545" y="-94" on="0"/>
        <pt x="539" y="-94" on="1"/>
        <pt x="526" y="-99" on="0"/>
        <pt x="523" y="-99" on="1"/>
        <pt x="498" y="-105" on="1"/>
        <pt x="492" y="-104" on="0"/>
        <pt x="482" y="-96" on="0"/>
        <pt x="477" y="-93" on="1"/>
        <pt x="477" y="-72" on="1"/>
        <pt x="481" y="-71" on="0"/>
        <pt x="484" y="-64" on="0"/>
        <pt x="491" y="-60" on="0"/>
        <pt x="496" y="-60" on="1"/>
        <pt x="509" y="-60" on="0"/>
        <pt x="515" y="-51" on="1"/>
        <pt x="517" y="-43" on="0"/>
        <pt x="509" y="-33" on="0"/>
        <pt x="513" y="-27" on="1"/>
        <pt x="508" y="-23" on="0"/>
        <pt x="511" y="-7" on="0"/>
        <pt x="502" y="4" on="0"/>
        <pt x="498" y="15" on="0"/>
        <pt x="499" y="30" on="0"/>
        <pt x="494" y="44" on="0"/>
        <pt x="485" y="58" on="0"/>
        <pt x="484" y="70" on="1"/>
        <pt x="475" y="72" on="0"/>
        <pt x="453" y="77" on="0"/>
        <pt x="445" y="72" on="1"/>
        <pt x="440" y="73" on="0"/>
        <pt x="433" y="78" on="0"/>
        <pt x="412" y="82" on="0"/>
        <pt x="381" y="77" on="0"/>
        <pt x="368" y="84" on="1"/>
        <pt x="362" y="82" on="0"/>
        <pt x="357" y="82" on="1"/>
        <pt x="345" y="86" on="1"/>
        <pt x="340" y="86" on="0"/>
        <pt x="327" y="80" on="0"/>
        <pt x="311" y="77" on="0"/>
        <pt x="301" y="78" on="1"/>
        <pt x="279" y="82" on="0"/>
        <pt x="263" y="80" on="1"/>
        <pt x="241" y="75" on="0"/>
        <pt x="223" y="78" on="0"/>
        <pt x="205" y="71" on="0"/>
        <pt x="197" y="73" on="0"/>
        <pt x="189" y="70" on="0"/>
        <pt x="181" y="59" on="0"/>
        <pt x="176" y="57" on="1"/>
        <pt x="175" y="48" on="0"/>
        <pt x="169" y="40" on="1"/>
        <pt x="168" y="36" on="0"/>
        <pt x="169" y="28" on="0"/>
        <pt x="164" y="12" on="0"/>
        <pt x="166" y="6" on="0"/>
        <pt x="163" y="-1" on="0"/>
        <pt x="156" y="-9" on="0"/>
        <pt x="152" y="-20" on="0"/>
        <pt x="150" y="-31" on="0"/>
        <pt x="147" y="-36" on="1"/>
        <pt x="149" y="-44" on="0"/>
        <pt x="158" y="-51" on="0"/>
        <pt x="175" y="-59" on="0"/>
        <pt x="200" y="-59" on="0"/>
        <pt x="208" y="-65" on="1"/>
        <pt x="210" y="-70" on="0"/>
        <pt x="211" y="-88" on="0"/>
        <pt x="206" y="-91" on="1"/>
        <pt x="202" y="-92" on="0"/>
        <pt x="197" y="-95" on="0"/>
        <pt x="193" y="-94" on="1"/>
        <pt x="182" y="-91" on="1"/>
        <pt x="176" y="-90" on="0"/>
        <pt x="163" y="-93" on="0"/>
        <pt x="152" y="-89" on="0"/>
        <pt x="146" y="-84" on="0"/>
        <pt x="143" y="-82" on="1"/>
        <pt x="138" y="-84" on="0"/>
        <pt x="127" y="-80" on="0"/>
        <pt x="115" y="-83" on="0"/>
        <pt x="110" y="-85" on="0"/>
        <pt x="107" y="-86" on="1"/>
        <pt x="92" y="-84" on="1"/>
        <pt x="20" y="-86" on="1"/>
        <pt x="7" y="-77" on="0"/>
        <pt x="-3" y="-83" on="0"/>
        <pt x="-8" y="-82" on="1"/>
        <pt x="-8" y="-77" on="0"/>
        <pt x="-16" y="-76" on="0"/>
        <pt x="-14" y="-70" on="1"/>
        <pt x="-14" y="-51" on="1"/>
        <pt x="-2" y="-48" on="0"/>
        <pt x="24" y="-50" on="0"/>
        <pt x="42" y="-47" on="0"/>
        <pt x="49" y="-43" on="0"/>
        <pt x="54" y="-45" on="1"/>
        <pt x="57" y="-40" on="0"/>
        <pt x="55" y="-30" on="0"/>
        <pt x="61" y="-15" on="0"/>
        <pt x="57" y="-7" on="0"/>
        <pt x="63" y="6" on="0"/>
        <pt x="66" y="20" on="0"/>
        <pt x="65" y="38" on="0"/>
        <pt x="71" y="45" on="1"/>
        <pt x="72" y="49" on="0"/>
        <pt x="68" y="52" on="0"/>
        <pt x="78" y="77" on="0"/>
        <pt x="85" y="122" on="0"/>
        <pt x="92" y="141" on="1"/>
        <pt x="91" y="143" on="0"/>
        <pt x="93" y="152" on="0"/>
        <pt x="90" y="152" on="1"/>
        <pt x="101" y="179" on="0"/>
        <pt x="102" y="194" on="1"/>
        <pt x="106" y="198" on="0"/>
        <pt x="113" y="215" on="0"/>
        <pt x="111" y="221" on="1"/>
        <pt x="115" y="222" on="0"/>
        <pt x="116" y="228" on="0"/>
        <pt x="118" y="230" on="1"/>
        <pt x="122" y="253" on="0"/>
        <pt x="124" y="292" on="0"/>
        <pt x="134" y="307" on="1"/>
        <pt x="134" y="326" on="1"/>
        <pt x="145" y="342" on="0"/>
        <pt x="144" y="352" on="1"/>
        <pt x="141" y="368" on="0"/>
        <pt x="150" y="386" on="1"/>
        <pt x="151" y="394" on="0"/>
        <pt x="155" y="399" on="0"/>
        <pt x="157" y="402" on="1"/>
        <pt x="157" y="407" on="0"/>
        <pt x="159" y="417" on="1"/>
        <pt x="165" y="433" on="0"/>
        <pt x="164" y="444" on="0"/>
        <pt x="168" y="467" on="0"/>
        <pt x="180" y="495" on="0"/>
        <pt x="181" y="509" on="1"/>
        <pt x="185" y="517" on="0"/>
        <pt x="191" y="538" on="0"/>
        <pt x="198" y="557" on="0"/>
        <pt x="203" y="575" on="0"/>
        <pt x="211" y="583" on="1"/>
        <pt x="213" y="590" on="0"/>
        <pt x="216" y="603" on="0"/>
        <pt x="218" y="609" on="1"/>
        <pt x="225" y="619" on="0"/>
        <pt x="224" y="625" on="0"/>
        <pt x="232" y="644" on="0"/>
        <pt x="232" y="652" on="1"/>
        <pt x="240" y="657" on="0"/>
        <pt x="240" y="672" on="0"/>
        <pt x="243" y="679" on="1"/>
        <pt x="250" y="686" on="0"/>
        <pt x="249" y="689" on="0"/>
        <pt x="255" y="696" on="0"/>
        <pt x="267" y="708" on="0"/>
        <pt x="270" y="715" on="1"/>
        <pt x="270" y="722" on="1"/>
        <pt x="258" y="728" on="0"/>
        <pt x="253" y="730" on="1"/>
        <pt x="247" y="738" on="0"/>
        <pt x="234" y="754" on="0"/>
        <pt x="228" y="762" on="1"/>
        <pt x="225" y="774" on="0"/>
        <pt x="218" y="788" on="1"/>
        <pt x="215" y="827" on="0"/>
        <pt x="228" y="836" on="1"/>
        <pt x="231" y="838" on="0"/>
        <pt x="235" y="843" on="1"/>
        <pt x="248" y="862" on="0"/>
        <pt x="268" y="864" on="0"/>
        <pt x="273" y="866" on="1"/>
        <pt x="294" y="866" on="0"/>
        <pt x="333" y="862" on="0"/>
        <pt x="343" y="849" on="1"/>
        <pt x="354" y="851" on="0"/>
        <pt x="366" y="839" on="0"/>
        <pt x="374" y="836" on="1"/>
        <pt x="374" y="831" on="0"/>
        <pt x="381" y="825" on="0"/>
        <pt x="382" y="822" on="1"/>
        <pt x="382" y="812" on="0"/>
        <pt x="385" y="810" on="0"/>
        <pt x="386" y="809" on="1"/>
        <pt x="384" y="798" on="1"/>
        <pt x="384" y="796" on="0"/>
        <pt x="387" y="781" on="1"/>
        <pt x="381" y="769" on="0"/>
        <pt x="377" y="753" on="1"/>
        <pt x="367" y="746" on="0"/>
        <pt x="349" y="735" on="0"/>
        <pt x="344" y="724" on="1"/>
        <pt x="337" y="728" on="0"/>
        <pt x="323" y="722" on="1"/>
        <pt x="328" y="717" on="0"/>
        <pt x="332" y="704" on="0"/>
        <pt x="344" y="686" on="0"/>
        <pt x="352" y="681" on="0"/>
        <pt x="358" y="667" on="0"/>
        <pt x="365" y="654" on="0"/>
        <pt x="371" y="641" on="0"/>
        <pt x="371" y="620" on="0"/>
        <pt x="381" y="616" on="1"/>
        <pt x="384" y="607" on="0"/>
        <pt x="386" y="607" on="0"/>
        <pt x="388" y="602" on="1"/>
        <pt x="391" y="595" on="0"/>
        <pt x="401" y="567" on="0"/>
        <pt x="395" y="561" on="1"/>
        <pt x="400" y="558" on="0"/>
        <pt x="401" y="545" on="0"/>
        <pt x="402" y="538" on="1"/>
        <pt x="407" y="530" on="0"/>
        <pt x="406" y="527" on="1"/>
        <pt x="408" y="522" on="0"/>
        <pt x="419" y="509" on="1"/>
        <pt x="419" y="497" on="1"/>
        <pt x="424" y="485" on="0"/>
        <pt x="433" y="466" on="0"/>
        <pt x="431" y="456" on="0"/>
        <pt x="435" y="443" on="0"/>
        <pt x="442" y="431" on="0"/>
        <pt x="440" y="424" on="1"/>
        <pt x="443" y="418" on="0"/>
        <pt x="449" y="409" on="0"/>
        <pt x="450" y="402" on="0"/>
        <pt x="457" y="388" on="0"/>
        <pt x="457" y="381" on="0"/>
        <pt x="465" y="369" on="0"/>
        <pt x="464" y="359" on="0"/>
        <pt x="470" y="340" on="0"/>
        <pt x="467" y="331" on="1"/>
        <pt x="474" y="322" on="0"/>
        <pt x="474" y="316" on="0"/>
        <pt x="480" y="303" on="0"/>
        <pt x="486" y="299" on="0"/>
        <pt x="486" y="289" on="1"/>
      </contour>
      <contour>
        <pt x="404" y="366" on="1"/>
        <pt x="396" y="390" on="1"/>
        <pt x="391" y="415" on="1"/>
        <pt x="391" y="421" on="0"/>
        <pt x="385" y="430" on="0"/>
        <pt x="386" y="437" on="0"/>
        <pt x="384" y="446" on="0"/>
        <pt x="382" y="455" on="0"/>
        <pt x="383" y="464" on="0"/>
        <pt x="379" y="473" on="0"/>
        <pt x="371" y="483" on="0"/>
        <pt x="369" y="494" on="0"/>
        <pt x="370" y="501" on="0"/>
        <pt x="370" y="506" on="1"/>
        <pt x="357" y="521" on="0"/>
        <pt x="357" y="544" on="1"/>
        <pt x="351" y="546" on="0"/>
        <pt x="346" y="559" on="0"/>
        <pt x="338" y="561" on="1"/>
        <pt x="339" y="569" on="0"/>
        <pt x="339" y="575" on="0"/>
        <pt x="337" y="583" on="1"/>
        <pt x="325" y="587" on="0"/>
        <pt x="320" y="585" on="1"/>
        <pt x="315" y="576" on="0"/>
        <pt x="308" y="556" on="0"/>
        <pt x="302" y="544" on="0"/>
        <pt x="302" y="537" on="0"/>
        <pt x="301" y="530" on="1"/>
        <pt x="296" y="525" on="0"/>
        <pt x="296" y="521" on="0"/>
        <pt x="287" y="502" on="0"/>
        <pt x="286" y="487" on="1"/>
        <pt x="284" y="484" on="0"/>
        <pt x="278" y="479" on="0"/>
        <pt x="277" y="464" on="0"/>
        <pt x="274" y="460" on="0"/>
        <pt x="272" y="452" on="0"/>
        <pt x="273" y="439" on="0"/>
        <pt x="265" y="415" on="0"/>
        <pt x="256" y="395" on="0"/>
        <pt x="256" y="383" on="1"/>
        <pt x="247" y="376" on="0"/>
        <pt x="245" y="350" on="1"/>
        <pt x="242" y="348" on="0"/>
        <pt x="249" y="343" on="0"/>
        <pt x="244" y="336" on="0"/>
        <pt x="238" y="331" on="0"/>
        <pt x="238" y="326" on="1"/>
        <pt x="235" y="322" on="0"/>
        <pt x="236" y="307" on="0"/>
        <pt x="229" y="290" on="0"/>
        <pt x="225" y="286" on="0"/>
        <pt x="227" y="278" on="0"/>
        <pt x="226" y="277" on="0"/>
        <pt x="223" y="267" on="0"/>
        <pt x="215" y="256" on="0"/>
        <pt x="214" y="240" on="0"/>
        <pt x="211" y="222" on="0"/>
        <pt x="211" y="211" on="1"/>
        <pt x="206" y="206" on="0"/>
        <pt x="205" y="194" on="0"/>
        <pt x="199" y="177" on="0"/>
        <pt x="199" y="174" on="1"/>
        <pt x="189" y="144" on="1"/>
        <pt x="189" y="141" on="0"/>
        <pt x="188" y="137" on="1"/>
        <pt x="194" y="127" on="0"/>
        <pt x="197" y="128" on="0"/>
        <pt x="203" y="121" on="0"/>
        <pt x="212" y="121" on="0"/>
        <pt x="219" y="118" on="0"/>
        <pt x="221" y="116" on="1"/>
        <pt x="226" y="113" on="0"/>
        <pt x="244" y="117" on="0"/>
        <pt x="257" y="111" on="0"/>
        <pt x="261" y="110" on="1"/>
        <pt x="281" y="115" on="0"/>
        <pt x="323" y="114" on="0"/>
        <pt x="342" y="120" on="1"/>
        <pt x="346" y="119" on="0"/>
        <pt x="349" y="116" on="0"/>
        <pt x="362" y="113" on="0"/>
        <pt x="381" y="117" on="0"/>
        <pt x="392" y="117" on="1"/>
        <pt x="416" y="113" on="0"/>
        <pt x="419" y="113" on="1"/>
        <pt x="438" y="115" on="1"/>
        <pt x="454" y="111" on="1"/>
        <pt x="470" y="114" on="0"/>
        <pt x="470" y="124" on="1"/>
        <pt x="471" y="129" on="0"/>
        <pt x="463" y="135" on="0"/>
        <pt x="462" y="146" on="0"/>
        <pt x="457" y="154" on="0"/>
        <pt x="454" y="165" on="0"/>
        <pt x="454" y="192" on="0"/>
        <pt x="441" y="211" on="1"/>
        <pt x="444" y="216" on="0"/>
        <pt x="438" y="232" on="0"/>
        <pt x="441" y="238" on="1"/>
        <pt x="431" y="251" on="0"/>
        <pt x="429" y="286" on="1"/>
        <pt x="424" y="292" on="0"/>
        <pt x="419" y="306" on="0"/>
        <pt x="409" y="333" on="0"/>
        <pt x="409" y="352" on="0"/>
        <pt x="404" y="357" on="1"/>
      </contour>
      <contour>
        <pt x="353" y="779" on="1"/>
        <pt x="357" y="792" on="0"/>
        <pt x="353" y="792" on="0"/>
        <pt x="351" y="796" on="1"/>
        <pt x="351" y="806" on="0"/>
        <pt x="346" y="809" on="0"/>
        <pt x="346" y="813" on="1"/>
        <pt x="337" y="814" on="0"/>
        <pt x="325" y="821" on="0"/>
        <pt x="317" y="822" on="1"/>
        <pt x="301" y="834" on="0"/>
        <pt x="284" y="827" on="0"/>
        <pt x="276" y="824" on="1"/>
        <pt x="275" y="808" on="0"/>
        <pt x="279" y="782" on="0"/>
        <pt x="281" y="768" on="1"/>
        <pt x="283" y="765" on="0"/>
        <pt x="289" y="769" on="0"/>
        <pt x="311" y="766" on="0"/>
        <pt x="321" y="766" on="0"/>
        <pt x="327" y="763" on="0"/>
        <pt x="336" y="765" on="0"/>
        <pt x="351" y="775" on="0"/>
      </contour>
    </TTGlyph>
    <TTGlyph name="Atilde" xMin="-15" yMin="-105" xMax="684" yMax="927">
      <component glyphName="A" x="0" y="0" flags="0x1204"/>
      <component glyphName="tilde" x="-5" y="92" flags="0x1004"/>
    </TTGlyph>
    <TTGlyph name="B" xMin="-11" yMin="-23" xMax="477" yMax="826">
      <contour>
        <pt x="460" y="263" on="1"/>
        <pt x="467" y="234" on="1"/>
        <pt x="466" y="223" on="1"/>
        <pt x="466" y="210" on="1"/>
        <pt x="466" y="182" on="0"/>
        <pt x="456" y="160" on="0"/>
        <pt x="454" y="150" on="1"/>
        <pt x="446" y="142" on="0"/>
        <pt x="447" y="136" on="1"/>
        <pt x="438" y="126" on="1"/>
        <pt x="433" y="122" on="0"/>
        <pt x="431" y="115" on="1"/>
        <pt x="421" y="111" on="0"/>
        <pt x="416" y="98" on="0"/>
        <pt x="404" y="90" on="0"/>
        <pt x="405" y="84" on="0"/>
        <pt x="401" y="79" on="1"/>
        <pt x="388" y="70" on="0"/>
        <pt x="378" y="61" on="0"/>
        <pt x="373" y="57" on="1"/>
        <pt x="363" y="61" on="0"/>
        <pt x="347" y="53" on="1"/>
        <pt x="345" y="51" on="0"/>
        <pt x="338" y="41" on="0"/>
        <pt x="326" y="40" on="0"/>
        <pt x="323" y="37" on="1"/>
        <pt x="311" y="43" on="0"/>
        <pt x="288" y="33" on="0"/>
        <pt x="283" y="25" on="1"/>
        <pt x="278" y="26" on="0"/>
        <pt x="274" y="23" on="0"/>
        <pt x="272" y="25" on="1"/>
        <pt x="267" y="19" on="0"/>
        <pt x="254" y="18" on="0"/>
        <pt x="233" y="13" on="0"/>
        <pt x="228" y="7" on="0"/>
        <pt x="224" y="3" on="1"/>
        <pt x="216" y="3" on="0"/>
        <pt x="207" y="-1" on="0"/>
        <pt x="200" y="-3" on="1"/>
        <pt x="182" y="-13" on="0"/>
        <pt x="158" y="-13" on="1"/>
        <pt x="154" y="-14" on="0"/>
        <pt x="152" y="-20" on="0"/>
        <pt x="139" y="-22" on="0"/>
        <pt x="124" y="-19" on="0"/>
        <pt x="117" y="-23" on="1"/>
        <pt x="94" y="-29" on="0"/>
        <pt x="76" y="-23" on="1"/>
        <pt x="73" y="-15" on="0"/>
        <pt x="73" y="-4" on="0"/>
        <pt x="75" y="3" on="1"/>
        <pt x="83" y="7" on="0"/>
        <pt x="84" y="9" on="1"/>
        <pt x="86" y="12" on="0"/>
        <pt x="114" y="15" on="0"/>
        <pt x="135" y="29" on="1"/>
        <pt x="132" y="34" on="0"/>
        <pt x="135" y="44" on="0"/>
        <pt x="126" y="76" on="0"/>
        <pt x="124" y="116" on="0"/>
        <pt x="116" y="129" on="1"/>
        <pt x="118" y="139" on="0"/>
        <pt x="114" y="157" on="0"/>
        <pt x="114" y="180" on="0"/>
        <pt x="108" y="195" on="1"/>
        <pt x="104" y="220" on="0"/>
        <pt x="103" y="239" on="1"/>
        <pt x="104" y="244" on="0"/>
        <pt x="107" y="248" on="0"/>
        <pt x="105" y="250" on="1"/>
        <pt x="105" y="276" on="1"/>
        <pt x="105" y="296" on="0"/>
        <pt x="97" y="323" on="0"/>
        <pt x="99" y="334" on="0"/>
        <pt x="94" y="358" on="0"/>
        <pt x="96" y="373" on="1"/>
        <pt x="89" y="381" on="0"/>
        <pt x="89" y="390" on="0"/>
        <pt x="90" y="405" on="0"/>
        <pt x="86" y="418" on="0"/>
        <pt x="87" y="450" on="0"/>
        <pt x="81" y="482" on="0"/>
        <pt x="86" y="490" on="1"/>
        <pt x="82" y="505" on="0"/>
        <pt x="86" y="513" on="1"/>
        <pt x="83" y="518" on="0"/>
        <pt x="81" y="546" on="1"/>
        <pt x="79" y="560" on="1"/>
        <pt x="75" y="578" on="1"/>
        <pt x="73" y="596" on="1"/>
        <pt x="72" y="601" on="0"/>
        <pt x="75" y="612" on="0"/>
        <pt x="75" y="617" on="1"/>
        <pt x="73" y="631" on="1"/>
        <pt x="74" y="648" on="0"/>
        <pt x="71" y="664" on="0"/>
        <pt x="71" y="671" on="1"/>
        <pt x="69" y="683" on="1"/>
        <pt x="67" y="699" on="1"/>
        <pt x="67" y="703" on="0"/>
        <pt x="70" y="712" on="1"/>
        <pt x="71" y="731" on="0"/>
        <pt x="68" y="756" on="1"/>
        <pt x="66" y="760" on="0"/>
        <pt x="59" y="761" on="0"/>
        <pt x="57" y="765" on="1"/>
        <pt x="49" y="763" on="0"/>
        <pt x="41" y="763" on="1"/>
        <pt x="26" y="763" on="1"/>
        <pt x="18" y="765" on="0"/>
        <pt x="10" y="760" on="0"/>
        <pt x="0" y="763" on="0"/>
        <pt x="-6" y="767" on="0"/>
        <pt x="-9" y="768" on="1"/>
        <pt x="-11" y="781" on="1"/>
        <pt x="-9" y="792" on="0"/>
        <pt x="9" y="796" on="0"/>
        <pt x="27" y="800" on="0"/>
        <pt x="36" y="800" on="0"/>
        <pt x="45" y="806" on="0"/>
        <pt x="52" y="811" on="0"/>
        <pt x="67" y="804" on="0"/>
        <pt x="74" y="806" on="0"/>
        <pt x="82" y="806" on="1"/>
        <pt x="105" y="804" on="0"/>
        <pt x="114" y="816" on="1"/>
        <pt x="164" y="826" on="0"/>
        <pt x="205" y="826" on="0"/>
        <pt x="209" y="824" on="1"/>
        <pt x="222" y="826" on="1"/>
        <pt x="234" y="820" on="0"/>
        <pt x="249" y="823" on="0"/>
        <pt x="263" y="821" on="0"/>
        <pt x="286" y="812" on="0"/>
        <pt x="294" y="814" on="0"/>
        <pt x="310" y="809" on="0"/>
        <pt x="325" y="805" on="0"/>
        <pt x="337" y="800" on="0"/>
        <pt x="350" y="791" on="0"/>
        <pt x="359" y="788" on="1"/>
        <pt x="360" y="784" on="0"/>
        <pt x="366" y="782" on="0"/>
        <pt x="382" y="767" on="0"/>
        <pt x="387" y="766" on="1"/>
        <pt x="389" y="763" on="0"/>
        <pt x="393" y="756" on="0"/>
        <pt x="395" y="753" on="1"/>
        <pt x="403" y="748" on="0"/>
        <pt x="413" y="738" on="0"/>
        <pt x="421" y="735" on="1"/>
        <pt x="424" y="727" on="0"/>
        <pt x="437" y="710" on="0"/>
        <pt x="442" y="701" on="1"/>
        <pt x="444" y="689" on="0"/>
        <pt x="452" y="681" on="0"/>
        <pt x="456" y="672" on="0"/>
        <pt x="458" y="664" on="0"/>
        <pt x="461" y="651" on="0"/>
        <pt x="470" y="631" on="0"/>
        <pt x="471" y="615" on="0"/>
        <pt x="473" y="603" on="0"/>
        <pt x="474" y="595" on="0"/>
        <pt x="477" y="570" on="0"/>
        <pt x="475" y="544" on="0"/>
        <pt x="477" y="536" on="1"/>
        <pt x="471" y="529" on="0"/>
        <pt x="469" y="506" on="0"/>
        <pt x="466" y="491" on="0"/>
        <pt x="461" y="488" on="0"/>
        <pt x="463" y="483" on="1"/>
        <pt x="453" y="477" on="0"/>
        <pt x="444" y="453" on="0"/>
        <pt x="435" y="445" on="1"/>
        <pt x="416" y="433" on="0"/>
        <pt x="405" y="415" on="0"/>
        <pt x="381" y="405" on="0"/>
        <pt x="375" y="398" on="0"/>
        <pt x="365" y="388" on="0"/>
        <pt x="356" y="388" on="0"/>
        <pt x="357" y="382" on="1"/>
        <pt x="358" y="377" on="0"/>
        <pt x="365" y="379" on="0"/>
        <pt x="369" y="374" on="0"/>
        <pt x="384" y="366" on="0"/>
        <pt x="391" y="363" on="0"/>
        <pt x="402" y="358" on="0"/>
        <pt x="413" y="351" on="0"/>
        <pt x="421" y="346" on="1"/>
        <pt x="424" y="339" on="0"/>
        <pt x="429" y="335" on="1"/>
        <pt x="438" y="326" on="1"/>
        <pt x="449" y="311" on="0"/>
        <pt x="452" y="297" on="0"/>
        <pt x="457" y="290" on="1"/>
        <pt x="457" y="285" on="0"/>
        <pt x="456" y="279" on="0"/>
        <pt x="458" y="274" on="1"/>
        <pt x="460" y="269" on="0"/>
      </contour>
      <contour>
        <pt x="197" y="412" on="1"/>
        <pt x="202" y="396" on="1"/>
        <pt x="198" y="391" on="0"/>
        <pt x="203" y="380" on="0"/>
        <pt x="205" y="375" on="1"/>
        <pt x="213" y="373" on="0"/>
        <pt x="225" y="379" on="0"/>
        <pt x="242" y="384" on="0"/>
        <pt x="252" y="383" on="0"/>
        <pt x="257" y="385" on="1"/>
        <pt x="267" y="393" on="0"/>
        <pt x="270" y="392" on="0"/>
        <pt x="276" y="395" on="0"/>
        <pt x="280" y="399" on="0"/>
        <pt x="285" y="398" on="1"/>
        <pt x="293" y="406" on="0"/>
        <pt x="297" y="408" on="0"/>
        <pt x="307" y="419" on="0"/>
        <pt x="313" y="420" on="0"/>
        <pt x="315" y="422" on="1"/>
        <pt x="320" y="430" on="0"/>
        <pt x="323" y="430" on="1"/>
        <pt x="334" y="444" on="0"/>
        <pt x="348" y="466" on="0"/>
        <pt x="358" y="474" on="1"/>
        <pt x="358" y="479" on="0"/>
        <pt x="360" y="483" on="1"/>
        <pt x="366" y="492" on="0"/>
        <pt x="384" y="538" on="0"/>
        <pt x="386" y="540" on="1"/>
        <pt x="389" y="546" on="0"/>
        <pt x="389" y="560" on="1"/>
        <pt x="389" y="575" on="1"/>
        <pt x="389" y="587" on="0"/>
        <pt x="386" y="614" on="0"/>
        <pt x="388" y="622" on="0"/>
        <pt x="383" y="635" on="0"/>
        <pt x="385" y="638" on="0"/>
        <pt x="385" y="641" on="1"/>
        <pt x="379" y="646" on="0"/>
        <pt x="375" y="657" on="0"/>
        <pt x="370" y="668" on="0"/>
        <pt x="367" y="673" on="0"/>
        <pt x="364" y="684" on="0"/>
        <pt x="363" y="700" on="0"/>
        <pt x="357" y="711" on="0"/>
        <pt x="344" y="720" on="0"/>
        <pt x="337" y="729" on="0"/>
        <pt x="333" y="738" on="0"/>
        <pt x="318" y="757" on="0"/>
        <pt x="315" y="761" on="0"/>
        <pt x="303" y="768" on="0"/>
        <pt x="295" y="768" on="0"/>
        <pt x="289" y="771" on="1"/>
        <pt x="284" y="766" on="0"/>
        <pt x="278" y="768" on="1"/>
        <pt x="264" y="772" on="1"/>
        <pt x="249" y="772" on="1"/>
        <pt x="244" y="772" on="0"/>
        <pt x="238" y="774" on="1"/>
        <pt x="232" y="777" on="0"/>
        <pt x="218" y="768" on="1"/>
        <pt x="206" y="763" on="0"/>
        <pt x="192" y="751" on="0"/>
        <pt x="189" y="750" on="1"/>
        <pt x="188" y="742" on="0"/>
        <pt x="176" y="731" on="0"/>
        <pt x="174" y="723" on="1"/>
        <pt x="178" y="703" on="1"/>
        <pt x="179" y="701" on="0"/>
        <pt x="177" y="695" on="0"/>
        <pt x="177" y="678" on="0"/>
        <pt x="180" y="666" on="1"/>
        <pt x="186" y="642" on="0"/>
        <pt x="186" y="628" on="1"/>
        <pt x="186" y="618" on="1"/>
        <pt x="189" y="606" on="0"/>
        <pt x="189" y="600" on="1"/>
        <pt x="189" y="525" on="1"/>
        <pt x="191" y="493" on="1"/>
        <pt x="191" y="482" on="1"/>
        <pt x="194" y="468" on="0"/>
        <pt x="194" y="451" on="0"/>
        <pt x="200" y="428" on="0"/>
      </contour>
      <contour>
        <pt x="255" y="343" on="1"/>
        <pt x="250" y="343" on="0"/>
        <pt x="242" y="338" on="1"/>
        <pt x="235" y="338" on="0"/>
        <pt x="223" y="334" on="0"/>
        <pt x="220" y="334" on="1"/>
        <pt x="221" y="329" on="0"/>
        <pt x="213" y="322" on="0"/>
        <pt x="214" y="312" on="0"/>
        <pt x="209" y="304" on="0"/>
        <pt x="211" y="300" on="0"/>
        <pt x="201" y="283" on="0"/>
        <pt x="208" y="256" on="0"/>
        <pt x="212" y="221" on="0"/>
        <pt x="211" y="199" on="0"/>
        <pt x="214" y="194" on="0"/>
        <pt x="216" y="180" on="0"/>
        <pt x="214" y="162" on="0"/>
        <pt x="217" y="149" on="0"/>
        <pt x="218" y="147" on="1"/>
        <pt x="224" y="140" on="0"/>
        <pt x="219" y="113" on="0"/>
        <pt x="223" y="100" on="1"/>
        <pt x="223" y="96" on="0"/>
        <pt x="221" y="89" on="0"/>
        <pt x="227" y="72" on="0"/>
        <pt x="229" y="66" on="1"/>
        <pt x="250" y="71" on="0"/>
        <pt x="253" y="74" on="1"/>
        <pt x="259" y="76" on="0"/>
        <pt x="273" y="76" on="0"/>
        <pt x="284" y="80" on="0"/>
        <pt x="294" y="85" on="0"/>
        <pt x="300" y="86" on="1"/>
        <pt x="303" y="92" on="0"/>
        <pt x="313" y="99" on="0"/>
        <pt x="318" y="104" on="1"/>
        <pt x="321" y="104" on="0"/>
        <pt x="329" y="102" on="1"/>
        <pt x="331" y="109" on="0"/>
        <pt x="339" y="115" on="0"/>
        <pt x="343" y="118" on="1"/>
        <pt x="345" y="122" on="0"/>
        <pt x="349" y="128" on="1"/>
        <pt x="355" y="134" on="0"/>
        <pt x="353" y="138" on="0"/>
        <pt x="356" y="139" on="1"/>
        <pt x="375" y="167" on="0"/>
        <pt x="372" y="180" on="1"/>
        <pt x="371" y="184" on="0"/>
        <pt x="372" y="188" on="1"/>
        <pt x="375" y="216" on="1"/>
        <pt x="376" y="221" on="0"/>
        <pt x="378" y="229" on="0"/>
        <pt x="378" y="231" on="1"/>
        <pt x="373" y="264" on="1"/>
        <pt x="373" y="268" on="0"/>
        <pt x="367" y="273" on="0"/>
        <pt x="364" y="291" on="0"/>
        <pt x="362" y="288" on="0"/>
        <pt x="362" y="295" on="1"/>
        <pt x="357" y="295" on="0"/>
        <pt x="348" y="306" on="0"/>
        <pt x="335" y="313" on="0"/>
        <pt x="326" y="322" on="0"/>
        <pt x="313" y="324" on="0"/>
        <pt x="301" y="337" on="0"/>
        <pt x="294" y="334" on="0"/>
        <pt x="283" y="338" on="0"/>
        <pt x="276" y="339" on="1"/>
      </contour>
    </TTGlyph>
    <TTGlyph name="C" xMin="36" yMin="19" xMax="629" yMax="783">
      <contour>
        <pt x="280" y="39" on="1"/>
        <pt x="247" y="47" on="1"/>
        <pt x="238" y="56" on="0"/>
        <pt x="222" y="60" on="1"/>
        <pt x="220" y="68" on="0"/>
        <pt x="205" y="71" on="0"/>
        <pt x="200" y="76" on="1"/>
        <pt x="195" y="78" on="0"/>
        <pt x="177" y="78" on="0"/>
        <pt x="169" y="89" on="0"/>
        <pt x="144" y="106" on="0"/>
        <pt x="133" y="124" on="0"/>
        <pt x="127" y="129" on="0"/>
        <pt x="121" y="137" on="0"/>
        <pt x="117" y="140" on="1"/>
        <pt x="118" y="145" on="0"/>
        <pt x="114" y="149" on="0"/>
        <pt x="116" y="155" on="1"/>
        <pt x="109" y="165" on="0"/>
        <pt x="96" y="183" on="0"/>
        <pt x="93" y="196" on="1"/>
        <pt x="76" y="211" on="0"/>
        <pt x="71" y="230" on="0"/>
        <pt x="57" y="244" on="0"/>
        <pt x="51" y="260" on="0"/>
        <pt x="52" y="281" on="0"/>
        <pt x="49" y="294" on="1"/>
        <pt x="44" y="305" on="0"/>
        <pt x="45" y="312" on="0"/>
        <pt x="44" y="320" on="0"/>
        <pt x="41" y="330" on="0"/>
        <pt x="35" y="347" on="0"/>
        <pt x="37" y="354" on="0"/>
        <pt x="37" y="366" on="0"/>
        <pt x="36" y="388" on="0"/>
        <pt x="39" y="438" on="0"/>
        <pt x="44" y="478" on="0"/>
        <pt x="44" y="487" on="1"/>
        <pt x="43" y="500" on="0"/>
        <pt x="55" y="520" on="0"/>
        <pt x="55" y="535" on="0"/>
        <pt x="64" y="549" on="0"/>
        <pt x="63" y="555" on="0"/>
        <pt x="76" y="572" on="0"/>
        <pt x="75" y="580" on="0"/>
        <pt x="84" y="592" on="0"/>
        <pt x="87" y="599" on="0"/>
        <pt x="98" y="613" on="0"/>
        <pt x="101" y="620" on="0"/>
        <pt x="108" y="631" on="0"/>
        <pt x="114" y="636" on="0"/>
        <pt x="124" y="648" on="0"/>
        <pt x="126" y="648" on="1"/>
        <pt x="134" y="648" on="0"/>
        <pt x="140" y="669" on="1"/>
        <pt x="142" y="671" on="0"/>
        <pt x="150" y="674" on="0"/>
        <pt x="153" y="676" on="1"/>
        <pt x="157" y="683" on="0"/>
        <pt x="169" y="693" on="0"/>
        <pt x="174" y="700" on="1"/>
        <pt x="180" y="707" on="0"/>
        <pt x="198" y="720" on="1"/>
        <pt x="207" y="729" on="0"/>
        <pt x="210" y="728" on="0"/>
        <pt x="221" y="739" on="0"/>
        <pt x="234" y="741" on="0"/>
        <pt x="246" y="749" on="0"/>
        <pt x="252" y="755" on="0"/>
        <pt x="267" y="763" on="0"/>
        <pt x="279" y="766" on="0"/>
        <pt x="290" y="769" on="0"/>
        <pt x="296" y="769" on="0"/>
        <pt x="305" y="771" on="0"/>
        <pt x="310" y="775" on="0"/>
        <pt x="318" y="778" on="0"/>
        <pt x="328" y="777" on="0"/>
        <pt x="359" y="784" on="0"/>
        <pt x="381" y="781" on="0"/>
        <pt x="401" y="781" on="0"/>
        <pt x="413" y="775" on="0"/>
        <pt x="425" y="773" on="0"/>
        <pt x="438" y="774" on="0"/>
        <pt x="446" y="771" on="0"/>
        <pt x="450" y="769" on="1"/>
        <pt x="464" y="762" on="0"/>
        <pt x="474" y="759" on="0"/>
        <pt x="499" y="742" on="0"/>
        <pt x="529" y="736" on="0"/>
        <pt x="536" y="735" on="0"/>
        <pt x="540" y="729" on="0"/>
        <pt x="544" y="732" on="1"/>
        <pt x="552" y="736" on="0"/>
        <pt x="554" y="750" on="1"/>
        <pt x="557" y="754" on="0"/>
        <pt x="566" y="758" on="0"/>
        <pt x="568" y="763" on="1"/>
        <pt x="577" y="762" on="0"/>
        <pt x="583" y="770" on="0"/>
        <pt x="592" y="768" on="1"/>
        <pt x="599" y="761" on="0"/>
        <pt x="605" y="740" on="0"/>
        <pt x="610" y="731" on="1"/>
        <pt x="609" y="727" on="0"/>
        <pt x="609" y="721" on="0"/>
        <pt x="608" y="718" on="1"/>
        <pt x="606" y="692" on="1"/>
        <pt x="610" y="680" on="0"/>
        <pt x="602" y="666" on="0"/>
        <pt x="599" y="658" on="0"/>
        <pt x="600" y="651" on="0"/>
        <pt x="596" y="639" on="0"/>
        <pt x="598" y="632" on="0"/>
        <pt x="597" y="623" on="0"/>
        <pt x="594" y="605" on="0"/>
        <pt x="596" y="594" on="1"/>
        <pt x="591" y="586" on="0"/>
        <pt x="585" y="569" on="0"/>
        <pt x="579" y="564" on="1"/>
        <pt x="567" y="566" on="0"/>
        <pt x="562" y="563" on="0"/>
        <pt x="550" y="562" on="1"/>
        <pt x="547" y="565" on="0"/>
        <pt x="547" y="570" on="0"/>
        <pt x="542" y="572" on="1"/>
        <pt x="541" y="579" on="0"/>
        <pt x="535" y="588" on="0"/>
        <pt x="532" y="606" on="0"/>
        <pt x="540" y="634" on="0"/>
        <pt x="538" y="649" on="1"/>
        <pt x="530" y="656" on="0"/>
        <pt x="528" y="664" on="1"/>
        <pt x="515" y="677" on="0"/>
        <pt x="501" y="681" on="0"/>
        <pt x="496" y="686" on="0"/>
        <pt x="494" y="692" on="0"/>
        <pt x="476" y="700" on="0"/>
        <pt x="466" y="699" on="1"/>
        <pt x="463" y="706" on="0"/>
        <pt x="450" y="712" on="0"/>
        <pt x="438" y="718" on="0"/>
        <pt x="433" y="719" on="0"/>
        <pt x="429" y="721" on="1"/>
        <pt x="414" y="720" on="0"/>
        <pt x="394" y="728" on="0"/>
        <pt x="377" y="728" on="0"/>
        <pt x="367" y="735" on="0"/>
        <pt x="361" y="731" on="0"/>
        <pt x="357" y="731" on="1"/>
        <pt x="343" y="735" on="1"/>
        <pt x="329" y="733" on="1"/>
        <pt x="325" y="732" on="0"/>
        <pt x="323" y="732" on="1"/>
        <pt x="318" y="734" on="0"/>
        <pt x="305" y="726" on="1"/>
        <pt x="294" y="721" on="1"/>
        <pt x="290" y="716" on="0"/>
        <pt x="266" y="700" on="0"/>
        <pt x="258" y="698" on="1"/>
        <pt x="257" y="690" on="0"/>
        <pt x="245" y="685" on="0"/>
        <pt x="238" y="677" on="0"/>
        <pt x="236" y="669" on="0"/>
        <pt x="231" y="660" on="0"/>
        <pt x="225" y="648" on="0"/>
        <pt x="218" y="641" on="0"/>
        <pt x="214" y="634" on="0"/>
        <pt x="209" y="635" on="1"/>
        <pt x="204" y="613" on="0"/>
        <pt x="187" y="596" on="1"/>
        <pt x="186" y="593" on="0"/>
        <pt x="187" y="587" on="0"/>
        <pt x="183" y="578" on="0"/>
        <pt x="183" y="560" on="0"/>
        <pt x="180" y="545" on="0"/>
        <pt x="176" y="536" on="0"/>
        <pt x="173" y="527" on="0"/>
        <pt x="176" y="521" on="0"/>
        <pt x="167" y="484" on="0"/>
        <pt x="169" y="432" on="0"/>
        <pt x="160" y="410" on="1"/>
        <pt x="168" y="369" on="0"/>
        <pt x="163" y="346" on="0"/>
        <pt x="164" y="338" on="1"/>
        <pt x="170" y="323" on="0"/>
        <pt x="167" y="299" on="0"/>
        <pt x="183" y="258" on="0"/>
        <pt x="190" y="233" on="0"/>
        <pt x="197" y="218" on="0"/>
        <pt x="197" y="211" on="0"/>
        <pt x="202" y="203" on="0"/>
        <pt x="211" y="192" on="0"/>
        <pt x="219" y="176" on="0"/>
        <pt x="223" y="176" on="0"/>
        <pt x="234" y="158" on="0"/>
        <pt x="259" y="133" on="0"/>
        <pt x="267" y="122" on="1"/>
        <pt x="280" y="116" on="0"/>
        <pt x="307" y="99" on="0"/>
        <pt x="328" y="91" on="0"/>
        <pt x="336" y="92" on="0"/>
        <pt x="348" y="87" on="0"/>
        <pt x="359" y="82" on="1"/>
        <pt x="399" y="62" on="0"/>
        <pt x="414" y="74" on="1"/>
        <pt x="426" y="81" on="0"/>
        <pt x="445" y="74" on="0"/>
        <pt x="467" y="83" on="0"/>
        <pt x="483" y="89" on="0"/>
        <pt x="495" y="94" on="0"/>
        <pt x="505" y="97" on="0"/>
        <pt x="510" y="99" on="1"/>
        <pt x="526" y="110" on="0"/>
        <pt x="543" y="124" on="0"/>
        <pt x="545" y="135" on="1"/>
        <pt x="552" y="136" on="0"/>
        <pt x="558" y="144" on="0"/>
        <pt x="563" y="148" on="1"/>
        <pt x="567" y="156" on="0"/>
        <pt x="570" y="155" on="0"/>
        <pt x="573" y="159" on="0"/>
        <pt x="579" y="171" on="0"/>
        <pt x="586" y="176" on="0"/>
        <pt x="588" y="178" on="1"/>
        <pt x="591" y="184" on="0"/>
        <pt x="610" y="198" on="0"/>
        <pt x="617" y="193" on="1"/>
        <pt x="626" y="183" on="0"/>
        <pt x="631" y="155" on="0"/>
        <pt x="625" y="139" on="0"/>
        <pt x="606" y="128" on="1"/>
        <pt x="605" y="122" on="0"/>
        <pt x="592" y="110" on="0"/>
        <pt x="585" y="101" on="0"/>
        <pt x="579" y="93" on="0"/>
        <pt x="565" y="81" on="0"/>
        <pt x="555" y="73" on="0"/>
        <pt x="547" y="64" on="0"/>
        <pt x="540" y="60" on="0"/>
        <pt x="530" y="60" on="0"/>
        <pt x="515" y="54" on="0"/>
        <pt x="497" y="41" on="0"/>
        <pt x="481" y="41" on="1"/>
        <pt x="463" y="31" on="1"/>
        <pt x="454" y="31" on="1"/>
        <pt x="449" y="31" on="0"/>
        <pt x="447" y="33" on="1"/>
        <pt x="437" y="25" on="0"/>
        <pt x="433" y="27" on="0"/>
        <pt x="418" y="20" on="0"/>
        <pt x="389" y="20" on="0"/>
        <pt x="362" y="22" on="0"/>
        <pt x="349" y="23" on="0"/>
        <pt x="343" y="19" on="1"/>
        <pt x="340" y="21" on="0"/>
        <pt x="336" y="24" on="0"/>
        <pt x="328" y="29" on="0"/>
        <pt x="317" y="31" on="0"/>
        <pt x="308" y="35" on="0"/>
        <pt x="303" y="39" on="0"/>
        <pt x="296" y="40" on="0"/>
        <pt x="282" y="40" on="0"/>
      </contour>
    </TTGlyph>
    <TTGlyph name="Ccedilla" xMin="36" yMin="-250" xMax="629" yMax="763">
      <contour>
        <pt x="343" y="715" on="1"/>
        <pt x="323" y="713" on="1"/>
        <pt x="317" y="713" on="0"/>
        <pt x="305" y="706" on="1"/>
        <pt x="294" y="701" on="1"/>
        <pt x="290" y="696" on="0"/>
        <pt x="266" y="681" on="0"/>
        <pt x="258" y="679" on="1"/>
        <pt x="257" y="671" on="0"/>
        <pt x="245" y="666" on="0"/>
        <pt x="238" y="657" on="0"/>
        <pt x="236" y="649" on="0"/>
        <pt x="231" y="640" on="0"/>
        <pt x="225" y="629" on="0"/>
        <pt x="218" y="621" on="0"/>
        <pt x="214" y="613" on="0"/>
        <pt x="209" y="614" on="1"/>
        <pt x="204" y="594" on="0"/>
        <pt x="187" y="577" on="1"/>
        <pt x="186" y="573" on="0"/>
        <pt x="187" y="566" on="0"/>
        <pt x="183" y="558" on="0"/>
        <pt x="183" y="540" on="0"/>
        <pt x="180" y="525" on="0"/>
        <pt x="176" y="516" on="0"/>
        <pt x="173" y="508" on="0"/>
        <pt x="176" y="501" on="0"/>
        <pt x="167" y="465" on="0"/>
        <pt x="169" y="412" on="0"/>
        <pt x="160" y="389" on="1"/>
        <pt x="168" y="351" on="0"/>
        <pt x="163" y="325" on="0"/>
        <pt x="164" y="317" on="1"/>
        <pt x="170" y="303" on="0"/>
        <pt x="167" y="276" on="0"/>
        <pt x="182" y="241" on="0"/>
        <pt x="189" y="217" on="0"/>
        <pt x="193" y="207" on="0"/>
        <pt x="197" y="199" on="0"/>
        <pt x="197" y="192" on="0"/>
        <pt x="202" y="182" on="0"/>
        <pt x="211" y="171" on="0"/>
        <pt x="215" y="166" on="1"/>
        <pt x="219" y="156" on="0"/>
        <pt x="223" y="156" on="0"/>
        <pt x="226" y="151" on="0"/>
        <pt x="241" y="131" on="0"/>
        <pt x="259" y="112" on="0"/>
        <pt x="267" y="101" on="1"/>
        <pt x="280" y="96" on="0"/>
        <pt x="307" y="79" on="0"/>
        <pt x="328" y="71" on="0"/>
        <pt x="336" y="72" on="0"/>
        <pt x="348" y="68" on="0"/>
        <pt x="370" y="56" on="0"/>
        <pt x="380" y="52" on="1"/>
        <pt x="403" y="45" on="0"/>
        <pt x="427" y="61" on="0"/>
        <pt x="445" y="54" on="0"/>
        <pt x="467" y="62" on="0"/>
        <pt x="483" y="69" on="0"/>
        <pt x="495" y="74" on="0"/>
        <pt x="505" y="77" on="0"/>
        <pt x="526" y="90" on="0"/>
        <pt x="543" y="104" on="0"/>
        <pt x="545" y="115" on="1"/>
        <pt x="552" y="117" on="0"/>
        <pt x="558" y="124" on="0"/>
        <pt x="563" y="128" on="1"/>
        <pt x="567" y="135" on="0"/>
        <pt x="570" y="135" on="0"/>
        <pt x="573" y="138" on="0"/>
        <pt x="578" y="149" on="0"/>
        <pt x="580" y="151" on="1"/>
        <pt x="588" y="159" on="1"/>
        <pt x="590" y="164" on="0"/>
        <pt x="609" y="178" on="0"/>
        <pt x="617" y="172" on="1"/>
        <pt x="623" y="169" on="1"/>
        <pt x="626" y="164" on="0"/>
        <pt x="631" y="135" on="0"/>
        <pt x="625" y="119" on="0"/>
        <pt x="606" y="108" on="1"/>
        <pt x="605" y="102" on="0"/>
        <pt x="598" y="96" on="1"/>
        <pt x="588" y="85" on="1"/>
        <pt x="582" y="77" on="0"/>
        <pt x="577" y="72" on="1"/>
        <pt x="568" y="63" on="1"/>
        <pt x="564" y="59" on="0"/>
        <pt x="555" y="52" on="0"/>
        <pt x="547" y="44" on="0"/>
        <pt x="540" y="40" on="0"/>
        <pt x="530" y="40" on="0"/>
        <pt x="515" y="34" on="0"/>
        <pt x="497" y="20" on="0"/>
        <pt x="481" y="20" on="1"/>
        <pt x="463" y="10" on="1"/>
        <pt x="458" y="11" on="0"/>
        <pt x="449" y="10" on="0"/>
        <pt x="447" y="12" on="1"/>
        <pt x="437" y="5" on="0"/>
        <pt x="433" y="6" on="0"/>
        <pt x="423" y="3" on="0"/>
        <pt x="407" y="0" on="1"/>
        <pt x="403" y="-17" on="0"/>
        <pt x="395" y="-35" on="0"/>
        <pt x="386" y="-40" on="1"/>
        <pt x="386" y="-47" on="0"/>
        <pt x="378" y="-52" on="0"/>
        <pt x="376" y="-59" on="1"/>
        <pt x="381" y="-70" on="0"/>
        <pt x="400" y="-70" on="0"/>
        <pt x="408" y="-72" on="1"/>
        <pt x="415" y="-76" on="0"/>
        <pt x="418" y="-75" on="0"/>
        <pt x="420" y="-75" on="1"/>
        <pt x="429" y="-82" on="1"/>
        <pt x="437" y="-86" on="0"/>
        <pt x="443" y="-87" on="0"/>
        <pt x="462" y="-106" on="0"/>
        <pt x="465" y="-134" on="1"/>
        <pt x="463" y="-144" on="0"/>
        <pt x="464" y="-168" on="0"/>
        <pt x="458" y="-184" on="1"/>
        <pt x="453" y="-189" on="0"/>
        <pt x="453" y="-197" on="0"/>
        <pt x="445" y="-203" on="0"/>
        <pt x="446" y="-209" on="0"/>
        <pt x="438" y="-218" on="0"/>
        <pt x="429" y="-221" on="0"/>
        <pt x="427" y="-227" on="1"/>
        <pt x="417" y="-226" on="0"/>
        <pt x="415" y="-234" on="1"/>
        <pt x="407" y="-233" on="0"/>
        <pt x="396" y="-243" on="0"/>
        <pt x="392" y="-237" on="1"/>
        <pt x="387" y="-239" on="0"/>
        <pt x="368" y="-251" on="0"/>
        <pt x="360" y="-250" on="1"/>
        <pt x="312" y="-247" on="1"/>
        <pt x="307" y="-247" on="0"/>
        <pt x="284" y="-249" on="0"/>
        <pt x="279" y="-247" on="1"/>
        <pt x="275" y="-242" on="0"/>
        <pt x="271" y="-243" on="0"/>
        <pt x="260" y="-230" on="0"/>
        <pt x="265" y="-225" on="1"/>
        <pt x="253" y="-215" on="0"/>
        <pt x="256" y="-199" on="1"/>
        <pt x="271" y="-184" on="0"/>
        <pt x="279" y="-194" on="1"/>
        <pt x="290" y="-213" on="0"/>
        <pt x="302" y="-218" on="1"/>
        <pt x="310" y="-217" on="0"/>
        <pt x="321" y="-214" on="0"/>
        <pt x="351" y="-215" on="0"/>
        <pt x="367" y="-202" on="1"/>
        <pt x="375" y="-198" on="0"/>
        <pt x="391" y="-184" on="1"/>
        <pt x="402" y="-136" on="0"/>
        <pt x="403" y="-120" on="1"/>
        <pt x="394" y="-107" on="0"/>
        <pt x="356" y="-107" on="0"/>
        <pt x="349" y="-122" on="1"/>
        <pt x="341" y="-123" on="0"/>
        <pt x="330" y="-130" on="0"/>
        <pt x="316" y="-125" on="0"/>
        <pt x="306" y="-123" on="0"/>
        <pt x="302" y="-118" on="1"/>
        <pt x="300" y="-113" on="0"/>
        <pt x="303" y="-91" on="0"/>
        <pt x="308" y="-82" on="0"/>
        <pt x="312" y="-78" on="0"/>
        <pt x="316" y="-73" on="0"/>
        <pt x="317" y="-67" on="0"/>
        <pt x="321" y="-62" on="0"/>
        <pt x="324" y="-57" on="0"/>
        <pt x="326" y="-55" on="1"/>
        <pt x="328" y="-53" on="0"/>
        <pt x="329" y="-47" on="0"/>
        <pt x="342" y="-32" on="0"/>
        <pt x="345" y="-27" on="1"/>
        <pt x="353" y="-21" on="0"/>
        <pt x="351" y="-16" on="0"/>
        <pt x="360" y="-4" on="0"/>
        <pt x="363" y="1" on="1"/>
        <pt x="358" y="2" on="0"/>
        <pt x="348" y="2" on="0"/>
        <pt x="343" y="0" on="1"/>
        <pt x="340" y="1" on="0"/>
        <pt x="336" y="4" on="0"/>
        <pt x="328" y="8" on="0"/>
        <pt x="317" y="10" on="0"/>
        <pt x="308" y="14" on="0"/>
        <pt x="303" y="18" on="0"/>
        <pt x="296" y="20" on="0"/>
        <pt x="282" y="19" on="0"/>
        <pt x="272" y="18" on="0"/>
        <pt x="255" y="27" on="0"/>
        <pt x="247" y="27" on="1"/>
        <pt x="238" y="36" on="0"/>
        <pt x="222" y="40" on="1"/>
        <pt x="220" y="47" on="0"/>
        <pt x="205" y="51" on="0"/>
        <pt x="200" y="56" on="1"/>
        <pt x="195" y="58" on="0"/>
        <pt x="177" y="56" on="0"/>
        <pt x="173" y="62" on="1"/>
        <pt x="168" y="70" on="0"/>
        <pt x="145" y="84" on="0"/>
        <pt x="133" y="104" on="0"/>
        <pt x="129" y="106" on="1"/>
        <pt x="124" y="113" on="0"/>
        <pt x="117" y="121" on="1"/>
        <pt x="118" y="126" on="0"/>
        <pt x="114" y="129" on="0"/>
        <pt x="116" y="134" on="1"/>
        <pt x="96" y="162" on="0"/>
        <pt x="93" y="175" on="1"/>
        <pt x="76" y="188" on="0"/>
        <pt x="71" y="211" on="0"/>
        <pt x="64" y="217" on="1"/>
        <pt x="50" y="229" on="0"/>
        <pt x="52" y="260" on="0"/>
        <pt x="44" y="285" on="0"/>
        <pt x="45" y="292" on="0"/>
        <pt x="44" y="302" on="0"/>
        <pt x="35" y="327" on="0"/>
        <pt x="37" y="334" on="0"/>
        <pt x="37" y="346" on="0"/>
        <pt x="36" y="368" on="0"/>
        <pt x="39" y="416" on="0"/>
        <pt x="44" y="459" on="0"/>
        <pt x="43" y="481" on="0"/>
        <pt x="55" y="500" on="0"/>
        <pt x="55" y="514" on="0"/>
        <pt x="57" y="519" on="1"/>
        <pt x="64" y="528" on="0"/>
        <pt x="64" y="532" on="1"/>
        <pt x="63" y="537" on="0"/>
        <pt x="76" y="552" on="0"/>
        <pt x="75" y="559" on="0"/>
        <pt x="76" y="562" on="1"/>
        <pt x="84" y="571" on="0"/>
        <pt x="87" y="579" on="0"/>
        <pt x="98" y="594" on="0"/>
        <pt x="104" y="606" on="0"/>
        <pt x="114" y="616" on="0"/>
        <pt x="124" y="628" on="0"/>
        <pt x="126" y="628" on="1"/>
        <pt x="132" y="628" on="0"/>
        <pt x="140" y="648" on="1"/>
        <pt x="142" y="650" on="0"/>
        <pt x="150" y="653" on="0"/>
        <pt x="153" y="656" on="1"/>
        <pt x="157" y="663" on="0"/>
        <pt x="169" y="673" on="0"/>
        <pt x="180" y="686" on="0"/>
        <pt x="200" y="701" on="0"/>
        <pt x="204" y="706" on="0"/>
        <pt x="213" y="711" on="0"/>
        <pt x="217" y="715" on="0"/>
        <pt x="227" y="721" on="0"/>
        <pt x="234" y="721" on="0"/>
        <pt x="246" y="729" on="0"/>
        <pt x="252" y="734" on="0"/>
        <pt x="282" y="750" on="0"/>
        <pt x="296" y="750" on="0"/>
        <pt x="305" y="752" on="0"/>
        <pt x="310" y="755" on="0"/>
        <pt x="318" y="758" on="0"/>
        <pt x="328" y="757" on="0"/>
        <pt x="359" y="764" on="0"/>
        <pt x="381" y="762" on="0"/>
        <pt x="395" y="762" on="0"/>
        <pt x="405" y="759" on="0"/>
        <pt x="413" y="755" on="0"/>
        <pt x="425" y="753" on="0"/>
        <pt x="432" y="754" on="1"/>
        <pt x="440" y="755" on="0"/>
        <pt x="459" y="744" on="1"/>
        <pt x="464" y="741" on="0"/>
        <pt x="474" y="739" on="0"/>
        <pt x="492" y="725" on="0"/>
        <pt x="512" y="720" on="1"/>
        <pt x="533" y="716" on="1"/>
        <pt x="536" y="715" on="0"/>
        <pt x="540" y="710" on="0"/>
        <pt x="552" y="716" on="0"/>
        <pt x="554" y="729" on="1"/>
        <pt x="557" y="733" on="0"/>
        <pt x="566" y="738" on="0"/>
        <pt x="568" y="743" on="1"/>
        <pt x="577" y="741" on="0"/>
        <pt x="583" y="750" on="0"/>
        <pt x="592" y="749" on="1"/>
        <pt x="599" y="741" on="0"/>
        <pt x="605" y="720" on="0"/>
        <pt x="610" y="711" on="1"/>
        <pt x="609" y="707" on="0"/>
        <pt x="609" y="700" on="0"/>
        <pt x="608" y="697" on="1"/>
        <pt x="606" y="672" on="1"/>
        <pt x="611" y="662" on="0"/>
        <pt x="602" y="646" on="0"/>
        <pt x="599" y="638" on="0"/>
        <pt x="600" y="632" on="0"/>
        <pt x="596" y="618" on="0"/>
        <pt x="598" y="611" on="0"/>
        <pt x="594" y="583" on="0"/>
        <pt x="596" y="573" on="1"/>
        <pt x="591" y="566" on="0"/>
        <pt x="585" y="550" on="0"/>
        <pt x="579" y="545" on="1"/>
        <pt x="567" y="547" on="0"/>
        <pt x="562" y="543" on="0"/>
        <pt x="550" y="543" on="1"/>
        <pt x="547" y="546" on="0"/>
        <pt x="547" y="550" on="0"/>
        <pt x="542" y="552" on="1"/>
        <pt x="541" y="558" on="0"/>
        <pt x="535" y="567" on="0"/>
        <pt x="532" y="586" on="0"/>
        <pt x="540" y="613" on="0"/>
        <pt x="538" y="629" on="1"/>
        <pt x="530" y="638" on="0"/>
        <pt x="526" y="646" on="0"/>
        <pt x="517" y="652" on="0"/>
        <pt x="511" y="658" on="0"/>
        <pt x="506" y="660" on="1"/>
        <pt x="497" y="662" on="0"/>
        <pt x="491" y="680" on="0"/>
        <pt x="466" y="680" on="1"/>
        <pt x="460" y="693" on="0"/>
        <pt x="436" y="698" on="1"/>
        <pt x="433" y="698" on="0"/>
        <pt x="429" y="701" on="1"/>
        <pt x="416" y="698" on="0"/>
        <pt x="394" y="708" on="0"/>
        <pt x="377" y="708" on="0"/>
        <pt x="367" y="715" on="0"/>
        <pt x="361" y="711" on="0"/>
        <pt x="357" y="711" on="1"/>
      </contour>
    </TTGlyph>
    <TTGlyph name="D" xMin="0" yMin="56" xMax="579" yMax="827">
      <contour>
        <pt x="173" y="77" on="1"/>
        <pt x="148" y="81" on="1"/>
        <pt x="143" y="81" on="0"/>
        <pt x="138" y="71" on="0"/>
        <pt x="124" y="71" on="0"/>
        <pt x="121" y="68" on="1"/>
        <pt x="107" y="73" on="0"/>
        <pt x="77" y="58" on="0"/>
        <pt x="59" y="55" on="0"/>
        <pt x="49" y="62" on="1"/>
        <pt x="47" y="73" on="0"/>
        <pt x="53" y="86" on="0"/>
        <pt x="54" y="97" on="1"/>
        <pt x="58" y="99" on="0"/>
        <pt x="66" y="98" on="0"/>
        <pt x="80" y="105" on="0"/>
        <pt x="85" y="103" on="0"/>
        <pt x="91" y="106" on="0"/>
        <pt x="110" y="111" on="0"/>
        <pt x="111" y="117" on="1"/>
        <pt x="118" y="115" on="0"/>
        <pt x="122" y="120" on="0"/>
        <pt x="127" y="120" on="1"/>
        <pt x="130" y="127" on="0"/>
        <pt x="124" y="138" on="0"/>
        <pt x="122" y="147" on="0"/>
        <pt x="123" y="155" on="0"/>
        <pt x="121" y="170" on="0"/>
        <pt x="121" y="185" on="1"/>
        <pt x="119" y="191" on="0"/>
        <pt x="120" y="210" on="0"/>
        <pt x="117" y="220" on="0"/>
        <pt x="117" y="225" on="1"/>
        <pt x="120" y="240" on="1"/>
        <pt x="114" y="266" on="1"/>
        <pt x="113" y="273" on="0"/>
        <pt x="115" y="288" on="0"/>
        <pt x="114" y="302" on="0"/>
        <pt x="112" y="315" on="0"/>
        <pt x="111" y="322" on="1"/>
        <pt x="110" y="335" on="1"/>
        <pt x="112" y="345" on="0"/>
        <pt x="107" y="377" on="0"/>
        <pt x="107" y="384" on="1"/>
        <pt x="102" y="432" on="1"/>
        <pt x="101" y="443" on="1"/>
        <pt x="103" y="460" on="1"/>
        <pt x="103" y="473" on="0"/>
        <pt x="101" y="485" on="1"/>
        <pt x="102" y="501" on="1"/>
        <pt x="97" y="515" on="0"/>
        <pt x="99" y="523" on="0"/>
        <pt x="99" y="536" on="0"/>
        <pt x="97" y="544" on="1"/>
        <pt x="93" y="570" on="1"/>
        <pt x="93" y="576" on="0"/>
        <pt x="92" y="582" on="1"/>
        <pt x="94" y="600" on="0"/>
        <pt x="90" y="616" on="1"/>
        <pt x="87" y="630" on="1"/>
        <pt x="89" y="644" on="1"/>
        <pt x="87" y="678" on="1"/>
        <pt x="85" y="688" on="0"/>
        <pt x="85" y="711" on="0"/>
        <pt x="88" y="725" on="0"/>
        <pt x="83" y="733" on="1"/>
        <pt x="88" y="741" on="0"/>
        <pt x="83" y="755" on="0"/>
        <pt x="86" y="766" on="1"/>
        <pt x="81" y="773" on="0"/>
        <pt x="79" y="778" on="0"/>
        <pt x="67" y="778" on="1"/>
        <pt x="53" y="779" on="1"/>
        <pt x="49" y="778" on="0"/>
        <pt x="46" y="776" on="1"/>
        <pt x="32" y="771" on="0"/>
        <pt x="1" y="777" on="1"/>
        <pt x="0" y="788" on="0"/>
        <pt x="0" y="809" on="0"/>
        <pt x="11" y="814" on="1"/>
        <pt x="23" y="818" on="0"/>
        <pt x="39" y="817" on="0"/>
        <pt x="65" y="823" on="0"/>
        <pt x="80" y="823" on="1"/>
        <pt x="93" y="819" on="0"/>
        <pt x="99" y="822" on="1"/>
        <pt x="106" y="822" on="0"/>
        <pt x="115" y="819" on="0"/>
        <pt x="134" y="822" on="0"/>
        <pt x="146" y="819" on="0"/>
        <pt x="155" y="820" on="0"/>
        <pt x="165" y="824" on="0"/>
        <pt x="172" y="827" on="0"/>
        <pt x="191" y="826" on="0"/>
        <pt x="200" y="825" on="0"/>
        <pt x="204" y="825" on="1"/>
        <pt x="210" y="825" on="1"/>
        <pt x="211" y="825" on="0"/>
        <pt x="253" y="819" on="1"/>
        <pt x="269" y="820" on="1"/>
        <pt x="289" y="818" on="0"/>
        <pt x="312" y="814" on="1"/>
        <pt x="325" y="814" on="0"/>
        <pt x="338" y="807" on="0"/>
        <pt x="351" y="804" on="0"/>
        <pt x="362" y="804" on="0"/>
        <pt x="377" y="798" on="0"/>
        <pt x="402" y="780" on="0"/>
        <pt x="412" y="779" on="0"/>
        <pt x="421" y="775" on="0"/>
        <pt x="429" y="765" on="0"/>
        <pt x="434" y="765" on="1"/>
        <pt x="443" y="746" on="0"/>
        <pt x="466" y="737" on="1"/>
        <pt x="470" y="728" on="0"/>
        <pt x="475" y="726" on="1"/>
        <pt x="478" y="720" on="0"/>
        <pt x="482" y="719" on="0"/>
        <pt x="489" y="710" on="0"/>
        <pt x="494" y="706" on="1"/>
        <pt x="503" y="696" on="1"/>
        <pt x="512" y="687" on="0"/>
        <pt x="517" y="674" on="0"/>
        <pt x="530" y="660" on="0"/>
        <pt x="535" y="651" on="0"/>
        <pt x="534" y="643" on="0"/>
        <pt x="536" y="640" on="1"/>
        <pt x="544" y="628" on="0"/>
        <pt x="545" y="620" on="0"/>
        <pt x="549" y="612" on="0"/>
        <pt x="553" y="608" on="0"/>
        <pt x="554" y="605" on="1"/>
        <pt x="557" y="590" on="1"/>
        <pt x="558" y="586" on="0"/>
        <pt x="558" y="579" on="0"/>
        <pt x="562" y="568" on="0"/>
        <pt x="566" y="555" on="0"/>
        <pt x="565" y="542" on="0"/>
        <pt x="574" y="528" on="0"/>
        <pt x="576" y="501" on="0"/>
        <pt x="579" y="489" on="1"/>
        <pt x="575" y="484" on="0"/>
        <pt x="575" y="475" on="0"/>
        <pt x="577" y="465" on="0"/>
        <pt x="576" y="459" on="0"/>
        <pt x="580" y="431" on="0"/>
        <pt x="564" y="367" on="0"/>
        <pt x="558" y="356" on="0"/>
        <pt x="559" y="345" on="0"/>
        <pt x="549" y="327" on="0"/>
        <pt x="547" y="317" on="0"/>
        <pt x="542" y="312" on="1"/>
        <pt x="536" y="302" on="0"/>
        <pt x="532" y="300" on="0"/>
        <pt x="525" y="284" on="0"/>
        <pt x="517" y="278" on="0"/>
        <pt x="515" y="275" on="1"/>
        <pt x="514" y="269" on="0"/>
        <pt x="514" y="260" on="0"/>
        <pt x="511" y="258" on="1"/>
        <pt x="511" y="252" on="0"/>
        <pt x="506" y="253" on="1"/>
        <pt x="495" y="255" on="0"/>
        <pt x="492" y="233" on="1"/>
        <pt x="482" y="225" on="0"/>
        <pt x="476" y="226" on="0"/>
        <pt x="472" y="221" on="0"/>
        <pt x="469" y="212" on="0"/>
        <pt x="467" y="209" on="1"/>
        <pt x="459" y="207" on="0"/>
        <pt x="448" y="199" on="0"/>
        <pt x="440" y="197" on="1"/>
        <pt x="437" y="194" on="0"/>
        <pt x="431" y="186" on="0"/>
        <pt x="428" y="184" on="1"/>
        <pt x="420" y="182" on="0"/>
        <pt x="415" y="176" on="0"/>
        <pt x="413" y="174" on="1"/>
        <pt x="404" y="174" on="0"/>
        <pt x="398" y="170" on="1"/>
        <pt x="372" y="154" on="0"/>
        <pt x="356" y="151" on="1"/>
        <pt x="351" y="145" on="0"/>
        <pt x="335" y="142" on="0"/>
        <pt x="330" y="135" on="1"/>
        <pt x="325" y="137" on="0"/>
        <pt x="320" y="135" on="0"/>
        <pt x="317" y="135" on="1"/>
        <pt x="315" y="132" on="0"/>
        <pt x="300" y="126" on="0"/>
        <pt x="298" y="123" on="1"/>
        <pt x="292" y="116" on="0"/>
        <pt x="267" y="114" on="0"/>
        <pt x="252" y="104" on="1"/>
        <pt x="221" y="94" on="0"/>
        <pt x="215" y="89" on="1"/>
        <pt x="200" y="90" on="1"/>
        <pt x="195" y="85" on="0"/>
        <pt x="179" y="81" on="0"/>
      </contour>
      <contour>
        <pt x="405" y="250" on="1"/>
        <pt x="416" y="261" on="1"/>
        <pt x="416" y="262" on="0"/>
        <pt x="428" y="272" on="0"/>
        <pt x="430" y="280" on="0"/>
        <pt x="435" y="289" on="0"/>
        <pt x="442" y="297" on="0"/>
        <pt x="450" y="313" on="0"/>
        <pt x="456" y="323" on="0"/>
        <pt x="459" y="336" on="0"/>
        <pt x="462" y="345" on="0"/>
        <pt x="464" y="352" on="1"/>
        <pt x="471" y="388" on="0"/>
        <pt x="476" y="391" on="1"/>
        <pt x="477" y="404" on="0"/>
        <pt x="480" y="423" on="1"/>
        <pt x="478" y="434" on="1"/>
        <pt x="481" y="446" on="0"/>
        <pt x="481" y="449" on="1"/>
        <pt x="478" y="471" on="1"/>
        <pt x="480" y="485" on="1"/>
        <pt x="478" y="493" on="0"/>
        <pt x="477" y="511" on="0"/>
        <pt x="474" y="522" on="0"/>
        <pt x="477" y="526" on="0"/>
        <pt x="475" y="537" on="0"/>
        <pt x="475" y="540" on="1"/>
        <pt x="475" y="548" on="1"/>
        <pt x="475" y="556" on="0"/>
        <pt x="465" y="583" on="0"/>
        <pt x="465" y="598" on="0"/>
        <pt x="463" y="605" on="0"/>
        <pt x="461" y="613" on="0"/>
        <pt x="456" y="629" on="0"/>
        <pt x="451" y="637" on="0"/>
        <pt x="446" y="652" on="0"/>
        <pt x="441" y="659" on="0"/>
        <pt x="442" y="664" on="1"/>
        <pt x="432" y="668" on="0"/>
        <pt x="417" y="698" on="0"/>
        <pt x="407" y="705" on="1"/>
        <pt x="407" y="710" on="0"/>
        <pt x="404" y="717" on="0"/>
        <pt x="403" y="720" on="1"/>
        <pt x="393" y="725" on="0"/>
        <pt x="388" y="736" on="1"/>
        <pt x="382" y="738" on="0"/>
        <pt x="374" y="744" on="0"/>
        <pt x="369" y="746" on="1"/>
        <pt x="362" y="753" on="0"/>
        <pt x="349" y="753" on="1"/>
        <pt x="340" y="766" on="0"/>
        <pt x="324" y="773" on="0"/>
        <pt x="321" y="769" on="1"/>
        <pt x="311" y="773" on="0"/>
        <pt x="304" y="772" on="1"/>
        <pt x="292" y="769" on="0"/>
        <pt x="262" y="779" on="0"/>
        <pt x="240" y="779" on="1"/>
        <pt x="226" y="780" on="1"/>
        <pt x="215" y="780" on="0"/>
        <pt x="202" y="778" on="0"/>
        <pt x="193" y="777" on="1"/>
        <pt x="191" y="770" on="0"/>
        <pt x="178" y="769" on="0"/>
        <pt x="176" y="762" on="1"/>
        <pt x="173" y="758" on="0"/>
        <pt x="174" y="754" on="1"/>
        <pt x="186" y="718" on="0"/>
        <pt x="177" y="685" on="1"/>
        <pt x="182" y="680" on="0"/>
        <pt x="180" y="666" on="0"/>
        <pt x="182" y="655" on="0"/>
        <pt x="184" y="649" on="0"/>
        <pt x="186" y="634" on="0"/>
        <pt x="186" y="612" on="0"/>
        <pt x="189" y="595" on="0"/>
        <pt x="193" y="582" on="0"/>
        <pt x="195" y="568" on="0"/>
        <pt x="194" y="557" on="0"/>
        <pt x="199" y="541" on="0"/>
        <pt x="198" y="532" on="0"/>
        <pt x="199" y="522" on="0"/>
        <pt x="200" y="510" on="0"/>
        <pt x="202" y="505" on="1"/>
        <pt x="204" y="500" on="0"/>
        <pt x="206" y="488" on="0"/>
        <pt x="208" y="483" on="1"/>
        <pt x="206" y="475" on="0"/>
        <pt x="208" y="460" on="0"/>
        <pt x="208" y="458" on="1"/>
        <pt x="208" y="444" on="1"/>
        <pt x="215" y="406" on="0"/>
        <pt x="215" y="388" on="0"/>
        <pt x="214" y="384" on="1"/>
        <pt x="218" y="370" on="0"/>
        <pt x="221" y="342" on="1"/>
        <pt x="219" y="312" on="1"/>
        <pt x="222" y="302" on="0"/>
        <pt x="220" y="296" on="0"/>
        <pt x="222" y="282" on="0"/>
        <pt x="220" y="271" on="0"/>
        <pt x="224" y="246" on="0"/>
        <pt x="224" y="245" on="1"/>
        <pt x="222" y="230" on="1"/>
        <pt x="221" y="226" on="0"/>
        <pt x="224" y="217" on="0"/>
        <pt x="221" y="197" on="0"/>
        <pt x="221" y="194" on="1"/>
        <pt x="222" y="182" on="1"/>
        <pt x="220" y="168" on="1"/>
        <pt x="220" y="163" on="0"/>
        <pt x="224" y="149" on="0"/>
        <pt x="222" y="141" on="1"/>
        <pt x="238" y="141" on="0"/>
        <pt x="279" y="165" on="0"/>
        <pt x="284" y="164" on="0"/>
        <pt x="297" y="173" on="0"/>
        <pt x="302" y="172" on="0"/>
        <pt x="317" y="181" on="0"/>
        <pt x="325" y="184" on="0"/>
        <pt x="338" y="195" on="0"/>
        <pt x="340" y="194" on="1"/>
        <pt x="342" y="194" on="0"/>
        <pt x="352" y="200" on="1"/>
        <pt x="368" y="213" on="0"/>
        <pt x="379" y="221" on="0"/>
        <pt x="382" y="225" on="0"/>
        <pt x="389" y="231" on="0"/>
        <pt x="393" y="240" on="0"/>
        <pt x="396" y="244" on="1"/>
        <pt x="405" y="249" on="0"/>
      </contour>
    </TTGlyph>
    <TTGlyph name="E" xMin="42" yMin="-47" xMax="482" yMax="817">
      <contour>
        <pt x="188" y="676" on="1"/>
        <pt x="193" y="664" on="0"/>
        <pt x="193" y="630" on="1"/>
        <pt x="196" y="615" on="0"/>
        <pt x="196" y="613" on="1"/>
        <pt x="194" y="594" on="1"/>
        <pt x="194" y="593" on="0"/>
        <pt x="198" y="561" on="1"/>
        <pt x="196" y="551" on="0"/>
        <pt x="199" y="536" on="0"/>
        <pt x="198" y="530" on="1"/>
        <pt x="196" y="511" on="1"/>
        <pt x="196" y="504" on="0"/>
        <pt x="200" y="490" on="0"/>
        <pt x="195" y="483" on="1"/>
        <pt x="198" y="471" on="0"/>
        <pt x="200" y="468" on="1"/>
        <pt x="195" y="456" on="0"/>
        <pt x="195" y="444" on="1"/>
        <pt x="198" y="418" on="1"/>
        <pt x="193" y="392" on="1"/>
        <pt x="196" y="355" on="1"/>
        <pt x="191" y="330" on="0"/>
        <pt x="191" y="316" on="0"/>
        <pt x="194" y="295" on="0"/>
        <pt x="191" y="285" on="0"/>
        <pt x="193" y="280" on="1"/>
        <pt x="197" y="273" on="0"/>
        <pt x="213" y="275" on="0"/>
        <pt x="232" y="271" on="0"/>
        <pt x="241" y="273" on="0"/>
        <pt x="246" y="272" on="1"/>
        <pt x="265" y="270" on="1"/>
        <pt x="286" y="272" on="1"/>
        <pt x="294" y="273" on="0"/>
        <pt x="307" y="269" on="0"/>
        <pt x="313" y="270" on="1"/>
        <pt x="322" y="278" on="0"/>
        <pt x="322" y="308" on="0"/>
        <pt x="326" y="322" on="1"/>
        <pt x="331" y="327" on="0"/>
        <pt x="358" y="324" on="1"/>
        <pt x="366" y="317" on="0"/>
        <pt x="367" y="281" on="0"/>
        <pt x="368" y="260" on="1"/>
        <pt x="369" y="241" on="1"/>
        <pt x="369" y="239" on="0"/>
        <pt x="371" y="233" on="0"/>
        <pt x="369" y="218" on="0"/>
        <pt x="371" y="210" on="0"/>
        <pt x="369" y="197" on="0"/>
        <pt x="371" y="193" on="0"/>
        <pt x="369" y="183" on="0"/>
        <pt x="355" y="166" on="0"/>
        <pt x="342" y="166" on="0"/>
        <pt x="338" y="169" on="0"/>
        <pt x="333" y="173" on="0"/>
        <pt x="328" y="178" on="0"/>
        <pt x="322" y="178" on="1"/>
        <pt x="320" y="192" on="0"/>
        <pt x="310" y="206" on="0"/>
        <pt x="312" y="221" on="1"/>
        <pt x="297" y="226" on="0"/>
        <pt x="266" y="226" on="0"/>
        <pt x="239" y="223" on="0"/>
        <pt x="222" y="225" on="0"/>
        <pt x="208" y="220" on="0"/>
        <pt x="197" y="216" on="0"/>
        <pt x="190" y="214" on="1"/>
        <pt x="190" y="182" on="1"/>
        <pt x="185" y="121" on="1"/>
        <pt x="188" y="97" on="1"/>
        <pt x="188" y="91" on="0"/>
        <pt x="182" y="77" on="0"/>
        <pt x="184" y="67" on="0"/>
        <pt x="189" y="60" on="0"/>
        <pt x="190" y="56" on="1"/>
        <pt x="195" y="54" on="0"/>
        <pt x="205" y="54" on="0"/>
        <pt x="213" y="52" on="0"/>
        <pt x="219" y="49" on="0"/>
        <pt x="222" y="49" on="1"/>
        <pt x="237" y="50" on="1"/>
        <pt x="251" y="49" on="1"/>
        <pt x="277" y="54" on="1"/>
        <pt x="284" y="51" on="0"/>
        <pt x="302" y="57" on="1"/>
        <pt x="334" y="53" on="1"/>
        <pt x="346" y="55" on="1"/>
        <pt x="352" y="55" on="0"/>
        <pt x="364" y="52" on="0"/>
        <pt x="369" y="56" on="1"/>
        <pt x="377" y="50" on="0"/>
        <pt x="402" y="52" on="0"/>
        <pt x="413" y="50" on="1"/>
        <pt x="418" y="51" on="0"/>
        <pt x="427" y="63" on="1"/>
        <pt x="429" y="70" on="0"/>
        <pt x="429" y="78" on="0"/>
        <pt x="436" y="90" on="0"/>
        <pt x="443" y="100" on="0"/>
        <pt x="450" y="110" on="0"/>
        <pt x="466" y="112" on="0"/>
        <pt x="477" y="95" on="0"/>
        <pt x="477" y="83" on="0"/>
        <pt x="478" y="76" on="0"/>
        <pt x="472" y="58" on="0"/>
        <pt x="474" y="49" on="0"/>
        <pt x="468" y="32" on="0"/>
        <pt x="470" y="19" on="0"/>
        <pt x="468" y="2" on="0"/>
        <pt x="471" y="-8" on="0"/>
        <pt x="470" y="-18" on="0"/>
        <pt x="467" y="-30" on="0"/>
        <pt x="466" y="-35" on="1"/>
        <pt x="457" y="-40" on="0"/>
        <pt x="446" y="-49" on="0"/>
        <pt x="432" y="-47" on="1"/>
        <pt x="427" y="-42" on="0"/>
        <pt x="421" y="-30" on="0"/>
        <pt x="417" y="-25" on="1"/>
        <pt x="416" y="-19" on="0"/>
        <pt x="418" y="-6" on="0"/>
        <pt x="416" y="-3" on="1"/>
        <pt x="406" y="4" on="0"/>
        <pt x="400" y="6" on="0"/>
        <pt x="393" y="9" on="0"/>
        <pt x="382" y="7" on="0"/>
        <pt x="379" y="13" on="1"/>
        <pt x="374" y="11" on="0"/>
        <pt x="360" y="12" on="0"/>
        <pt x="350" y="8" on="0"/>
        <pt x="347" y="15" on="0"/>
        <pt x="340" y="13" on="1"/>
        <pt x="330" y="6" on="0"/>
        <pt x="319" y="3" on="0"/>
        <pt x="316" y="-1" on="1"/>
        <pt x="311" y="1" on="0"/>
        <pt x="301" y="7" on="0"/>
        <pt x="290" y="8" on="0"/>
        <pt x="281" y="4" on="0"/>
        <pt x="265" y="7" on="0"/>
        <pt x="260" y="4" on="0"/>
        <pt x="258" y="4" on="1"/>
        <pt x="247" y="6" on="1"/>
        <pt x="227" y="1" on="1"/>
        <pt x="212" y="2" on="1"/>
        <pt x="197" y="6" on="1"/>
        <pt x="175" y="6" on="0"/>
        <pt x="156" y="-8" on="0"/>
        <pt x="148" y="-9" on="1"/>
        <pt x="135" y="-8" on="1"/>
        <pt x="131" y="-9" on="0"/>
        <pt x="126" y="-18" on="0"/>
        <pt x="118" y="-18" on="0"/>
        <pt x="97" y="-8" on="0"/>
        <pt x="79" y="-9" on="0"/>
        <pt x="57" y="-14" on="0"/>
        <pt x="46" y="-12" on="1"/>
        <pt x="44" y="0" on="1"/>
        <pt x="40" y="17" on="0"/>
        <pt x="53" y="24" on="1"/>
        <pt x="59" y="27" on="0"/>
        <pt x="84" y="35" on="0"/>
        <pt x="89" y="41" on="1"/>
        <pt x="86" y="56" on="1"/>
        <pt x="85" y="60" on="0"/>
        <pt x="88" y="74" on="0"/>
        <pt x="83" y="84" on="1"/>
        <pt x="89" y="97" on="1"/>
        <pt x="88" y="109" on="1"/>
        <pt x="90" y="121" on="1"/>
        <pt x="90" y="132" on="0"/>
        <pt x="87" y="147" on="1"/>
        <pt x="86" y="158" on="1"/>
        <pt x="88" y="173" on="1"/>
        <pt x="88" y="192" on="0"/>
        <pt x="86" y="214" on="1"/>
        <pt x="92" y="266" on="1"/>
        <pt x="92" y="274" on="0"/>
        <pt x="88" y="281" on="1"/>
        <pt x="87" y="286" on="0"/>
        <pt x="90" y="295" on="0"/>
        <pt x="90" y="301" on="0"/>
        <pt x="87" y="313" on="1"/>
        <pt x="89" y="343" on="1"/>
        <pt x="84" y="360" on="0"/>
        <pt x="87" y="384" on="0"/>
        <pt x="87" y="395" on="1"/>
        <pt x="86" y="522" on="1"/>
        <pt x="86" y="559" on="1"/>
        <pt x="88" y="577" on="1"/>
        <pt x="86" y="603" on="1"/>
        <pt x="88" y="618" on="1"/>
        <pt x="87" y="635" on="1"/>
        <pt x="85" y="655" on="1"/>
        <pt x="83" y="669" on="0"/>
        <pt x="87" y="681" on="0"/>
        <pt x="86" y="689" on="1"/>
        <pt x="83" y="697" on="0"/>
        <pt x="72" y="703" on="0"/>
        <pt x="57" y="710" on="0"/>
        <pt x="50" y="716" on="0"/>
        <pt x="46" y="717" on="1"/>
        <pt x="47" y="724" on="0"/>
        <pt x="40" y="737" on="0"/>
        <pt x="42" y="745" on="1"/>
        <pt x="48" y="751" on="0"/>
        <pt x="88" y="751" on="0"/>
        <pt x="95" y="758" on="1"/>
        <pt x="100" y="759" on="0"/>
        <pt x="103" y="754" on="0"/>
        <pt x="114" y="755" on="0"/>
        <pt x="126" y="752" on="0"/>
        <pt x="131" y="754" on="1"/>
        <pt x="141" y="752" on="0"/>
        <pt x="152" y="752" on="0"/>
        <pt x="159" y="756" on="0"/>
        <pt x="168" y="758" on="0"/>
        <pt x="183" y="754" on="0"/>
        <pt x="213" y="756" on="0"/>
        <pt x="237" y="752" on="0"/>
        <pt x="243" y="755" on="0"/>
        <pt x="247" y="756" on="1"/>
        <pt x="264" y="757" on="1"/>
        <pt x="279" y="754" on="0"/>
        <pt x="283" y="754" on="0"/>
        <pt x="289" y="756" on="0"/>
        <pt x="296" y="758" on="0"/>
        <pt x="303" y="756" on="0"/>
        <pt x="305" y="761" on="1"/>
        <pt x="308" y="758" on="0"/>
        <pt x="316" y="754" on="1"/>
        <pt x="323" y="757" on="0"/>
        <pt x="338" y="754" on="0"/>
        <pt x="360" y="753" on="0"/>
        <pt x="369" y="757" on="0"/>
        <pt x="384" y="759" on="0"/>
        <pt x="401" y="757" on="0"/>
        <pt x="406" y="760" on="1"/>
        <pt x="415" y="775" on="0"/>
        <pt x="419" y="805" on="0"/>
        <pt x="425" y="813" on="1"/>
        <pt x="445" y="820" on="0"/>
        <pt x="453" y="817" on="1"/>
        <pt x="460" y="807" on="0"/>
        <pt x="462" y="805" on="1"/>
        <pt x="469" y="800" on="0"/>
        <pt x="473" y="763" on="0"/>
        <pt x="482" y="751" on="1"/>
        <pt x="479" y="743" on="0"/>
        <pt x="480" y="723" on="0"/>
        <pt x="474" y="718" on="1"/>
        <pt x="475" y="710" on="0"/>
        <pt x="479" y="696" on="0"/>
        <pt x="477" y="686" on="1"/>
        <pt x="472" y="677" on="0"/>
        <pt x="474" y="677" on="0"/>
        <pt x="474" y="660" on="0"/>
        <pt x="472" y="643" on="0"/>
        <pt x="471" y="634" on="1"/>
        <pt x="463" y="623" on="0"/>
        <pt x="447" y="620" on="1"/>
        <pt x="430" y="614" on="0"/>
        <pt x="421" y="623" on="1"/>
        <pt x="419" y="624" on="0"/>
        <pt x="412" y="627" on="0"/>
        <pt x="410" y="629" on="1"/>
        <pt x="412" y="634" on="0"/>
        <pt x="409" y="645" on="0"/>
        <pt x="408" y="653" on="0"/>
        <pt x="410" y="660" on="0"/>
        <pt x="406" y="684" on="0"/>
        <pt x="411" y="691" on="0"/>
        <pt x="406" y="701" on="1"/>
        <pt x="400" y="704" on="0"/>
        <pt x="385" y="704" on="0"/>
        <pt x="356" y="700" on="0"/>
        <pt x="348" y="705" on="1"/>
        <pt x="346" y="701" on="0"/>
        <pt x="336" y="704" on="0"/>
        <pt x="334" y="700" on="1"/>
        <pt x="326" y="706" on="0"/>
        <pt x="310" y="703" on="0"/>
        <pt x="302" y="705" on="1"/>
        <pt x="288" y="709" on="1"/>
        <pt x="279" y="709" on="1"/>
        <pt x="266" y="709" on="0"/>
        <pt x="257" y="702" on="0"/>
        <pt x="244" y="702" on="1"/>
        <pt x="220" y="698" on="1"/>
        <pt x="215" y="693" on="0"/>
        <pt x="213" y="692" on="1"/>
        <pt x="202" y="690" on="0"/>
      </contour>
    </TTGlyph>
    <TTGlyph name="Eacute" xMin="42" yMin="-47" xMax="482" yMax="1017">
      <component glyphName="E" x="0" y="0" flags="0x1204"/>
      <component glyphName="acute" x="-8" y="184" flags="0x1004"/>
    </TTGlyph>
    <TTGlyph name="Ecircumflex" xMin="42" yMin="-47" xMax="482" yMax="1001">
      <component glyphName="E" x="0" y="0" flags="0x1204"/>
      <component glyphName="circumflex" x="-59" y="128" flags="0x1004"/>
    </TTGlyph>
    <TTGlyph name="Edieresis" xMin="42" yMin="-47" xMax="482" yMax="911">
      <component glyphName="E" x="0" y="0" flags="0x1204"/>
      <component glyphName="dieresis" x="-61" y="112" flags="0x1004"/>
    </TTGlyph>
    <TTGlyph name="Egrave" xMin="42" yMin="-47" xMax="482" yMax="972">
      <component glyphName="E" x="0" y="0" flags="0x1204"/>
      <component glyphName="grave" x="-101" y="143" flags="0x1004"/>
    </TTGlyph>
    <TTGlyph name="Eth" xMin="38" yMin="50" xMax="521" yMax="755">
      <contour>
        <pt x="214" y="74" on="1"/>
        <pt x="207" y="67" on="0"/>
        <pt x="205" y="63" on="1"/>
        <pt x="197" y="66" on="0"/>
        <pt x="184" y="59" on="0"/>
        <pt x="175" y="57" on="0"/>
        <pt x="168" y="59" on="0"/>
        <pt x="152" y="57" on="0"/>
        <pt x="139" y="55" on="0"/>
        <pt x="128" y="57" on="1"/>
        <pt x="110" y="60" on="0"/>
        <pt x="82" y="47" on="0"/>
        <pt x="76" y="54" on="0"/>
        <pt x="73" y="56" on="1"/>
        <pt x="65" y="54" on="0"/>
        <pt x="58" y="54" on="0"/>
        <pt x="51" y="57" on="1"/>
        <pt x="41" y="76" on="0"/>
        <pt x="50" y="90" on="1"/>
        <pt x="59" y="98" on="0"/>
        <pt x="101" y="95" on="0"/>
        <pt x="112" y="100" on="1"/>
        <pt x="120" y="113" on="0"/>
        <pt x="120" y="130" on="1"/>
        <pt x="116" y="140" on="0"/>
        <pt x="118" y="148" on="0"/>
        <pt x="114" y="160" on="0"/>
        <pt x="117" y="182" on="0"/>
        <pt x="111" y="203" on="0"/>
        <pt x="114" y="204" on="0"/>
        <pt x="114" y="211" on="0"/>
        <pt x="110" y="235" on="0"/>
        <pt x="112" y="253" on="0"/>
        <pt x="116" y="279" on="0"/>
        <pt x="109" y="291" on="1"/>
        <pt x="119" y="320" on="0"/>
        <pt x="112" y="342" on="0"/>
        <pt x="110" y="354" on="1"/>
        <pt x="97" y="359" on="0"/>
        <pt x="70" y="347" on="0"/>
        <pt x="59" y="349" on="1"/>
        <pt x="58" y="344" on="0"/>
        <pt x="48" y="353" on="0"/>
        <pt x="43" y="353" on="1"/>
        <pt x="35" y="378" on="0"/>
        <pt x="50" y="385" on="1"/>
        <pt x="55" y="390" on="0"/>
        <pt x="62" y="390" on="1"/>
        <pt x="87" y="388" on="1"/>
        <pt x="103" y="391" on="0"/>
        <pt x="105" y="391" on="1"/>
        <pt x="116" y="400" on="0"/>
        <pt x="118" y="406" on="0"/>
        <pt x="120" y="407" on="1"/>
        <pt x="123" y="424" on="0"/>
        <pt x="123" y="475" on="0"/>
        <pt x="119" y="487" on="1"/>
        <pt x="128" y="524" on="0"/>
        <pt x="121" y="554" on="1"/>
        <pt x="120" y="557" on="0"/>
        <pt x="117" y="562" on="0"/>
        <pt x="117" y="576" on="0"/>
        <pt x="113" y="580" on="0"/>
        <pt x="113" y="581" on="1"/>
        <pt x="117" y="595" on="1"/>
        <pt x="120" y="650" on="0"/>
        <pt x="103" y="668" on="1"/>
        <pt x="106" y="676" on="0"/>
        <pt x="100" y="682" on="0"/>
        <pt x="95" y="691" on="0"/>
        <pt x="96" y="701" on="0"/>
        <pt x="93" y="705" on="1"/>
        <pt x="85" y="711" on="0"/>
        <pt x="49" y="702" on="0"/>
        <pt x="41" y="709" on="1"/>
        <pt x="36" y="715" on="0"/>
        <pt x="40" y="734" on="0"/>
        <pt x="41" y="743" on="1"/>
        <pt x="52" y="748" on="0"/>
        <pt x="108" y="745" on="0"/>
        <pt x="121" y="751" on="1"/>
        <pt x="163" y="745" on="0"/>
        <pt x="191" y="759" on="0"/>
        <pt x="220" y="751" on="0"/>
        <pt x="229" y="751" on="1"/>
        <pt x="245" y="751" on="1"/>
        <pt x="261" y="751" on="0"/>
        <pt x="269" y="743" on="0"/>
        <pt x="276" y="741" on="0"/>
        <pt x="283" y="742" on="0"/>
        <pt x="287" y="741" on="1"/>
        <pt x="296" y="735" on="0"/>
        <pt x="301" y="735" on="0"/>
        <pt x="311" y="730" on="0"/>
        <pt x="328" y="721" on="0"/>
        <pt x="341" y="722" on="1"/>
        <pt x="351" y="709" on="0"/>
        <pt x="366" y="707" on="1"/>
        <pt x="372" y="697" on="0"/>
        <pt x="392" y="687" on="0"/>
        <pt x="398" y="678" on="1"/>
        <pt x="406" y="675" on="0"/>
        <pt x="412" y="661" on="0"/>
        <pt x="422" y="659" on="1"/>
        <pt x="423" y="652" on="0"/>
        <pt x="430" y="648" on="1"/>
        <pt x="435" y="643" on="0"/>
        <pt x="445" y="636" on="0"/>
        <pt x="459" y="617" on="0"/>
        <pt x="470" y="604" on="0"/>
        <pt x="480" y="588" on="0"/>
        <pt x="493" y="566" on="0"/>
        <pt x="501" y="558" on="1"/>
        <pt x="498" y="548" on="0"/>
        <pt x="503" y="534" on="1"/>
        <pt x="503" y="525" on="0"/>
        <pt x="508" y="514" on="0"/>
        <pt x="507" y="510" on="0"/>
        <pt x="510" y="505" on="0"/>
        <pt x="515" y="500" on="0"/>
        <pt x="517" y="488" on="0"/>
        <pt x="516" y="473" on="0"/>
        <pt x="518" y="458" on="0"/>
        <pt x="520" y="444" on="0"/>
        <pt x="521" y="437" on="1"/>
        <pt x="521" y="412" on="1"/>
        <pt x="521" y="362" on="0"/>
        <pt x="516" y="352" on="0"/>
        <pt x="513" y="337" on="0"/>
        <pt x="509" y="313" on="0"/>
        <pt x="507" y="301" on="1"/>
        <pt x="500" y="296" on="0"/>
        <pt x="494" y="280" on="0"/>
        <pt x="489" y="274" on="1"/>
        <pt x="487" y="254" on="0"/>
        <pt x="474" y="224" on="0"/>
        <pt x="469" y="208" on="1"/>
        <pt x="458" y="200" on="0"/>
        <pt x="455" y="198" on="1"/>
        <pt x="448" y="190" on="1"/>
        <pt x="443" y="186" on="0"/>
        <pt x="434" y="175" on="0"/>
        <pt x="430" y="171" on="0"/>
        <pt x="422" y="158" on="0"/>
        <pt x="398" y="148" on="0"/>
        <pt x="391" y="141" on="0"/>
        <pt x="378" y="133" on="0"/>
        <pt x="360" y="130" on="0"/>
        <pt x="355" y="124" on="1"/>
        <pt x="340" y="121" on="0"/>
        <pt x="333" y="114" on="0"/>
        <pt x="326" y="115" on="1"/>
        <pt x="301" y="90" on="0"/>
        <pt x="257" y="90" on="1"/>
        <pt x="247" y="83" on="0"/>
        <pt x="225" y="80" on="0"/>
        <pt x="221" y="72" on="0"/>
      </contour>
      <contour>
        <pt x="218" y="300" on="1"/>
        <pt x="214" y="273" on="1"/>
        <pt x="215" y="259" on="0"/>
        <pt x="221" y="251" on="0"/>
        <pt x="220" y="247" on="1"/>
        <pt x="212" y="233" on="0"/>
        <pt x="218" y="200" on="0"/>
        <pt x="215" y="159" on="0"/>
        <pt x="230" y="136" on="1"/>
        <pt x="234" y="136" on="0"/>
        <pt x="242" y="132" on="0"/>
        <pt x="247" y="133" on="1"/>
        <pt x="260" y="141" on="0"/>
        <pt x="268" y="142" on="0"/>
        <pt x="275" y="147" on="0"/>
        <pt x="279" y="153" on="0"/>
        <pt x="282" y="157" on="1"/>
        <pt x="292" y="157" on="0"/>
        <pt x="300" y="169" on="0"/>
        <pt x="305" y="173" on="1"/>
        <pt x="314" y="177" on="0"/>
        <pt x="321" y="185" on="0"/>
        <pt x="328" y="190" on="0"/>
        <pt x="330" y="191" on="1"/>
        <pt x="342" y="196" on="0"/>
        <pt x="354" y="216" on="1"/>
        <pt x="361" y="224" on="0"/>
        <pt x="367" y="240" on="1"/>
        <pt x="373" y="250" on="0"/>
        <pt x="379" y="267" on="0"/>
        <pt x="383" y="276" on="1"/>
        <pt x="388" y="282" on="0"/>
        <pt x="386" y="287" on="0"/>
        <pt x="392" y="295" on="0"/>
        <pt x="390" y="300" on="0"/>
        <pt x="398" y="313" on="0"/>
        <pt x="399" y="322" on="0"/>
        <pt x="400" y="327" on="0"/>
        <pt x="399" y="330" on="1"/>
        <pt x="397" y="335" on="0"/>
        <pt x="407" y="356" on="0"/>
        <pt x="404" y="372" on="0"/>
        <pt x="406" y="386" on="0"/>
        <pt x="409" y="403" on="0"/>
        <pt x="409" y="412" on="1"/>
        <pt x="407" y="420" on="0"/>
        <pt x="405" y="473" on="0"/>
        <pt x="407" y="487" on="1"/>
        <pt x="402" y="497" on="0"/>
        <pt x="401" y="523" on="0"/>
        <pt x="399" y="535" on="1"/>
        <pt x="392" y="543" on="0"/>
        <pt x="390" y="569" on="0"/>
        <pt x="385" y="580" on="1"/>
        <pt x="378" y="582" on="0"/>
        <pt x="374" y="594" on="0"/>
        <pt x="370" y="603" on="0"/>
        <pt x="369" y="610" on="0"/>
        <pt x="360" y="619" on="0"/>
        <pt x="360" y="623" on="0"/>
        <pt x="359" y="625" on="1"/>
        <pt x="350" y="631" on="0"/>
        <pt x="351" y="635" on="0"/>
        <pt x="349" y="637" on="1"/>
        <pt x="340" y="640" on="0"/>
        <pt x="331" y="651" on="1"/>
        <pt x="321" y="650" on="0"/>
        <pt x="313" y="658" on="0"/>
        <pt x="305" y="655" on="1"/>
        <pt x="300" y="660" on="0"/>
        <pt x="280" y="668" on="0"/>
        <pt x="274" y="670" on="1"/>
        <pt x="238" y="687" on="0"/>
        <pt x="226" y="669" on="1"/>
        <pt x="223" y="654" on="0"/>
        <pt x="228" y="635" on="0"/>
        <pt x="230" y="625" on="1"/>
        <pt x="222" y="610" on="1"/>
        <pt x="222" y="602" on="0"/>
        <pt x="220" y="585" on="0"/>
        <pt x="222" y="572" on="0"/>
        <pt x="224" y="565" on="0"/>
        <pt x="225" y="550" on="0"/>
        <pt x="223" y="527" on="0"/>
        <pt x="228" y="514" on="0"/>
        <pt x="225" y="497" on="1"/>
        <pt x="224" y="482" on="1"/>
        <pt x="225" y="467" on="1"/>
        <pt x="222" y="454" on="1"/>
        <pt x="225" y="440" on="1"/>
        <pt x="226" y="434" on="0"/>
        <pt x="224" y="421" on="0"/>
        <pt x="227" y="414" on="1"/>
        <pt x="232" y="412" on="0"/>
        <pt x="242" y="408" on="0"/>
        <pt x="257" y="406" on="0"/>
        <pt x="281" y="411" on="0"/>
        <pt x="288" y="408" on="0"/>
        <pt x="308" y="402" on="0"/>
        <pt x="312" y="395" on="0"/>
        <pt x="310" y="383" on="1"/>
        <pt x="305" y="379" on="0"/>
        <pt x="292" y="368" on="0"/>
        <pt x="281" y="367" on="0"/>
        <pt x="268" y="366" on="0"/>
        <pt x="253" y="364" on="0"/>
        <pt x="228" y="362" on="0"/>
        <pt x="217" y="347" on="0"/>
        <pt x="219" y="333" on="0"/>
        <pt x="215" y="310" on="0"/>
        <pt x="218" y="303" on="0"/>
      </contour>
    </TTGlyph>
    <TTGlyph name="Euro" xMin="29" yMin="69" xMax="630" yMax="662">
      <contour>
        <pt x="293" y="282" on="1"/>
        <pt x="280" y="284" on="1"/>
        <pt x="273" y="284" on="0"/>
        <pt x="261" y="282" on="0"/>
        <pt x="255" y="284" on="1"/>
        <pt x="258" y="271" on="0"/>
        <pt x="262" y="261" on="0"/>
        <pt x="265" y="252" on="0"/>
        <pt x="269" y="235" on="0"/>
        <pt x="275" y="226" on="1"/>
        <pt x="279" y="211" on="0"/>
        <pt x="289" y="203" on="0"/>
        <pt x="295" y="190" on="0"/>
        <pt x="298" y="189" on="0"/>
        <pt x="301" y="186" on="0"/>
        <pt x="304" y="181" on="0"/>
        <pt x="313" y="171" on="0"/>
        <pt x="327" y="156" on="0"/>
        <pt x="335" y="147" on="1"/>
        <pt x="346" y="142" on="0"/>
        <pt x="368" y="130" on="0"/>
        <pt x="385" y="124" on="0"/>
        <pt x="392" y="125" on="0"/>
        <pt x="417" y="114" on="0"/>
        <pt x="430" y="110" on="0"/>
        <pt x="443" y="106" on="0"/>
        <pt x="448" y="108" on="1"/>
        <pt x="454" y="108" on="0"/>
        <pt x="461" y="112" on="0"/>
        <pt x="471" y="115" on="0"/>
        <pt x="482" y="111" on="0"/>
        <pt x="522" y="126" on="0"/>
        <pt x="532" y="129" on="0"/>
        <pt x="562" y="146" on="0"/>
        <pt x="565" y="158" on="1"/>
        <pt x="570" y="160" on="0"/>
        <pt x="588" y="177" on="0"/>
        <pt x="592" y="184" on="0"/>
        <pt x="603" y="196" on="0"/>
        <pt x="617" y="208" on="0"/>
        <pt x="624" y="203" on="1"/>
        <pt x="630" y="200" on="1"/>
        <pt x="647" y="166" on="0"/>
        <pt x="615" y="153" on="1"/>
        <pt x="614" y="148" on="0"/>
        <pt x="609" y="143" on="1"/>
        <pt x="601" y="135" on="1"/>
        <pt x="598" y="132" on="0"/>
        <pt x="593" y="126" on="0"/>
        <pt x="583" y="118" on="0"/>
        <pt x="573" y="110" on="0"/>
        <pt x="566" y="103" on="0"/>
        <pt x="561" y="100" on="0"/>
        <pt x="553" y="100" on="0"/>
        <pt x="539" y="95" on="0"/>
        <pt x="525" y="85" on="0"/>
        <pt x="512" y="85" on="1"/>
        <pt x="496" y="78" on="1"/>
        <pt x="485" y="78" on="0"/>
        <pt x="484" y="79" on="1"/>
        <pt x="475" y="73" on="0"/>
        <pt x="472" y="74" on="0"/>
        <pt x="454" y="68" on="0"/>
        <pt x="413" y="71" on="0"/>
        <pt x="403" y="71" on="0"/>
        <pt x="398" y="69" on="1"/>
        <pt x="385" y="76" on="0"/>
        <pt x="376" y="77" on="0"/>
        <pt x="359" y="85" on="0"/>
        <pt x="347" y="84" on="0"/>
        <pt x="339" y="83" on="0"/>
        <pt x="326" y="90" on="0"/>
        <pt x="318" y="89" on="1"/>
        <pt x="310" y="97" on="0"/>
        <pt x="297" y="100" on="1"/>
        <pt x="295" y="106" on="0"/>
        <pt x="284" y="109" on="0"/>
        <pt x="274" y="115" on="0"/>
        <pt x="265" y="114" on="0"/>
        <pt x="258" y="117" on="0"/>
        <pt x="256" y="120" on="1"/>
        <pt x="253" y="124" on="0"/>
        <pt x="232" y="136" on="0"/>
        <pt x="227" y="142" on="1"/>
        <pt x="221" y="152" on="1"/>
        <pt x="219" y="154" on="0"/>
        <pt x="214" y="160" on="0"/>
        <pt x="211" y="163" on="1"/>
        <pt x="205" y="181" on="0"/>
        <pt x="193" y="196" on="0"/>
        <pt x="190" y="205" on="1"/>
        <pt x="176" y="219" on="0"/>
        <pt x="173" y="228" on="0"/>
        <pt x="168" y="237" on="0"/>
        <pt x="165" y="240" on="1"/>
        <pt x="155" y="250" on="0"/>
        <pt x="155" y="267" on="1"/>
        <pt x="158" y="270" on="0"/>
        <pt x="150" y="290" on="0"/>
        <pt x="151" y="296" on="0"/>
        <pt x="151" y="298" on="1"/>
        <pt x="143" y="295" on="0"/>
        <pt x="128" y="297" on="0"/>
        <pt x="115" y="298" on="1"/>
        <pt x="102" y="300" on="1"/>
        <pt x="96" y="299" on="0"/>
        <pt x="77" y="287" on="0"/>
        <pt x="59" y="302" on="0"/>
        <pt x="54" y="305" on="1"/>
        <pt x="53" y="313" on="0"/>
        <pt x="48" y="326" on="0"/>
        <pt x="49" y="335" on="1"/>
        <pt x="55" y="340" on="0"/>
        <pt x="67" y="340" on="1"/>
        <pt x="87" y="338" on="1"/>
        <pt x="90" y="339" on="0"/>
        <pt x="95" y="341" on="0"/>
        <pt x="103" y="343" on="0"/>
        <pt x="113" y="341" on="0"/>
        <pt x="119" y="340" on="1"/>
        <pt x="129" y="343" on="0"/>
        <pt x="136" y="338" on="0"/>
        <pt x="140" y="337" on="1"/>
        <pt x="144" y="366" on="1"/>
        <pt x="145" y="379" on="0"/>
        <pt x="148" y="405" on="0"/>
        <pt x="149" y="419" on="1"/>
        <pt x="142" y="423" on="0"/>
        <pt x="132" y="424" on="0"/>
        <pt x="120" y="426" on="0"/>
        <pt x="104" y="421" on="0"/>
        <pt x="90" y="430" on="0"/>
        <pt x="82" y="433" on="1"/>
        <pt x="77" y="431" on="0"/>
        <pt x="72" y="425" on="0"/>
        <pt x="47" y="424" on="0"/>
        <pt x="27" y="439" on="0"/>
        <pt x="32" y="457" on="0"/>
        <pt x="41" y="461" on="0"/>
        <pt x="43" y="465" on="1"/>
        <pt x="50" y="466" on="0"/>
        <pt x="62" y="464" on="0"/>
        <pt x="75" y="466" on="0"/>
        <pt x="87" y="473" on="0"/>
        <pt x="95" y="474" on="1"/>
        <pt x="112" y="470" on="1"/>
        <pt x="122" y="468" on="0"/>
        <pt x="136" y="468" on="1"/>
        <pt x="160" y="469" on="1"/>
        <pt x="167" y="480" on="0"/>
        <pt x="166" y="483" on="0"/>
        <pt x="169" y="488" on="0"/>
        <pt x="174" y="494" on="0"/>
        <pt x="178" y="507" on="0"/>
        <pt x="181" y="508" on="0"/>
        <pt x="184" y="513" on="0"/>
        <pt x="186" y="519" on="0"/>
        <pt x="195" y="529" on="0"/>
        <pt x="197" y="535" on="0"/>
        <pt x="203" y="544" on="0"/>
        <pt x="208" y="547" on="0"/>
        <pt x="226" y="563" on="0"/>
        <pt x="229" y="572" on="1"/>
        <pt x="231" y="574" on="0"/>
        <pt x="238" y="576" on="0"/>
        <pt x="244" y="584" on="0"/>
        <pt x="253" y="592" on="0"/>
        <pt x="262" y="601" on="0"/>
        <pt x="272" y="607" on="0"/>
        <pt x="286" y="618" on="0"/>
        <pt x="288" y="618" on="0"/>
        <pt x="289" y="620" on="1"/>
        <pt x="299" y="626" on="1"/>
        <pt x="312" y="633" on="1"/>
        <pt x="319" y="636" on="0"/>
        <pt x="324" y="641" on="1"/>
        <pt x="337" y="646" on="0"/>
        <pt x="351" y="650" on="1"/>
        <pt x="361" y="650" on="0"/>
        <pt x="375" y="657" on="0"/>
        <pt x="385" y="656" on="0"/>
        <pt x="412" y="663" on="0"/>
        <pt x="430" y="660" on="0"/>
        <pt x="440" y="660" on="0"/>
        <pt x="448" y="658" on="0"/>
        <pt x="456" y="655" on="0"/>
        <pt x="465" y="653" on="0"/>
        <pt x="476" y="655" on="0"/>
        <pt x="481" y="653" on="1"/>
        <pt x="493" y="647" on="1"/>
        <pt x="498" y="645" on="0"/>
        <pt x="507" y="642" on="0"/>
        <pt x="523" y="632" on="0"/>
        <pt x="537" y="628" on="1"/>
        <pt x="555" y="625" on="1"/>
        <pt x="570" y="624" on="0"/>
        <pt x="572" y="635" on="1"/>
        <pt x="574" y="638" on="0"/>
        <pt x="582" y="642" on="0"/>
        <pt x="584" y="646" on="1"/>
        <pt x="592" y="645" on="0"/>
        <pt x="596" y="651" on="0"/>
        <pt x="604" y="650" on="1"/>
        <pt x="609" y="644" on="0"/>
        <pt x="614" y="628" on="0"/>
        <pt x="618" y="621" on="1"/>
        <pt x="617" y="610" on="1"/>
        <pt x="615" y="600" on="0"/>
        <pt x="616" y="578" on="0"/>
        <pt x="610" y="566" on="1"/>
        <pt x="610" y="555" on="0"/>
        <pt x="607" y="552" on="0"/>
        <pt x="607" y="551" on="1"/>
        <pt x="607" y="514" on="1"/>
        <pt x="603" y="509" on="0"/>
        <pt x="598" y="497" on="0"/>
        <pt x="593" y="492" on="1"/>
        <pt x="582" y="493" on="0"/>
        <pt x="578" y="490" on="0"/>
        <pt x="569" y="489" on="1"/>
        <pt x="565" y="496" on="0"/>
        <pt x="562" y="498" on="1"/>
        <pt x="562" y="503" on="0"/>
        <pt x="557" y="509" on="0"/>
        <pt x="554" y="524" on="0"/>
        <pt x="561" y="546" on="0"/>
        <pt x="559" y="557" on="1"/>
        <pt x="553" y="563" on="0"/>
        <pt x="552" y="566" on="0"/>
        <pt x="549" y="570" on="0"/>
        <pt x="541" y="575" on="0"/>
        <pt x="536" y="581" on="0"/>
        <pt x="528" y="583" on="0"/>
        <pt x="510" y="597" on="0"/>
        <pt x="501" y="597" on="1"/>
        <pt x="493" y="607" on="0"/>
        <pt x="471" y="611" on="0"/>
        <pt x="469" y="613" on="1"/>
        <pt x="457" y="611" on="0"/>
        <pt x="440" y="618" on="0"/>
        <pt x="426" y="618" on="0"/>
        <pt x="421" y="623" on="1"/>
        <pt x="418" y="624" on="0"/>
        <pt x="413" y="621" on="0"/>
        <pt x="409" y="621" on="1"/>
        <pt x="398" y="624" on="1"/>
        <pt x="387" y="623" on="1"/>
        <pt x="383" y="622" on="0"/>
        <pt x="379" y="623" on="0"/>
        <pt x="370" y="620" on="0"/>
        <pt x="362" y="615" on="0"/>
        <pt x="357" y="613" on="1"/>
        <pt x="351" y="604" on="0"/>
        <pt x="328" y="596" on="1"/>
        <pt x="327" y="590" on="0"/>
        <pt x="316" y="586" on="0"/>
        <pt x="310" y="579" on="0"/>
        <pt x="309" y="572" on="0"/>
        <pt x="289" y="537" on="0"/>
        <pt x="268" y="516" on="1"/>
        <pt x="265" y="502" on="0"/>
        <pt x="265" y="485" on="0"/>
        <pt x="259" y="467" on="1"/>
        <pt x="274" y="468" on="1"/>
        <pt x="309" y="465" on="1"/>
        <pt x="335" y="468" on="1"/>
        <pt x="372" y="464" on="1"/>
        <pt x="375" y="464" on="0"/>
        <pt x="387" y="467" on="1"/>
        <pt x="437" y="468" on="1"/>
        <pt x="447" y="468" on="0"/>
        <pt x="464" y="463" on="0"/>
        <pt x="474" y="464" on="1"/>
        <pt x="490" y="454" on="0"/>
        <pt x="482" y="436" on="1"/>
        <pt x="474" y="426" on="0"/>
        <pt x="471" y="422" on="0"/>
        <pt x="456" y="412" on="0"/>
        <pt x="447" y="412" on="1"/>
        <pt x="442" y="410" on="0"/>
        <pt x="420" y="416" on="0"/>
        <pt x="408" y="416" on="0"/>
        <pt x="391" y="415" on="0"/>
        <pt x="383" y="419" on="1"/>
        <pt x="377" y="420" on="0"/>
        <pt x="371" y="416" on="0"/>
        <pt x="365" y="416" on="1"/>
        <pt x="357" y="419" on="0"/>
        <pt x="319" y="419" on="0"/>
        <pt x="313" y="422" on="1"/>
        <pt x="286" y="418" on="0"/>
        <pt x="270" y="422" on="1"/>
        <pt x="260" y="427" on="0"/>
        <pt x="259" y="425" on="0"/>
        <pt x="257" y="425" on="1"/>
        <pt x="253" y="412" on="0"/>
        <pt x="252" y="383" on="0"/>
        <pt x="247" y="371" on="1"/>
        <pt x="249" y="362" on="0"/>
        <pt x="252" y="340" on="1"/>
        <pt x="272" y="325" on="0"/>
        <pt x="290" y="330" on="1"/>
        <pt x="295" y="332" on="0"/>
        <pt x="302" y="333" on="1"/>
        <pt x="315" y="331" on="1"/>
        <pt x="324" y="331" on="0"/>
        <pt x="344" y="334" on="0"/>
        <pt x="366" y="336" on="0"/>
        <pt x="384" y="335" on="0"/>
        <pt x="392" y="340" on="1"/>
        <pt x="414" y="335" on="0"/>
        <pt x="422" y="331" on="1"/>
        <pt x="423" y="325" on="0"/>
        <pt x="432" y="315" on="0"/>
        <pt x="433" y="304" on="0"/>
        <pt x="429" y="298" on="0"/>
        <pt x="427" y="293" on="1"/>
        <pt x="420" y="293" on="0"/>
        <pt x="406" y="287" on="0"/>
        <pt x="399" y="288" on="1"/>
        <pt x="378" y="293" on="1"/>
        <pt x="365" y="293" on="0"/>
        <pt x="353" y="291" on="1"/>
        <pt x="338" y="286" on="0"/>
        <pt x="330" y="286" on="1"/>
        <pt x="315" y="288" on="0"/>
        <pt x="306" y="282" on="1"/>
        <pt x="298" y="284" on="0"/>
        <pt x="295" y="282" on="0"/>
      </contour>
    </TTGlyph>
    <TTGlyph name="F" xMin="3" yMin="-23" xMax="450" yMax="778">
      <contour>
        <pt x="96" y="454" on="1"/>
        <pt x="89" y="496" on="1"/>
        <pt x="89" y="501" on="0"/>
        <pt x="91" y="508" on="0"/>
        <pt x="88" y="518" on="0"/>
        <pt x="84" y="530" on="0"/>
        <pt x="85" y="556" on="0"/>
        <pt x="82" y="563" on="0"/>
        <pt x="82" y="567" on="1"/>
        <pt x="83" y="579" on="1"/>
        <pt x="78" y="620" on="1"/>
        <pt x="80" y="628" on="0"/>
        <pt x="78" y="630" on="0"/>
        <pt x="79" y="642" on="0"/>
        <pt x="81" y="654" on="0"/>
        <pt x="77" y="662" on="0"/>
        <pt x="70" y="664" on="1"/>
        <pt x="55" y="667" on="0"/>
        <pt x="40" y="667" on="1"/>
        <pt x="29" y="667" on="1"/>
        <pt x="23" y="668" on="0"/>
        <pt x="10" y="668" on="0"/>
        <pt x="5" y="670" on="1"/>
        <pt x="3" y="674" on="0"/>
        <pt x="3" y="696" on="0"/>
        <pt x="5" y="701" on="1"/>
        <pt x="21" y="711" on="0"/>
        <pt x="69" y="708" on="0"/>
        <pt x="74" y="708" on="1"/>
        <pt x="153" y="709" on="1"/>
        <pt x="167" y="711" on="1"/>
        <pt x="179" y="708" on="1"/>
        <pt x="195" y="704" on="0"/>
        <pt x="225" y="711" on="0"/>
        <pt x="226" y="709" on="0"/>
        <pt x="228" y="709" on="1"/>
        <pt x="247" y="717" on="1"/>
        <pt x="258" y="715" on="1"/>
        <pt x="292" y="720" on="1"/>
        <pt x="328" y="716" on="1"/>
        <pt x="359" y="713" on="1"/>
        <pt x="363" y="713" on="0"/>
        <pt x="369" y="716" on="0"/>
        <pt x="378" y="718" on="0"/>
        <pt x="390" y="716" on="0"/>
        <pt x="395" y="718" on="1"/>
        <pt x="401" y="730" on="0"/>
        <pt x="407" y="769" on="1"/>
        <pt x="426" y="784" on="0"/>
        <pt x="436" y="772" on="0"/>
        <pt x="441" y="764" on="0"/>
        <pt x="440" y="759" on="0"/>
        <pt x="446" y="745" on="0"/>
        <pt x="444" y="739" on="0"/>
        <pt x="444" y="735" on="1"/>
        <pt x="448" y="700" on="1"/>
        <pt x="449" y="648" on="1"/>
        <pt x="449" y="620" on="1"/>
        <pt x="449" y="607" on="0"/>
        <pt x="450" y="603" on="1"/>
        <pt x="447" y="599" on="0"/>
        <pt x="442" y="592" on="0"/>
        <pt x="437" y="590" on="1"/>
        <pt x="433" y="585" on="0"/>
        <pt x="417" y="577" on="0"/>
        <pt x="412" y="585" on="1"/>
        <pt x="405" y="586" on="0"/>
        <pt x="393" y="649" on="0"/>
        <pt x="385" y="656" on="0"/>
        <pt x="376" y="662" on="0"/>
        <pt x="372" y="667" on="1"/>
        <pt x="361" y="668" on="0"/>
        <pt x="342" y="673" on="0"/>
        <pt x="331" y="667" on="1"/>
        <pt x="322" y="674" on="0"/>
        <pt x="300" y="674" on="0"/>
        <pt x="283" y="673" on="0"/>
        <pt x="270" y="674" on="0"/>
        <pt x="247" y="671" on="0"/>
        <pt x="241" y="667" on="0"/>
        <pt x="220" y="668" on="0"/>
        <pt x="185" y="657" on="0"/>
        <pt x="175" y="646" on="1"/>
        <pt x="176" y="635" on="0"/>
        <pt x="186" y="620" on="0"/>
        <pt x="186" y="594" on="0"/>
        <pt x="188" y="580" on="0"/>
        <pt x="190" y="566" on="0"/>
        <pt x="190" y="553" on="0"/>
        <pt x="193" y="542" on="0"/>
        <pt x="196" y="535" on="0"/>
        <pt x="198" y="519" on="0"/>
        <pt x="198" y="489" on="0"/>
        <pt x="202" y="470" on="0"/>
        <pt x="206" y="462" on="0"/>
        <pt x="204" y="444" on="0"/>
        <pt x="207" y="439" on="0"/>
        <pt x="207" y="437" on="1"/>
        <pt x="206" y="415" on="1"/>
        <pt x="212" y="378" on="1"/>
        <pt x="213" y="347" on="1"/>
        <pt x="213" y="319" on="0"/>
        <pt x="220" y="289" on="0"/>
        <pt x="221" y="280" on="1"/>
        <pt x="231" y="274" on="0"/>
        <pt x="232" y="271" on="0"/>
        <pt x="238" y="269" on="0"/>
        <pt x="246" y="274" on="0"/>
        <pt x="248" y="269" on="1"/>
        <pt x="252" y="271" on="0"/>
        <pt x="260" y="271" on="0"/>
        <pt x="264" y="273" on="1"/>
        <pt x="278" y="268" on="0"/>
        <pt x="310" y="275" on="0"/>
        <pt x="327" y="276" on="1"/>
        <pt x="333" y="281" on="0"/>
        <pt x="334" y="299" on="0"/>
        <pt x="337" y="306" on="1"/>
        <pt x="344" y="329" on="0"/>
        <pt x="354" y="329" on="1"/>
        <pt x="364" y="330" on="0"/>
        <pt x="371" y="310" on="0"/>
        <pt x="378" y="304" on="1"/>
        <pt x="375" y="299" on="0"/>
        <pt x="379" y="289" on="0"/>
        <pt x="378" y="269" on="0"/>
        <pt x="383" y="243" on="0"/>
        <pt x="387" y="218" on="0"/>
        <pt x="377" y="204" on="0"/>
        <pt x="369" y="190" on="0"/>
        <pt x="367" y="189" on="1"/>
        <pt x="353" y="185" on="0"/>
        <pt x="343" y="185" on="0"/>
        <pt x="334" y="194" on="0"/>
        <pt x="337" y="207" on="0"/>
        <pt x="333" y="214" on="0"/>
        <pt x="332" y="226" on="0"/>
        <pt x="330" y="232" on="1"/>
        <pt x="313" y="235" on="0"/>
        <pt x="295" y="226" on="0"/>
        <pt x="290" y="225" on="1"/>
        <pt x="273" y="228" on="1"/>
        <pt x="256" y="228" on="0"/>
        <pt x="222" y="211" on="1"/>
        <pt x="225" y="193" on="0"/>
        <pt x="225" y="182" on="1"/>
        <pt x="225" y="162" on="1"/>
        <pt x="225" y="142" on="0"/>
        <pt x="229" y="128" on="0"/>
        <pt x="226" y="111" on="0"/>
        <pt x="226" y="100" on="0"/>
        <pt x="228" y="92" on="1"/>
        <pt x="227" y="75" on="0"/>
        <pt x="230" y="66" on="0"/>
        <pt x="230" y="59" on="1"/>
        <pt x="230" y="52" on="0"/>
        <pt x="229" y="35" on="0"/>
        <pt x="231" y="27" on="1"/>
        <pt x="236" y="22" on="0"/>
        <pt x="249" y="22" on="1"/>
        <pt x="257" y="27" on="0"/>
        <pt x="262" y="24" on="0"/>
        <pt x="270" y="26" on="0"/>
        <pt x="277" y="32" on="0"/>
        <pt x="292" y="29" on="0"/>
        <pt x="303" y="15" on="0"/>
        <pt x="301" y="5" on="1"/>
        <pt x="298" y="-3" on="0"/>
        <pt x="285" y="-8" on="1"/>
        <pt x="282" y="-10" on="0"/>
        <pt x="276" y="-7" on="0"/>
        <pt x="239" y="-13" on="0"/>
        <pt x="171" y="-15" on="0"/>
        <pt x="139" y="-18" on="0"/>
        <pt x="124" y="-23" on="0"/>
        <pt x="111" y="-23" on="0"/>
        <pt x="102" y="-20" on="0"/>
        <pt x="87" y="-24" on="0"/>
        <pt x="76" y="-10" on="0"/>
        <pt x="83" y="3" on="0"/>
        <pt x="89" y="4" on="0"/>
        <pt x="95" y="8" on="0"/>
        <pt x="104" y="12" on="0"/>
        <pt x="106" y="14" on="1"/>
        <pt x="124" y="14" on="1"/>
        <pt x="131" y="36" on="0"/>
        <pt x="121" y="105" on="0"/>
        <pt x="121" y="115" on="1"/>
        <pt x="122" y="135" on="1"/>
        <pt x="118" y="154" on="1"/>
        <pt x="119" y="173" on="0"/>
        <pt x="117" y="184" on="1"/>
        <pt x="114" y="200" on="0"/>
        <pt x="114" y="258" on="1"/>
        <pt x="104" y="409" on="1"/>
        <pt x="104" y="424" on="0"/>
        <pt x="102" y="434" on="1"/>
        <pt x="96" y="447" on="0"/>
      </contour>
    </TTGlyph>
    <TTGlyph name="G" xMin="38" yMin="100" xMax="516" yMax="787">
      <contour>
        <pt x="462" y="686" on="1"/>
        <pt x="457" y="642" on="1"/>
        <pt x="452" y="640" on="0"/>
        <pt x="447" y="636" on="1"/>
        <pt x="435" y="623" on="0"/>
        <pt x="422" y="633" on="1"/>
        <pt x="417" y="641" on="0"/>
        <pt x="411" y="645" on="0"/>
        <pt x="414" y="653" on="1"/>
        <pt x="414" y="654" on="0"/>
        <pt x="398" y="663" on="0"/>
        <pt x="397" y="673" on="0"/>
        <pt x="395" y="674" on="0"/>
        <pt x="382" y="687" on="0"/>
        <pt x="379" y="686" on="0"/>
        <pt x="378" y="686" on="1"/>
        <pt x="373" y="695" on="0"/>
        <pt x="372" y="698" on="0"/>
        <pt x="359" y="702" on="0"/>
        <pt x="356" y="709" on="0"/>
        <pt x="343" y="711" on="0"/>
        <pt x="336" y="710" on="0"/>
        <pt x="328" y="717" on="1"/>
        <pt x="318" y="719" on="0"/>
        <pt x="312" y="716" on="0"/>
        <pt x="307" y="714" on="1"/>
        <pt x="304" y="715" on="0"/>
        <pt x="295" y="710" on="0"/>
        <pt x="294" y="713" on="1"/>
        <pt x="284" y="708" on="0"/>
        <pt x="274" y="708" on="0"/>
        <pt x="250" y="698" on="0"/>
        <pt x="232" y="697" on="0"/>
        <pt x="217" y="681" on="0"/>
        <pt x="210" y="677" on="0"/>
        <pt x="205" y="673" on="0"/>
        <pt x="203" y="666" on="0"/>
        <pt x="201" y="664" on="1"/>
        <pt x="187" y="645" on="1"/>
        <pt x="185" y="643" on="0"/>
        <pt x="175" y="642" on="0"/>
        <pt x="173" y="639" on="1"/>
        <pt x="171" y="631" on="0"/>
        <pt x="168" y="626" on="0"/>
        <pt x="165" y="619" on="0"/>
        <pt x="164" y="606" on="0"/>
        <pt x="160" y="597" on="0"/>
        <pt x="154" y="591" on="0"/>
        <pt x="151" y="586" on="1"/>
        <pt x="151" y="573" on="0"/>
        <pt x="145" y="555" on="0"/>
        <pt x="149" y="541" on="0"/>
        <pt x="145" y="539" on="1"/>
        <pt x="147" y="535" on="0"/>
        <pt x="143" y="528" on="1"/>
        <pt x="136" y="518" on="0"/>
        <pt x="143" y="504" on="1"/>
        <pt x="138" y="488" on="0"/>
        <pt x="143" y="450" on="0"/>
        <pt x="145" y="430" on="1"/>
        <pt x="141" y="397" on="1"/>
        <pt x="143" y="372" on="0"/>
        <pt x="160" y="305" on="0"/>
        <pt x="162" y="295" on="0"/>
        <pt x="165" y="285" on="0"/>
        <pt x="170" y="273" on="0"/>
        <pt x="173" y="265" on="0"/>
        <pt x="177" y="257" on="1"/>
        <pt x="181" y="243" on="0"/>
        <pt x="187" y="236" on="0"/>
        <pt x="197" y="222" on="0"/>
        <pt x="200" y="217" on="0"/>
        <pt x="207" y="210" on="0"/>
        <pt x="211" y="204" on="0"/>
        <pt x="229" y="190" on="0"/>
        <pt x="235" y="181" on="0"/>
        <pt x="244" y="177" on="0"/>
        <pt x="250" y="176" on="1"/>
        <pt x="266" y="175" on="1"/>
        <pt x="277" y="174" on="0"/>
        <pt x="300" y="176" on="0"/>
        <pt x="308" y="176" on="0"/>
        <pt x="316" y="179" on="0"/>
        <pt x="326" y="185" on="0"/>
        <pt x="337" y="193" on="0"/>
        <pt x="346" y="194" on="0"/>
        <pt x="352" y="197" on="1"/>
        <pt x="358" y="201" on="0"/>
        <pt x="364" y="218" on="0"/>
        <pt x="372" y="222" on="1"/>
        <pt x="374" y="227" on="0"/>
        <pt x="381" y="233" on="0"/>
        <pt x="384" y="240" on="1"/>
        <pt x="389" y="246" on="0"/>
        <pt x="395" y="263" on="0"/>
        <pt x="402" y="278" on="0"/>
        <pt x="405" y="302" on="0"/>
        <pt x="409" y="314" on="0"/>
        <pt x="411" y="324" on="0"/>
        <pt x="416" y="331" on="0"/>
        <pt x="417" y="343" on="0"/>
        <pt x="419" y="354" on="0"/>
        <pt x="418" y="370" on="0"/>
        <pt x="419" y="385" on="0"/>
        <pt x="421" y="395" on="0"/>
        <pt x="417" y="408" on="0"/>
        <pt x="418" y="415" on="0"/>
        <pt x="413" y="415" on="1"/>
        <pt x="420" y="427" on="0"/>
        <pt x="398" y="451" on="0"/>
        <pt x="379" y="458" on="0"/>
        <pt x="368" y="451" on="0"/>
        <pt x="363" y="450" on="1"/>
        <pt x="357" y="452" on="0"/>
        <pt x="353" y="447" on="0"/>
        <pt x="348" y="447" on="1"/>
        <pt x="339" y="453" on="0"/>
        <pt x="327" y="453" on="0"/>
        <pt x="324" y="454" on="1"/>
        <pt x="313" y="462" on="0"/>
        <pt x="310" y="474" on="0"/>
        <pt x="308" y="491" on="0"/>
        <pt x="320" y="499" on="0"/>
        <pt x="338" y="500" on="0"/>
        <pt x="359" y="498" on="0"/>
        <pt x="378" y="505" on="0"/>
        <pt x="394" y="504" on="0"/>
        <pt x="412" y="503" on="0"/>
        <pt x="429" y="502" on="0"/>
        <pt x="438" y="503" on="0"/>
        <pt x="458" y="507" on="0"/>
        <pt x="464" y="508" on="1"/>
        <pt x="476" y="507" on="0"/>
        <pt x="505" y="513" on="0"/>
        <pt x="510" y="508" on="1"/>
        <pt x="515" y="508" on="0"/>
        <pt x="515" y="504" on="1"/>
        <pt x="515" y="497" on="1"/>
        <pt x="517" y="486" on="0"/>
        <pt x="515" y="478" on="0"/>
        <pt x="504" y="465" on="0"/>
        <pt x="491" y="459" on="0"/>
        <pt x="475" y="460" on="0"/>
        <pt x="470" y="453" on="1"/>
        <pt x="474" y="442" on="0"/>
        <pt x="471" y="422" on="0"/>
        <pt x="472" y="411" on="1"/>
        <pt x="475" y="388" on="1"/>
        <pt x="475" y="370" on="0"/>
        <pt x="469" y="352" on="1"/>
        <pt x="472" y="340" on="0"/>
        <pt x="472" y="335" on="1"/>
        <pt x="466" y="317" on="0"/>
        <pt x="456" y="277" on="0"/>
        <pt x="448" y="254" on="0"/>
        <pt x="446" y="249" on="0"/>
        <pt x="443" y="242" on="0"/>
        <pt x="444" y="233" on="0"/>
        <pt x="436" y="216" on="0"/>
        <pt x="428" y="199" on="0"/>
        <pt x="420" y="196" on="1"/>
        <pt x="416" y="181" on="0"/>
        <pt x="397" y="165" on="0"/>
        <pt x="393" y="151" on="1"/>
        <pt x="384" y="146" on="0"/>
        <pt x="367" y="138" on="0"/>
        <pt x="354" y="129" on="0"/>
        <pt x="346" y="122" on="0"/>
        <pt x="336" y="116" on="0"/>
        <pt x="321" y="114" on="0"/>
        <pt x="307" y="112" on="0"/>
        <pt x="295" y="106" on="0"/>
        <pt x="279" y="105" on="0"/>
        <pt x="274" y="100" on="1"/>
        <pt x="265" y="106" on="0"/>
        <pt x="238" y="103" on="0"/>
        <pt x="211" y="116" on="0"/>
        <pt x="201" y="113" on="1"/>
        <pt x="197" y="116" on="0"/>
        <pt x="190" y="120" on="0"/>
        <pt x="183" y="127" on="0"/>
        <pt x="169" y="127" on="0"/>
        <pt x="164" y="130" on="1"/>
        <pt x="157" y="137" on="0"/>
        <pt x="152" y="138" on="0"/>
        <pt x="151" y="139" on="1"/>
        <pt x="146" y="149" on="0"/>
        <pt x="141" y="148" on="0"/>
        <pt x="143" y="153" on="1"/>
        <pt x="134" y="156" on="0"/>
        <pt x="123" y="171" on="0"/>
        <pt x="115" y="175" on="1"/>
        <pt x="108" y="186" on="0"/>
        <pt x="95" y="206" on="0"/>
        <pt x="92" y="220" on="1"/>
        <pt x="87" y="224" on="0"/>
        <pt x="79" y="232" on="0"/>
        <pt x="74" y="236" on="1"/>
        <pt x="74" y="244" on="0"/>
        <pt x="64" y="251" on="0"/>
        <pt x="66" y="261" on="1"/>
        <pt x="50" y="300" on="1"/>
        <pt x="50" y="314" on="0"/>
        <pt x="46" y="346" on="0"/>
        <pt x="48" y="384" on="0"/>
        <pt x="37" y="417" on="0"/>
        <pt x="40" y="443" on="0"/>
        <pt x="40" y="453" on="0"/>
        <pt x="42" y="467" on="0"/>
        <pt x="50" y="494" on="0"/>
        <pt x="49" y="509" on="0"/>
        <pt x="53" y="522" on="0"/>
        <pt x="57" y="533" on="0"/>
        <pt x="59" y="540" on="1"/>
        <pt x="65" y="551" on="0"/>
        <pt x="63" y="556" on="0"/>
        <pt x="68" y="568" on="0"/>
        <pt x="67" y="576" on="0"/>
        <pt x="72" y="586" on="0"/>
        <pt x="81" y="595" on="0"/>
        <pt x="87" y="603" on="0"/>
        <pt x="88" y="611" on="0"/>
        <pt x="94" y="624" on="0"/>
        <pt x="93" y="629" on="1"/>
        <pt x="101" y="637" on="0"/>
        <pt x="101" y="642" on="0"/>
        <pt x="111" y="650" on="0"/>
        <pt x="114" y="663" on="0"/>
        <pt x="133" y="682" on="0"/>
        <pt x="140" y="696" on="1"/>
        <pt x="149" y="701" on="0"/>
        <pt x="158" y="710" on="1"/>
        <pt x="170" y="722" on="0"/>
        <pt x="219" y="745" on="0"/>
        <pt x="240" y="752" on="0"/>
        <pt x="254" y="760" on="0"/>
        <pt x="259" y="758" on="0"/>
        <pt x="270" y="764" on="0"/>
        <pt x="281" y="764" on="0"/>
        <pt x="286" y="765" on="1"/>
        <pt x="320" y="765" on="1"/>
        <pt x="353" y="762" on="0"/>
        <pt x="379" y="755" on="0"/>
        <pt x="384" y="756" on="0"/>
        <pt x="394" y="753" on="0"/>
        <pt x="403" y="739" on="0"/>
        <pt x="414" y="741" on="1"/>
        <pt x="416" y="745" on="0"/>
        <pt x="422" y="781" on="0"/>
        <pt x="427" y="785" on="1"/>
        <pt x="432" y="784" on="0"/>
        <pt x="440" y="790" on="0"/>
        <pt x="445" y="785" on="1"/>
        <pt x="448" y="784" on="0"/>
        <pt x="453" y="770" on="0"/>
        <pt x="462" y="760" on="0"/>
        <pt x="460" y="739" on="1"/>
        <pt x="462" y="729" on="0"/>
        <pt x="460" y="711" on="0"/>
        <pt x="460" y="703" on="1"/>
      </contour>
    </TTGlyph>
    <TTGlyph name="H" xMin="13" yMin="-46" xMax="604" yMax="770">
      <contour>
        <pt x="179" y="503" on="1"/>
        <pt x="178" y="487" on="1"/>
        <pt x="178" y="482" on="0"/>
        <pt x="180" y="475" on="1"/>
        <pt x="183" y="463" on="0"/>
        <pt x="175" y="427" on="0"/>
        <pt x="186" y="385" on="1"/>
        <pt x="185" y="362" on="1"/>
        <pt x="187" y="351" on="1"/>
        <pt x="189" y="343" on="0"/>
        <pt x="185" y="325" on="0"/>
        <pt x="185" y="303" on="0"/>
        <pt x="188" y="288" on="0"/>
        <pt x="186" y="281" on="0"/>
        <pt x="187" y="276" on="0"/>
        <pt x="193" y="275" on="0"/>
        <pt x="200" y="274" on="0"/>
        <pt x="206" y="272" on="0"/>
        <pt x="205" y="270" on="1"/>
        <pt x="212" y="267" on="0"/>
        <pt x="224" y="272" on="0"/>
        <pt x="235" y="271" on="0"/>
        <pt x="244" y="266" on="0"/>
        <pt x="250" y="263" on="1"/>
        <pt x="267" y="259" on="0"/>
        <pt x="295" y="267" on="0"/>
        <pt x="320" y="263" on="0"/>
        <pt x="336" y="262" on="0"/>
        <pt x="354" y="260" on="0"/>
        <pt x="362" y="261" on="0"/>
        <pt x="377" y="259" on="0"/>
        <pt x="378" y="260" on="1"/>
        <pt x="385" y="258" on="0"/>
        <pt x="397" y="252" on="0"/>
        <pt x="404" y="252" on="1"/>
        <pt x="429" y="255" on="1"/>
        <pt x="438" y="270" on="0"/>
        <pt x="445" y="309" on="0"/>
        <pt x="443" y="329" on="0"/>
        <pt x="445" y="344" on="0"/>
        <pt x="447" y="351" on="0"/>
        <pt x="449" y="365" on="0"/>
        <pt x="447" y="384" on="0"/>
        <pt x="449" y="402" on="0"/>
        <pt x="449" y="410" on="1"/>
        <pt x="453" y="425" on="1"/>
        <pt x="453" y="427" on="0"/>
        <pt x="450" y="435" on="0"/>
        <pt x="452" y="437" on="1"/>
        <pt x="454" y="449" on="0"/>
        <pt x="452" y="457" on="0"/>
        <pt x="452" y="462" on="1"/>
        <pt x="457" y="474" on="1"/>
        <pt x="457" y="477" on="0"/>
        <pt x="455" y="482" on="0"/>
        <pt x="458" y="499" on="0"/>
        <pt x="456" y="506" on="0"/>
        <pt x="456" y="510" on="1"/>
        <pt x="459" y="523" on="1"/>
        <pt x="460" y="534" on="0"/>
        <pt x="461" y="558" on="0"/>
        <pt x="463" y="571" on="1"/>
        <pt x="463" y="596" on="1"/>
        <pt x="464" y="630" on="1"/>
        <pt x="468" y="659" on="1"/>
        <pt x="468" y="693" on="1"/>
        <pt x="468" y="698" on="0"/>
        <pt x="470" y="704" on="1"/>
        <pt x="478" y="733" on="0"/>
        <pt x="468" y="733" on="1"/>
        <pt x="464" y="733" on="0"/>
        <pt x="465" y="738" on="1"/>
        <pt x="452" y="739" on="0"/>
        <pt x="439" y="736" on="0"/>
        <pt x="426" y="738" on="1"/>
        <pt x="417" y="754" on="0"/>
        <pt x="423" y="765" on="1"/>
        <pt x="429" y="767" on="0"/>
        <pt x="440" y="766" on="0"/>
        <pt x="445" y="767" on="1"/>
        <pt x="465" y="770" on="1"/>
        <pt x="478" y="767" on="1"/>
        <pt x="490" y="769" on="1"/>
        <pt x="499" y="767" on="0"/>
        <pt x="514" y="770" on="0"/>
        <pt x="533" y="764" on="0"/>
        <pt x="555" y="768" on="0"/>
        <pt x="564" y="762" on="0"/>
        <pt x="575" y="761" on="0"/>
        <pt x="585" y="765" on="0"/>
        <pt x="590" y="763" on="1"/>
        <pt x="600" y="755" on="0"/>
        <pt x="602" y="751" on="0"/>
        <pt x="604" y="749" on="1"/>
        <pt x="601" y="734" on="0"/>
        <pt x="587" y="728" on="1"/>
        <pt x="572" y="720" on="0"/>
        <pt x="566" y="707" on="0"/>
        <pt x="559" y="702" on="1"/>
        <pt x="557" y="690" on="0"/>
        <pt x="559" y="663" on="0"/>
        <pt x="558" y="648" on="0"/>
        <pt x="554" y="640" on="0"/>
        <pt x="559" y="637" on="1"/>
        <pt x="552" y="630" on="0"/>
        <pt x="556" y="603" on="0"/>
        <pt x="556" y="594" on="1"/>
        <pt x="550" y="538" on="1"/>
        <pt x="549" y="533" on="0"/>
        <pt x="552" y="527" on="0"/>
        <pt x="552" y="523" on="1"/>
        <pt x="543" y="482" on="1"/>
        <pt x="544" y="457" on="1"/>
        <pt x="544" y="449" on="0"/>
        <pt x="540" y="434" on="0"/>
        <pt x="538" y="423" on="0"/>
        <pt x="540" y="416" on="0"/>
        <pt x="539" y="405" on="0"/>
        <pt x="534" y="395" on="0"/>
        <pt x="533" y="390" on="1"/>
        <pt x="532" y="346" on="1"/>
        <pt x="532" y="340" on="0"/>
        <pt x="527" y="335" on="1"/>
        <pt x="532" y="332" on="0"/>
        <pt x="527" y="322" on="0"/>
        <pt x="527" y="317" on="1"/>
        <pt x="527" y="312" on="0"/>
        <pt x="530" y="305" on="0"/>
        <pt x="528" y="296" on="0"/>
        <pt x="522" y="276" on="0"/>
        <pt x="521" y="254" on="0"/>
        <pt x="516" y="237" on="0"/>
        <pt x="514" y="222" on="0"/>
        <pt x="515" y="212" on="0"/>
        <pt x="514" y="202" on="0"/>
        <pt x="512" y="191" on="0"/>
        <pt x="509" y="170" on="0"/>
        <pt x="510" y="160" on="0"/>
        <pt x="505" y="136" on="0"/>
        <pt x="506" y="116" on="0"/>
        <pt x="500" y="105" on="1"/>
        <pt x="503" y="78" on="0"/>
        <pt x="495" y="72" on="1"/>
        <pt x="493" y="57" on="0"/>
        <pt x="487" y="25" on="0"/>
        <pt x="485" y="5" on="1"/>
        <pt x="490" y="-4" on="0"/>
        <pt x="508" y="2" on="0"/>
        <pt x="516" y="0" on="1"/>
        <pt x="525" y="-1" on="0"/>
        <pt x="539" y="-15" on="1"/>
        <pt x="538" y="-22" on="0"/>
        <pt x="541" y="-32" on="0"/>
        <pt x="532" y="-42" on="0"/>
        <pt x="523" y="-39" on="0"/>
        <pt x="493" y="-39" on="0"/>
        <pt x="462" y="-33" on="0"/>
        <pt x="443" y="-41" on="0"/>
        <pt x="435" y="-44" on="1"/>
        <pt x="424" y="-40" on="0"/>
        <pt x="393" y="-45" on="0"/>
        <pt x="365" y="-46" on="0"/>
        <pt x="348" y="-36" on="0"/>
        <pt x="353" y="-16" on="1"/>
        <pt x="356" y="-14" on="0"/>
        <pt x="366" y="-14" on="0"/>
        <pt x="371" y="-13" on="1"/>
        <pt x="379" y="-8" on="0"/>
        <pt x="396" y="-2" on="0"/>
        <pt x="404" y="2" on="1"/>
        <pt x="408" y="11" on="0"/>
        <pt x="414" y="57" on="0"/>
        <pt x="419" y="65" on="1"/>
        <pt x="416" y="78" on="0"/>
        <pt x="420" y="81" on="0"/>
        <pt x="421" y="93" on="0"/>
        <pt x="422" y="119" on="0"/>
        <pt x="425" y="138" on="0"/>
        <pt x="428" y="148" on="0"/>
        <pt x="430" y="157" on="0"/>
        <pt x="429" y="166" on="0"/>
        <pt x="431" y="199" on="0"/>
        <pt x="423" y="211" on="1"/>
        <pt x="411" y="215" on="0"/>
        <pt x="365" y="215" on="0"/>
        <pt x="355" y="223" on="1"/>
        <pt x="336" y="217" on="0"/>
        <pt x="304" y="223" on="0"/>
        <pt x="298" y="221" on="0"/>
        <pt x="287" y="222" on="0"/>
        <pt x="280" y="223" on="1"/>
        <pt x="272" y="224" on="0"/>
        <pt x="254" y="217" on="1"/>
        <pt x="233" y="222" on="0"/>
        <pt x="218" y="218" on="1"/>
        <pt x="217" y="215" on="0"/>
        <pt x="200" y="210" on="0"/>
        <pt x="197" y="200" on="0"/>
        <pt x="202" y="196" on="0"/>
        <pt x="203" y="189" on="1"/>
        <pt x="200" y="174" on="1"/>
        <pt x="200" y="165" on="0"/>
        <pt x="204" y="150" on="0"/>
        <pt x="203" y="137" on="1"/>
        <pt x="204" y="120" on="1"/>
        <pt x="202" y="100" on="0"/>
        <pt x="202" y="82" on="0"/>
        <pt x="201" y="74" on="1"/>
        <pt x="215" y="64" on="0"/>
        <pt x="236" y="69" on="1"/>
        <pt x="240" y="70" on="0"/>
        <pt x="244" y="73" on="0"/>
        <pt x="253" y="76" on="0"/>
        <pt x="268" y="76" on="0"/>
        <pt x="275" y="78" on="1"/>
        <pt x="290" y="67" on="0"/>
        <pt x="284" y="43" on="1"/>
        <pt x="278" y="41" on="0"/>
        <pt x="268" y="36" on="0"/>
        <pt x="255" y="34" on="0"/>
        <pt x="244" y="36" on="0"/>
        <pt x="236" y="34" on="1"/>
        <pt x="229" y="29" on="0"/>
        <pt x="225" y="29" on="1"/>
        <pt x="214" y="29" on="0"/>
        <pt x="199" y="18" on="0"/>
        <pt x="195" y="18" on="1"/>
        <pt x="189" y="19" on="0"/>
        <pt x="174" y="8" on="0"/>
        <pt x="168" y="8" on="1"/>
        <pt x="95" y="-7" on="1"/>
        <pt x="85" y="-7" on="0"/>
        <pt x="71" y="4" on="0"/>
        <pt x="77" y="27" on="0"/>
        <pt x="88" y="27" on="0"/>
        <pt x="100" y="34" on="0"/>
        <pt x="119" y="42" on="0"/>
        <pt x="126" y="50" on="1"/>
        <pt x="127" y="55" on="0"/>
        <pt x="122" y="75" on="0"/>
        <pt x="122" y="109" on="1"/>
        <pt x="124" y="114" on="0"/>
        <pt x="118" y="117" on="0"/>
        <pt x="121" y="130" on="0"/>
        <pt x="114" y="150" on="0"/>
        <pt x="113" y="166" on="0"/>
        <pt x="115" y="174" on="0"/>
        <pt x="113" y="183" on="0"/>
        <pt x="108" y="193" on="0"/>
        <pt x="106" y="209" on="0"/>
        <pt x="109" y="230" on="0"/>
        <pt x="103" y="239" on="1"/>
        <pt x="105" y="246" on="0"/>
        <pt x="105" y="260" on="0"/>
        <pt x="104" y="266" on="1"/>
        <pt x="97" y="340" on="1"/>
        <pt x="99" y="355" on="1"/>
        <pt x="99" y="364" on="0"/>
        <pt x="97" y="374" on="1"/>
        <pt x="96" y="384" on="0"/>
        <pt x="95" y="403" on="0"/>
        <pt x="93" y="421" on="0"/>
        <pt x="92" y="434" on="0"/>
        <pt x="89" y="445" on="0"/>
        <pt x="90" y="452" on="0"/>
        <pt x="91" y="466" on="0"/>
        <pt x="84" y="486" on="0"/>
        <pt x="80" y="506" on="0"/>
        <pt x="81" y="532" on="0"/>
        <pt x="74" y="540" on="1"/>
        <pt x="77" y="549" on="0"/>
        <pt x="64" y="602" on="0"/>
        <pt x="68" y="625" on="1"/>
        <pt x="66" y="631" on="0"/>
        <pt x="69" y="634" on="0"/>
        <pt x="69" y="636" on="1"/>
        <pt x="64" y="650" on="1"/>
        <pt x="64" y="663" on="0"/>
        <pt x="61" y="666" on="1"/>
        <pt x="59" y="674" on="0"/>
        <pt x="58" y="692" on="0"/>
        <pt x="55" y="694" on="1"/>
        <pt x="44" y="698" on="0"/>
        <pt x="45" y="691" on="0"/>
        <pt x="41" y="693" on="1"/>
        <pt x="33" y="695" on="0"/>
        <pt x="23" y="690" on="0"/>
        <pt x="13" y="692" on="1"/>
        <pt x="9" y="712" on="0"/>
        <pt x="24" y="718" on="0"/>
        <pt x="33" y="718" on="1"/>
        <pt x="52" y="718" on="1"/>
        <pt x="61" y="718" on="0"/>
        <pt x="66" y="723" on="1"/>
        <pt x="71" y="723" on="0"/>
        <pt x="77" y="719" on="1"/>
        <pt x="81" y="721" on="0"/>
        <pt x="93" y="724" on="0"/>
        <pt x="112" y="731" on="0"/>
        <pt x="126" y="733" on="0"/>
        <pt x="139" y="738" on="0"/>
        <pt x="147" y="743" on="0"/>
        <pt x="159" y="740" on="1"/>
        <pt x="166" y="744" on="0"/>
        <pt x="168" y="746" on="0"/>
        <pt x="176" y="747" on="1"/>
        <pt x="214" y="751" on="0"/>
        <pt x="226" y="736" on="1"/>
        <pt x="225" y="732" on="0"/>
        <pt x="225" y="724" on="0"/>
        <pt x="225" y="720" on="1"/>
        <pt x="216" y="713" on="0"/>
        <pt x="211" y="713" on="0"/>
        <pt x="197" y="706" on="0"/>
        <pt x="191" y="708" on="1"/>
        <pt x="186" y="707" on="0"/>
        <pt x="182" y="699" on="0"/>
        <pt x="180" y="695" on="1"/>
        <pt x="176" y="699" on="0"/>
        <pt x="164" y="696" on="0"/>
        <pt x="162" y="692" on="1"/>
        <pt x="161" y="686" on="0"/>
        <pt x="157" y="675" on="0"/>
        <pt x="162" y="656" on="0"/>
        <pt x="162" y="648" on="0"/>
        <pt x="163" y="644" on="1"/>
        <pt x="165" y="631" on="1"/>
        <pt x="166" y="626" on="0"/>
        <pt x="164" y="616" on="0"/>
        <pt x="164" y="609" on="0"/>
        <pt x="167" y="600" on="1"/>
        <pt x="170" y="589" on="1"/>
        <pt x="172" y="576" on="0"/>
        <pt x="175" y="566" on="0"/>
        <pt x="175" y="552" on="0"/>
        <pt x="180" y="546" on="1"/>
        <pt x="176" y="541" on="0"/>
        <pt x="180" y="528" on="0"/>
        <pt x="180" y="523" on="1"/>
      </contour>
    </TTGlyph>
    <TTGlyph name="I" xMin="4" yMin="4" xMax="293" yMax="719">
      <contour>
        <pt x="208" y="271" on="0"/>
        <pt x="216" y="227" on="0"/>
        <pt x="216" y="190" on="0"/>
        <pt x="223" y="169" on="1"/>
        <pt x="222" y="154" on="1"/>
        <pt x="222" y="137" on="0"/>
        <pt x="228" y="123" on="0"/>
        <pt x="230" y="111" on="0"/>
        <pt x="227" y="93" on="0"/>
        <pt x="236" y="88" on="1"/>
        <pt x="252" y="83" on="1"/>
        <pt x="266" y="88" on="0"/>
        <pt x="290" y="78" on="0"/>
        <pt x="293" y="71" on="1"/>
        <pt x="295" y="61" on="0"/>
        <pt x="284" y="47" on="0"/>
        <pt x="279" y="39" on="1"/>
        <pt x="265" y="40" on="0"/>
        <pt x="246" y="39" on="1"/>
        <pt x="239" y="41" on="0"/>
        <pt x="240" y="33" on="0"/>
        <pt x="230" y="35" on="0"/>
        <pt x="222" y="33" on="0"/>
        <pt x="213" y="30" on="0"/>
        <pt x="204" y="30" on="0"/>
        <pt x="200" y="33" on="1"/>
        <pt x="183" y="26" on="0"/>
        <pt x="174" y="17" on="1"/>
        <pt x="168" y="20" on="1"/>
        <pt x="169" y="19" on="0"/>
        <pt x="150" y="19" on="0"/>
        <pt x="148" y="18" on="1"/>
        <pt x="138" y="12" on="0"/>
        <pt x="129" y="13" on="0"/>
        <pt x="119" y="5" on="0"/>
        <pt x="109" y="4" on="0"/>
        <pt x="98" y="9" on="0"/>
        <pt x="91" y="9" on="1"/>
        <pt x="86" y="14" on="0"/>
        <pt x="84" y="35" on="0"/>
        <pt x="90" y="46" on="0"/>
        <pt x="103" y="46" on="0"/>
        <pt x="117" y="54" on="0"/>
        <pt x="118" y="54" on="1"/>
        <pt x="125" y="54" on="0"/>
        <pt x="141" y="78" on="1"/>
        <pt x="143" y="87" on="0"/>
        <pt x="140" y="98" on="0"/>
        <pt x="136" y="115" on="0"/>
        <pt x="136" y="129" on="0"/>
        <pt x="134" y="139" on="0"/>
        <pt x="131" y="146" on="0"/>
        <pt x="128" y="165" on="0"/>
        <pt x="130" y="191" on="0"/>
        <pt x="127" y="210" on="0"/>
        <pt x="124" y="221" on="0"/>
        <pt x="123" y="226" on="1"/>
        <pt x="123" y="231" on="0"/>
        <pt x="125" y="240" on="0"/>
        <pt x="120" y="245" on="1"/>
        <pt x="122" y="260" on="0"/>
        <pt x="118" y="274" on="0"/>
        <pt x="120" y="282" on="0"/>
        <pt x="116" y="296" on="0"/>
        <pt x="118" y="302" on="0"/>
        <pt x="116" y="310" on="0"/>
        <pt x="115" y="320" on="0"/>
        <pt x="114" y="333" on="0"/>
        <pt x="111" y="341" on="1"/>
        <pt x="110" y="351" on="0"/>
        <pt x="107" y="354" on="0"/>
        <pt x="106" y="359" on="0"/>
        <pt x="107" y="366" on="0"/>
        <pt x="96" y="412" on="0"/>
        <pt x="100" y="425" on="0"/>
        <pt x="98" y="434" on="0"/>
        <pt x="93" y="447" on="0"/>
        <pt x="90" y="458" on="0"/>
        <pt x="91" y="465" on="0"/>
        <pt x="90" y="473" on="0"/>
        <pt x="88" y="476" on="1"/>
        <pt x="83" y="489" on="0"/>
        <pt x="83" y="514" on="1"/>
        <pt x="80" y="537" on="1"/>
        <pt x="79" y="545" on="0"/>
        <pt x="85" y="565" on="0"/>
        <pt x="79" y="583" on="1"/>
        <pt x="77" y="604" on="1"/>
        <pt x="74" y="617" on="0"/>
        <pt x="74" y="635" on="0"/>
        <pt x="69" y="635" on="0"/>
        <pt x="65" y="640" on="1"/>
        <pt x="61" y="639" on="0"/>
        <pt x="34" y="639" on="1"/>
        <pt x="13" y="641" on="1"/>
        <pt x="12" y="646" on="0"/>
        <pt x="6" y="648" on="0"/>
        <pt x="4" y="652" on="1"/>
        <pt x="6" y="665" on="0"/>
        <pt x="11" y="672" on="1"/>
        <pt x="21" y="677" on="0"/>
        <pt x="23" y="674" on="0"/>
        <pt x="31" y="676" on="0"/>
        <pt x="44" y="681" on="0"/>
        <pt x="62" y="684" on="0"/>
        <pt x="87" y="684" on="0"/>
        <pt x="93" y="692" on="1"/>
        <pt x="99" y="689" on="0"/>
        <pt x="112" y="696" on="0"/>
        <pt x="127" y="699" on="0"/>
        <pt x="142" y="702" on="0"/>
        <pt x="145" y="707" on="1"/>
        <pt x="163" y="700" on="0"/>
        <pt x="171" y="703" on="0"/>
        <pt x="178" y="706" on="0"/>
        <pt x="185" y="705" on="1"/>
        <pt x="198" y="711" on="0"/>
        <pt x="199" y="710" on="1"/>
        <pt x="199" y="706" on="1"/>
        <pt x="228" y="719" on="1"/>
        <pt x="234" y="715" on="0"/>
        <pt x="244" y="713" on="0"/>
        <pt x="244" y="705" on="1"/>
        <pt x="248" y="692" on="0"/>
        <pt x="251" y="689" on="0"/>
        <pt x="250" y="684" on="1"/>
        <pt x="233" y="676" on="0"/>
        <pt x="217" y="667" on="0"/>
        <pt x="206" y="665" on="1"/>
        <pt x="202" y="659" on="0"/>
        <pt x="191" y="654" on="0"/>
        <pt x="182" y="644" on="0"/>
        <pt x="182" y="632" on="0"/>
        <pt x="177" y="627" on="1"/>
        <pt x="175" y="619" on="0"/>
        <pt x="179" y="598" on="0"/>
        <pt x="179" y="587" on="1"/>
        <pt x="178" y="567" on="1"/>
        <pt x="179" y="558" on="0"/>
        <pt x="183" y="541" on="0"/>
        <pt x="185" y="522" on="0"/>
        <pt x="184" y="504" on="0"/>
        <pt x="190" y="485" on="0"/>
        <pt x="188" y="483" on="0"/>
        <pt x="188" y="481" on="1"/>
        <pt x="193" y="460" on="1"/>
        <pt x="193" y="449" on="1"/>
        <pt x="193" y="442" on="0"/>
        <pt x="194" y="436" on="1"/>
        <pt x="195" y="423" on="1"/>
        <pt x="195" y="406" on="0"/>
        <pt x="202" y="391" on="0"/>
        <pt x="204" y="372" on="0"/>
        <pt x="201" y="353" on="0"/>
        <pt x="201" y="344" on="1"/>
        <pt x="206" y="327" on="1"/>
        <pt x="207" y="306" on="1"/>
        <pt x="207" y="302" on="0"/>
        <pt x="206" y="291" on="0"/>
        <pt x="211" y="285" on="1"/>
      </contour>
    </TTGlyph>
    <TTGlyph name="Iacute" xMin="4" yMin="4" xMax="293" yMax="956">
      <component glyphName="I" x="0" y="0" flags="0x1204"/>
      <component glyphName="acute" x="-124" y="123" flags="0x1004"/>
    </TTGlyph>
    <TTGlyph name="Icircumflex" xMin="5" yMin="4" xMax="294" yMax="955">
      <component glyphName="I" x="1" y="0" flags="0x1004"/>
      <component glyphName="circumflex" x="-164" y="82" flags="0x1004"/>
    </TTGlyph>
    <TTGlyph name="Idieresis" xMin="4" yMin="4" xMax="293" yMax="860">
      <component glyphName="I" x="0" y="0" flags="0x1204"/>
      <component glyphName="dieresis" x="-175" y="61" flags="0x1004"/>
    </TTGlyph>
    <TTGlyph name="Igrave" xMin="4" yMin="4" xMax="293" yMax="921">
      <component glyphName="I" x="0" y="0" flags="0x1204"/>
      <component glyphName="grave" x="-206" y="92" flags="0x1004"/>
    </TTGlyph>
    <TTGlyph name="J" xMin="5" yMin="-115" xMax="371" yMax="750">
      <contour>
        <pt x="195" y="530" on="1"/>
        <pt x="195" y="534" on="0"/>
        <pt x="196" y="540" on="0"/>
        <pt x="193" y="557" on="0"/>
        <pt x="187" y="585" on="0"/>
        <pt x="184" y="603" on="0"/>
        <pt x="181" y="612" on="0"/>
        <pt x="178" y="626" on="0"/>
        <pt x="180" y="644" on="0"/>
        <pt x="174" y="652" on="1"/>
        <pt x="166" y="656" on="0"/>
        <pt x="157" y="649" on="0"/>
        <pt x="151" y="645" on="1"/>
        <pt x="134" y="647" on="0"/>
        <pt x="101" y="639" on="0"/>
        <pt x="84" y="638" on="1"/>
        <pt x="83" y="641" on="0"/>
        <pt x="77" y="643" on="0"/>
        <pt x="74" y="646" on="1"/>
        <pt x="70" y="654" on="0"/>
        <pt x="68" y="656" on="0"/>
        <pt x="65" y="665" on="0"/>
        <pt x="69" y="675" on="0"/>
        <pt x="70" y="681" on="1"/>
        <pt x="78" y="685" on="0"/>
        <pt x="93" y="686" on="0"/>
        <pt x="116" y="697" on="0"/>
        <pt x="124" y="696" on="0"/>
        <pt x="133" y="698" on="0"/>
        <pt x="140" y="701" on="0"/>
        <pt x="149" y="705" on="0"/>
        <pt x="153" y="704" on="0"/>
        <pt x="166" y="709" on="0"/>
        <pt x="185" y="717" on="0"/>
        <pt x="206" y="722" on="0"/>
        <pt x="210" y="723" on="1"/>
        <pt x="224" y="731" on="0"/>
        <pt x="230" y="730" on="1"/>
        <pt x="245" y="729" on="0"/>
        <pt x="254" y="738" on="1"/>
        <pt x="270" y="735" on="0"/>
        <pt x="332" y="755" on="0"/>
        <pt x="347" y="750" on="1"/>
        <pt x="349" y="744" on="0"/>
        <pt x="354" y="736" on="0"/>
        <pt x="353" y="725" on="0"/>
        <pt x="346" y="720" on="0"/>
        <pt x="347" y="715" on="1"/>
        <pt x="341" y="714" on="0"/>
        <pt x="327" y="704" on="0"/>
        <pt x="312" y="698" on="0"/>
        <pt x="294" y="696" on="0"/>
        <pt x="286" y="692" on="1"/>
        <pt x="276" y="684" on="0"/>
        <pt x="266" y="678" on="0"/>
        <pt x="263" y="673" on="1"/>
        <pt x="263" y="669" on="0"/>
        <pt x="269" y="665" on="0"/>
        <pt x="274" y="648" on="0"/>
        <pt x="277" y="647" on="0"/>
        <pt x="281" y="636" on="0"/>
        <pt x="287" y="563" on="0"/>
        <pt x="301" y="522" on="1"/>
        <pt x="299" y="515" on="0"/>
        <pt x="303" y="505" on="0"/>
        <pt x="308" y="484" on="0"/>
        <pt x="313" y="456" on="0"/>
        <pt x="318" y="437" on="0"/>
        <pt x="316" y="426" on="0"/>
        <pt x="324" y="411" on="1"/>
        <pt x="325" y="407" on="0"/>
        <pt x="324" y="404" on="1"/>
        <pt x="321" y="395" on="0"/>
        <pt x="330" y="386" on="1"/>
        <pt x="332" y="375" on="0"/>
        <pt x="332" y="351" on="0"/>
        <pt x="337" y="336" on="0"/>
        <pt x="341" y="329" on="0"/>
        <pt x="345" y="323" on="0"/>
        <pt x="345" y="320" on="1"/>
        <pt x="349" y="308" on="1"/>
        <pt x="349" y="304" on="0"/>
        <pt x="355" y="285" on="0"/>
        <pt x="352" y="280" on="0"/>
        <pt x="355" y="264" on="0"/>
        <pt x="364" y="243" on="0"/>
        <pt x="368" y="224" on="0"/>
        <pt x="367" y="210" on="0"/>
        <pt x="367" y="203" on="1"/>
        <pt x="371" y="179" on="1"/>
        <pt x="372" y="176" on="0"/>
        <pt x="370" y="169" on="0"/>
        <pt x="370" y="165" on="1"/>
        <pt x="371" y="151" on="1"/>
        <pt x="370" y="144" on="0"/>
        <pt x="365" y="133" on="0"/>
        <pt x="363" y="123" on="0"/>
        <pt x="365" y="115" on="0"/>
        <pt x="365" y="111" on="1"/>
        <pt x="361" y="105" on="0"/>
        <pt x="365" y="94" on="0"/>
        <pt x="364" y="74" on="0"/>
        <pt x="365" y="72" on="1"/>
        <pt x="363" y="67" on="0"/>
        <pt x="358" y="56" on="0"/>
        <pt x="351" y="54" on="1"/>
        <pt x="353" y="49" on="0"/>
        <pt x="351" y="46" on="1"/>
        <pt x="335" y="22" on="0"/>
        <pt x="329" y="-3" on="1"/>
        <pt x="325" y="-5" on="0"/>
        <pt x="320" y="-10" on="0"/>
        <pt x="316" y="-12" on="1"/>
        <pt x="313" y="-18" on="0"/>
        <pt x="310" y="-29" on="0"/>
        <pt x="304" y="-36" on="0"/>
        <pt x="299" y="-40" on="0"/>
        <pt x="294" y="-49" on="0"/>
        <pt x="290" y="-47" on="0"/>
        <pt x="279" y="-57" on="0"/>
        <pt x="274" y="-62" on="0"/>
        <pt x="267" y="-62" on="1"/>
        <pt x="255" y="-74" on="0"/>
        <pt x="249" y="-83" on="1"/>
        <pt x="235" y="-85" on="0"/>
        <pt x="232" y="-93" on="1"/>
        <pt x="219" y="-91" on="0"/>
        <pt x="177" y="-103" on="0"/>
        <pt x="167" y="-113" on="0"/>
        <pt x="151" y="-116" on="0"/>
        <pt x="136" y="-105" on="0"/>
        <pt x="126" y="-102" on="0"/>
        <pt x="119" y="-103" on="0"/>
        <pt x="114" y="-102" on="1"/>
        <pt x="96" y="-98" on="1"/>
        <pt x="52" y="-90" on="0"/>
        <pt x="48" y="-65" on="1"/>
        <pt x="45" y="-59" on="0"/>
        <pt x="12" y="-43" on="0"/>
        <pt x="4" y="-20" on="0"/>
        <pt x="6" y="5" on="0"/>
        <pt x="8" y="26" on="0"/>
        <pt x="6" y="41" on="0"/>
        <pt x="8" y="56" on="0"/>
        <pt x="22" y="72" on="0"/>
        <pt x="23" y="77" on="1"/>
        <pt x="33" y="88" on="0"/>
        <pt x="77" y="114" on="0"/>
        <pt x="98" y="114" on="1"/>
        <pt x="113" y="108" on="0"/>
        <pt x="132" y="98" on="0"/>
        <pt x="136" y="75" on="0"/>
        <pt x="130" y="67" on="0"/>
        <pt x="128" y="57" on="1"/>
        <pt x="113" y="50" on="0"/>
        <pt x="93" y="50" on="1"/>
        <pt x="87" y="46" on="0"/>
        <pt x="87" y="31" on="0"/>
        <pt x="83" y="16" on="0"/>
        <pt x="79" y="3" on="0"/>
        <pt x="78" y="-7" on="1"/>
        <pt x="77" y="-40" on="0"/>
        <pt x="98" y="-46" on="1"/>
        <pt x="105" y="-47" on="0"/>
        <pt x="112" y="-50" on="1"/>
        <pt x="132" y="-62" on="0"/>
        <pt x="158" y="-57" on="0"/>
        <pt x="167" y="-58" on="0"/>
        <pt x="174" y="-57" on="0"/>
        <pt x="192" y="-51" on="0"/>
        <pt x="202" y="-48" on="1"/>
        <pt x="243" y="-32" on="0"/>
        <pt x="250" y="-16" on="1"/>
        <pt x="252" y="-10" on="0"/>
        <pt x="256" y="-6" on="1"/>
        <pt x="257" y="0" on="0"/>
        <pt x="256" y="15" on="0"/>
        <pt x="262" y="17" on="1"/>
        <pt x="259" y="27" on="0"/>
        <pt x="265" y="42" on="1"/>
        <pt x="263" y="54" on="0"/>
        <pt x="263" y="77" on="0"/>
        <pt x="262" y="88" on="1"/>
        <pt x="263" y="104" on="1"/>
        <pt x="266" y="118" on="1"/>
        <pt x="267" y="132" on="1"/>
        <pt x="259" y="147" on="1"/>
        <pt x="262" y="156" on="0"/>
        <pt x="259" y="165" on="0"/>
        <pt x="261" y="169" on="0"/>
        <pt x="260" y="178" on="0"/>
        <pt x="256" y="189" on="0"/>
        <pt x="254" y="202" on="0"/>
        <pt x="254" y="215" on="0"/>
        <pt x="253" y="221" on="1"/>
        <pt x="252" y="227" on="0"/>
        <pt x="250" y="240" on="0"/>
        <pt x="248" y="248" on="0"/>
        <pt x="243" y="255" on="0"/>
        <pt x="241" y="261" on="0"/>
        <pt x="239" y="265" on="0"/>
        <pt x="238" y="269" on="1"/>
        <pt x="239" y="288" on="1"/>
        <pt x="239" y="292" on="0"/>
        <pt x="236" y="298" on="0"/>
        <pt x="233" y="312" on="0"/>
        <pt x="232" y="331" on="0"/>
        <pt x="226" y="361" on="0"/>
        <pt x="222" y="378" on="1"/>
        <pt x="214" y="405" on="0"/>
        <pt x="215" y="423" on="0"/>
        <pt x="210" y="437" on="0"/>
        <pt x="209" y="446" on="0"/>
        <pt x="209" y="467" on="0"/>
      </contour>
    </TTGlyph>
    <TTGlyph name="K" xMin="-5" yMin="-57" xMax="703" yMax="744">
      <contour>
        <pt x="569" y="719" on="1"/>
        <pt x="582" y="714" on="1"/>
        <pt x="595" y="714" on="0"/>
        <pt x="620" y="721" on="0"/>
        <pt x="630" y="719" on="1"/>
        <pt x="640" y="710" on="0"/>
        <pt x="630" y="683" on="1"/>
        <pt x="625" y="681" on="0"/>
        <pt x="618" y="680" on="0"/>
        <pt x="609" y="678" on="1"/>
        <pt x="605" y="680" on="0"/>
        <pt x="596" y="674" on="0"/>
        <pt x="577" y="667" on="0"/>
        <pt x="566" y="667" on="0"/>
        <pt x="560" y="664" on="1"/>
        <pt x="553" y="659" on="0"/>
        <pt x="541" y="633" on="0"/>
        <pt x="539" y="633" on="1"/>
        <pt x="530" y="618" on="0"/>
        <pt x="517" y="609" on="0"/>
        <pt x="512" y="604" on="1"/>
        <pt x="511" y="591" on="0"/>
        <pt x="490" y="577" on="0"/>
        <pt x="487" y="566" on="1"/>
        <pt x="476" y="562" on="0"/>
        <pt x="465" y="547" on="0"/>
        <pt x="452" y="537" on="0"/>
        <pt x="448" y="529" on="1"/>
        <pt x="443" y="527" on="0"/>
        <pt x="436" y="519" on="0"/>
        <pt x="431" y="517" on="1"/>
        <pt x="424" y="504" on="0"/>
        <pt x="416" y="502" on="1"/>
        <pt x="409" y="486" on="0"/>
        <pt x="377" y="456" on="0"/>
        <pt x="369" y="442" on="1"/>
        <pt x="361" y="439" on="0"/>
        <pt x="347" y="416" on="0"/>
        <pt x="343" y="410" on="1"/>
        <pt x="347" y="400" on="1"/>
        <pt x="353" y="393" on="0"/>
        <pt x="365" y="396" on="0"/>
        <pt x="372" y="389" on="1"/>
        <pt x="385" y="376" on="1"/>
        <pt x="396" y="368" on="0"/>
        <pt x="401" y="360" on="0"/>
        <pt x="411" y="348" on="0"/>
        <pt x="418" y="338" on="0"/>
        <pt x="425" y="327" on="0"/>
        <pt x="442" y="313" on="0"/>
        <pt x="450" y="301" on="0"/>
        <pt x="455" y="286" on="0"/>
        <pt x="461" y="270" on="0"/>
        <pt x="467" y="258" on="0"/>
        <pt x="466" y="257" on="0"/>
        <pt x="466" y="250" on="0"/>
        <pt x="474" y="244" on="0"/>
        <pt x="479" y="218" on="0"/>
        <pt x="484" y="212" on="1"/>
        <pt x="492" y="202" on="0"/>
        <pt x="494" y="183" on="0"/>
        <pt x="498" y="176" on="1"/>
        <pt x="500" y="166" on="0"/>
        <pt x="501" y="144" on="0"/>
        <pt x="511" y="137" on="1"/>
        <pt x="518" y="113" on="0"/>
        <pt x="529" y="97" on="0"/>
        <pt x="529" y="90" on="0"/>
        <pt x="541" y="77" on="0"/>
        <pt x="544" y="73" on="1"/>
        <pt x="548" y="65" on="0"/>
        <pt x="557" y="60" on="0"/>
        <pt x="564" y="52" on="0"/>
        <pt x="566" y="50" on="1"/>
        <pt x="573" y="47" on="0"/>
        <pt x="586" y="45" on="0"/>
        <pt x="591" y="40" on="1"/>
        <pt x="600" y="43" on="0"/>
        <pt x="608" y="41" on="1"/>
        <pt x="625" y="36" on="0"/>
        <pt x="637" y="52" on="1"/>
        <pt x="643" y="57" on="0"/>
        <pt x="652" y="76" on="0"/>
        <pt x="648" y="78" on="1"/>
        <pt x="656" y="81" on="0"/>
        <pt x="652" y="96" on="0"/>
        <pt x="654" y="102" on="1"/>
        <pt x="650" y="109" on="0"/>
        <pt x="643" y="112" on="1"/>
        <pt x="638" y="120" on="0"/>
        <pt x="631" y="122" on="1"/>
        <pt x="623" y="121" on="0"/>
        <pt x="620" y="116" on="1"/>
        <pt x="612" y="105" on="0"/>
        <pt x="596" y="102" on="1"/>
        <pt x="575" y="111" on="0"/>
        <pt x="572" y="118" on="1"/>
        <pt x="570" y="125" on="0"/>
        <pt x="578" y="143" on="0"/>
        <pt x="580" y="151" on="1"/>
        <pt x="587" y="153" on="0"/>
        <pt x="594" y="164" on="0"/>
        <pt x="598" y="168" on="1"/>
        <pt x="607" y="168" on="0"/>
        <pt x="616" y="177" on="0"/>
        <pt x="624" y="179" on="1"/>
        <pt x="626" y="177" on="0"/>
        <pt x="633" y="180" on="0"/>
        <pt x="637" y="175" on="0"/>
        <pt x="655" y="179" on="0"/>
        <pt x="667" y="169" on="0"/>
        <pt x="672" y="164" on="1"/>
        <pt x="677" y="162" on="0"/>
        <pt x="681" y="154" on="0"/>
        <pt x="686" y="152" on="1"/>
        <pt x="687" y="149" on="0"/>
        <pt x="688" y="137" on="0"/>
        <pt x="698" y="124" on="0"/>
        <pt x="696" y="119" on="0"/>
        <pt x="704" y="110" on="0"/>
        <pt x="702" y="100" on="0"/>
        <pt x="703" y="96" on="1"/>
        <pt x="709" y="76" on="0"/>
        <pt x="688" y="57" on="0"/>
        <pt x="690" y="50" on="1"/>
        <pt x="682" y="44" on="0"/>
        <pt x="678" y="37" on="1"/>
        <pt x="672" y="24" on="1"/>
        <pt x="669" y="18" on="0"/>
        <pt x="662" y="16" on="0"/>
        <pt x="637" y="-2" on="0"/>
        <pt x="580" y="-2" on="1"/>
        <pt x="557" y="-2" on="0"/>
        <pt x="546" y="16" on="1"/>
        <pt x="536" y="14" on="0"/>
        <pt x="525" y="19" on="0"/>
        <pt x="515" y="17" on="1"/>
        <pt x="513" y="23" on="0"/>
        <pt x="502" y="26" on="0"/>
        <pt x="497" y="29" on="1"/>
        <pt x="489" y="38" on="0"/>
        <pt x="482" y="38" on="0"/>
        <pt x="480" y="39" on="1"/>
        <pt x="472" y="49" on="0"/>
        <pt x="468" y="59" on="1"/>
        <pt x="458" y="69" on="0"/>
        <pt x="446" y="75" on="1"/>
        <pt x="441" y="82" on="0"/>
        <pt x="431" y="95" on="0"/>
        <pt x="423" y="97" on="1"/>
        <pt x="419" y="107" on="0"/>
        <pt x="413" y="121" on="1"/>
        <pt x="407" y="129" on="0"/>
        <pt x="408" y="136" on="0"/>
        <pt x="403" y="144" on="0"/>
        <pt x="394" y="152" on="0"/>
        <pt x="389" y="164" on="0"/>
        <pt x="388" y="171" on="0"/>
        <pt x="382" y="183" on="0"/>
        <pt x="378" y="190" on="0"/>
        <pt x="379" y="194" on="1"/>
        <pt x="372" y="199" on="0"/>
        <pt x="369" y="206" on="0"/>
        <pt x="360" y="226" on="0"/>
        <pt x="360" y="232" on="0"/>
        <pt x="355" y="237" on="0"/>
        <pt x="352" y="242" on="0"/>
        <pt x="352" y="248" on="0"/>
        <pt x="348" y="255" on="0"/>
        <pt x="341" y="262" on="0"/>
        <pt x="342" y="267" on="1"/>
        <pt x="340" y="271" on="0"/>
        <pt x="334" y="274" on="0"/>
        <pt x="332" y="276" on="1"/>
        <pt x="330" y="284" on="0"/>
        <pt x="326" y="296" on="1"/>
        <pt x="319" y="302" on="0"/>
        <pt x="319" y="306" on="0"/>
        <pt x="314" y="312" on="0"/>
        <pt x="311" y="320" on="0"/>
        <pt x="308" y="324" on="1"/>
        <pt x="299" y="325" on="0"/>
        <pt x="296" y="332" on="0"/>
        <pt x="283" y="332" on="0"/>
        <pt x="278" y="329" on="0"/>
        <pt x="274" y="331" on="1"/>
        <pt x="272" y="329" on="0"/>
        <pt x="267" y="329" on="1"/>
        <pt x="252" y="324" on="1"/>
        <pt x="247" y="324" on="0"/>
        <pt x="249" y="316" on="1"/>
        <pt x="243" y="317" on="0"/>
        <pt x="235" y="306" on="0"/>
        <pt x="223" y="299" on="0"/>
        <pt x="219" y="285" on="0"/>
        <pt x="211" y="250" on="0"/>
        <pt x="220" y="232" on="1"/>
        <pt x="218" y="221" on="0"/>
        <pt x="216" y="208" on="0"/>
        <pt x="220" y="200" on="1"/>
        <pt x="216" y="197" on="0"/>
        <pt x="216" y="182" on="1"/>
        <pt x="218" y="158" on="1"/>
        <pt x="216" y="142" on="1"/>
        <pt x="219" y="114" on="1"/>
        <pt x="217" y="100" on="1"/>
        <pt x="218" y="96" on="0"/>
        <pt x="221" y="88" on="0"/>
        <pt x="224" y="79" on="0"/>
        <pt x="220" y="60" on="0"/>
        <pt x="225" y="44" on="0"/>
        <pt x="225" y="40" on="1"/>
        <pt x="225" y="30" on="1"/>
        <pt x="226" y="14" on="1"/>
        <pt x="228" y="9" on="0"/>
        <pt x="237" y="12" on="0"/>
        <pt x="240" y="7" on="1"/>
        <pt x="243" y="5" on="0"/>
        <pt x="253" y="5" on="0"/>
        <pt x="256" y="3" on="1"/>
        <pt x="256" y="-2" on="0"/>
        <pt x="264" y="0" on="0"/>
        <pt x="266" y="-11" on="0"/>
        <pt x="262" y="-24" on="0"/>
        <pt x="261" y="-31" on="1"/>
        <pt x="253" y="-39" on="0"/>
        <pt x="237" y="-46" on="1"/>
        <pt x="223" y="-40" on="0"/>
        <pt x="186" y="-46" on="0"/>
        <pt x="181" y="-46" on="0"/>
        <pt x="170" y="-54" on="0"/>
        <pt x="147" y="-52" on="0"/>
        <pt x="137" y="-54" on="1"/>
        <pt x="128" y="-53" on="0"/>
        <pt x="124" y="-57" on="0"/>
        <pt x="119" y="-57" on="1"/>
        <pt x="115" y="-55" on="0"/>
        <pt x="93" y="-53" on="0"/>
        <pt x="89" y="-50" on="1"/>
        <pt x="87" y="-42" on="0"/>
        <pt x="88" y="-34" on="0"/>
        <pt x="89" y="-25" on="1"/>
        <pt x="110" y="-11" on="0"/>
        <pt x="125" y="-11" on="1"/>
        <pt x="137" y="3" on="0"/>
        <pt x="131" y="27" on="1"/>
        <pt x="129" y="34" on="0"/>
        <pt x="129" y="67" on="0"/>
        <pt x="127" y="79" on="1"/>
        <pt x="125" y="91" on="0"/>
        <pt x="127" y="95" on="0"/>
        <pt x="127" y="97" on="1"/>
        <pt x="123" y="112" on="1"/>
        <pt x="123" y="132" on="0"/>
        <pt x="120" y="156" on="1"/>
        <pt x="122" y="180" on="1"/>
        <pt x="119" y="191" on="1"/>
        <pt x="117" y="204" on="0"/>
        <pt x="119" y="231" on="0"/>
        <pt x="119" y="268" on="0"/>
        <pt x="111" y="276" on="1"/>
        <pt x="115" y="284" on="0"/>
        <pt x="108" y="302" on="0"/>
        <pt x="107" y="310" on="1"/>
        <pt x="108" y="329" on="0"/>
        <pt x="104" y="356" on="0"/>
        <pt x="104" y="378" on="1"/>
        <pt x="104" y="401" on="1"/>
        <pt x="106" y="411" on="0"/>
        <pt x="101" y="421" on="0"/>
        <pt x="103" y="424" on="1"/>
        <pt x="104" y="434" on="0"/>
        <pt x="102" y="438" on="1"/>
        <pt x="96" y="450" on="0"/>
        <pt x="100" y="469" on="0"/>
        <pt x="96" y="489" on="1"/>
        <pt x="98" y="508" on="1"/>
        <pt x="98" y="522" on="1"/>
        <pt x="98" y="538" on="0"/>
        <pt x="88" y="577" on="0"/>
        <pt x="95" y="599" on="0"/>
        <pt x="86" y="599" on="0"/>
        <pt x="90" y="611" on="0"/>
        <pt x="86" y="631" on="0"/>
        <pt x="85" y="642" on="1"/>
        <pt x="83" y="645" on="0"/>
        <pt x="86" y="652" on="0"/>
        <pt x="83" y="661" on="0"/>
        <pt x="77" y="668" on="0"/>
        <pt x="74" y="672" on="1"/>
        <pt x="69" y="674" on="0"/>
        <pt x="56" y="678" on="0"/>
        <pt x="53" y="680" on="1"/>
        <pt x="40" y="682" on="1"/>
        <pt x="31" y="682" on="1"/>
        <pt x="10" y="679" on="1"/>
        <pt x="-10" y="697" on="0"/>
        <pt x="1" y="710" on="0"/>
        <pt x="2" y="715" on="1"/>
        <pt x="7" y="717" on="0"/>
        <pt x="15" y="719" on="1"/>
        <pt x="28" y="719" on="0"/>
        <pt x="30" y="725" on="0"/>
        <pt x="37" y="725" on="1"/>
        <pt x="52" y="723" on="1"/>
        <pt x="71" y="729" on="1"/>
        <pt x="84" y="727" on="1"/>
        <pt x="101" y="727" on="0"/>
        <pt x="112" y="736" on="0"/>
        <pt x="124" y="741" on="0"/>
        <pt x="146" y="741" on="0"/>
        <pt x="154" y="735" on="1"/>
        <pt x="161" y="739" on="0"/>
        <pt x="170" y="738" on="0"/>
        <pt x="179" y="741" on="1"/>
        <pt x="188" y="740" on="0"/>
        <pt x="194" y="744" on="0"/>
        <pt x="206" y="742" on="0"/>
        <pt x="217" y="744" on="0"/>
        <pt x="222" y="744" on="1"/>
        <pt x="242" y="744" on="1"/>
        <pt x="253" y="732" on="0"/>
        <pt x="249" y="722" on="0"/>
        <pt x="237" y="711" on="0"/>
        <pt x="226" y="707" on="0"/>
        <pt x="206" y="697" on="0"/>
        <pt x="196" y="685" on="0"/>
        <pt x="188" y="684" on="1"/>
        <pt x="189" y="676" on="0"/>
        <pt x="184" y="649" on="0"/>
        <pt x="186" y="636" on="0"/>
        <pt x="190" y="615" on="0"/>
        <pt x="191" y="607" on="0"/>
        <pt x="189" y="596" on="0"/>
        <pt x="191" y="587" on="0"/>
        <pt x="195" y="580" on="0"/>
        <pt x="196" y="567" on="0"/>
        <pt x="196" y="546" on="0"/>
        <pt x="197" y="538" on="1"/>
        <pt x="195" y="525" on="1"/>
        <pt x="198" y="508" on="1"/>
        <pt x="194" y="484" on="1"/>
        <pt x="201" y="452" on="1"/>
        <pt x="201" y="430" on="1"/>
        <pt x="203" y="416" on="0"/>
        <pt x="218" y="403" on="0"/>
        <pt x="223" y="403" on="1"/>
        <pt x="231" y="409" on="0"/>
        <pt x="234" y="408" on="0"/>
        <pt x="244" y="415" on="0"/>
        <pt x="257" y="430" on="0"/>
        <pt x="266" y="434" on="1"/>
        <pt x="268" y="440" on="0"/>
        <pt x="274" y="447" on="0"/>
        <pt x="276" y="455" on="1"/>
        <pt x="281" y="456" on="0"/>
        <pt x="287" y="471" on="0"/>
        <pt x="303" y="481" on="0"/>
        <pt x="314" y="489" on="0"/>
        <pt x="323" y="497" on="0"/>
        <pt x="329" y="499" on="1"/>
        <pt x="334" y="508" on="0"/>
        <pt x="348" y="524" on="0"/>
        <pt x="353" y="535" on="1"/>
        <pt x="358" y="537" on="0"/>
        <pt x="365" y="541" on="0"/>
        <pt x="369" y="543" on="1"/>
        <pt x="381" y="569" on="0"/>
        <pt x="394" y="581" on="1"/>
        <pt x="394" y="588" on="0"/>
        <pt x="419" y="607" on="0"/>
        <pt x="420" y="613" on="1"/>
        <pt x="424" y="612" on="0"/>
        <pt x="427" y="617" on="0"/>
        <pt x="430" y="618" on="1"/>
        <pt x="437" y="632" on="0"/>
        <pt x="456" y="654" on="0"/>
        <pt x="463" y="668" on="1"/>
        <pt x="462" y="678" on="0"/>
        <pt x="443" y="681" on="0"/>
        <pt x="436" y="686" on="1"/>
        <pt x="427" y="700" on="0"/>
        <pt x="427" y="710" on="0"/>
        <pt x="434" y="717" on="0"/>
        <pt x="438" y="722" on="1"/>
        <pt x="458" y="724" on="0"/>
        <pt x="468" y="714" on="1"/>
        <pt x="481" y="714" on="0"/>
        <pt x="498" y="716" on="0"/>
        <pt x="514" y="713" on="0"/>
        <pt x="517" y="721" on="0"/>
        <pt x="522" y="721" on="1"/>
        <pt x="522" y="718" on="0"/>
        <pt x="539" y="722" on="0"/>
        <pt x="540" y="723" on="1"/>
        <pt x="554" y="718" on="0"/>
        <pt x="563" y="720" on="0"/>
      </contour>
    </TTGlyph>
    <TTGlyph name="L" xMin="24" yMin="-58" xMax="418" yMax="788">
      <contour>
        <pt x="193" y="232" on="1"/>
        <pt x="187" y="210" on="1"/>
        <pt x="189" y="183" on="1"/>
        <pt x="190" y="172" on="0"/>
        <pt x="189" y="151" on="0"/>
        <pt x="193" y="140" on="1"/>
        <pt x="187" y="131" on="0"/>
        <pt x="188" y="116" on="1"/>
        <pt x="188" y="87" on="0"/>
        <pt x="182" y="46" on="0"/>
        <pt x="209" y="42" on="1"/>
        <pt x="227" y="39" on="0"/>
        <pt x="247" y="40" on="1"/>
        <pt x="263" y="43" on="1"/>
        <pt x="266" y="43" on="0"/>
        <pt x="281" y="40" on="1"/>
        <pt x="310" y="40" on="0"/>
        <pt x="358" y="51" on="1"/>
        <pt x="365" y="62" on="0"/>
        <pt x="371" y="75" on="0"/>
        <pt x="370" y="99" on="0"/>
        <pt x="374" y="106" on="1"/>
        <pt x="387" y="126" on="0"/>
        <pt x="404" y="123" on="1"/>
        <pt x="415" y="121" on="0"/>
        <pt x="418" y="97" on="1"/>
        <pt x="416" y="53" on="1"/>
        <pt x="408" y="-41" on="1"/>
        <pt x="403" y="-44" on="0"/>
        <pt x="399" y="-53" on="0"/>
        <pt x="384" y="-52" on="0"/>
        <pt x="379" y="-59" on="0"/>
        <pt x="366" y="-57" on="0"/>
        <pt x="357" y="-46" on="0"/>
        <pt x="352" y="-42" on="1"/>
        <pt x="349" y="-35" on="0"/>
        <pt x="347" y="-15" on="0"/>
        <pt x="334" y="-11" on="0"/>
        <pt x="320" y="-16" on="0"/>
        <pt x="302" y="-15" on="0"/>
        <pt x="281" y="-4" on="0"/>
        <pt x="262" y="-5" on="0"/>
        <pt x="244" y="-10" on="0"/>
        <pt x="237" y="-1" on="1"/>
        <pt x="232" y="-4" on="0"/>
        <pt x="220" y="-2" on="0"/>
        <pt x="211" y="-5" on="0"/>
        <pt x="205" y="-8" on="0"/>
        <pt x="202" y="-9" on="1"/>
        <pt x="183" y="-9" on="0"/>
        <pt x="164" y="-7" on="0"/>
        <pt x="158" y="-12" on="1"/>
        <pt x="150" y="-9" on="0"/>
        <pt x="136" y="-16" on="0"/>
        <pt x="129" y="-16" on="1"/>
        <pt x="113" y="-12" on="1"/>
        <pt x="108" y="-11" on="0"/>
        <pt x="100" y="-13" on="0"/>
        <pt x="61" y="-10" on="0"/>
        <pt x="50" y="-1" on="0"/>
        <pt x="54" y="4" on="0"/>
        <pt x="52" y="25" on="0"/>
        <pt x="69" y="33" on="0"/>
        <pt x="74" y="41" on="0"/>
        <pt x="77" y="49" on="0"/>
        <pt x="81" y="57" on="0"/>
        <pt x="81" y="58" on="1"/>
        <pt x="81" y="66" on="1"/>
        <pt x="82" y="77" on="1"/>
        <pt x="84" y="110" on="1"/>
        <pt x="82" y="128" on="0"/>
        <pt x="82" y="148" on="0"/>
        <pt x="85" y="158" on="0"/>
        <pt x="83" y="164" on="1"/>
        <pt x="88" y="193" on="0"/>
        <pt x="86" y="212" on="0"/>
        <pt x="86" y="221" on="1"/>
        <pt x="90" y="254" on="1"/>
        <pt x="90" y="266" on="0"/>
        <pt x="92" y="300" on="0"/>
        <pt x="91" y="316" on="0"/>
        <pt x="94" y="331" on="0"/>
        <pt x="91" y="340" on="0"/>
        <pt x="91" y="344" on="1"/>
        <pt x="96" y="365" on="1"/>
        <pt x="95" y="379" on="1"/>
        <pt x="97" y="394" on="1"/>
        <pt x="98" y="396" on="0"/>
        <pt x="96" y="401" on="0"/>
        <pt x="98" y="423" on="0"/>
        <pt x="96" y="436" on="1"/>
        <pt x="95" y="488" on="1"/>
        <pt x="97" y="505" on="0"/>
        <pt x="94" y="516" on="0"/>
        <pt x="94" y="523" on="1"/>
        <pt x="93" y="546" on="1"/>
        <pt x="96" y="557" on="1"/>
        <pt x="93" y="571" on="0"/>
        <pt x="96" y="583" on="0"/>
        <pt x="96" y="607" on="0"/>
        <pt x="93" y="636" on="0"/>
        <pt x="96" y="654" on="0"/>
        <pt x="97" y="675" on="0"/>
        <pt x="97" y="701" on="0"/>
        <pt x="101" y="715" on="1"/>
        <pt x="99" y="720" on="0"/>
        <pt x="95" y="730" on="0"/>
        <pt x="91" y="735" on="1"/>
        <pt x="81" y="737" on="0"/>
        <pt x="68" y="733" on="0"/>
        <pt x="61" y="732" on="1"/>
        <pt x="50" y="731" on="1"/>
        <pt x="34" y="732" on="1"/>
        <pt x="27" y="742" on="0"/>
        <pt x="24" y="741" on="0"/>
        <pt x="24" y="742" on="1"/>
        <pt x="20" y="750" on="0"/>
        <pt x="27" y="767" on="1"/>
        <pt x="32" y="769" on="0"/>
        <pt x="41" y="773" on="0"/>
        <pt x="52" y="775" on="0"/>
        <pt x="58" y="781" on="0"/>
        <pt x="63" y="782" on="1"/>
        <pt x="92" y="773" on="0"/>
        <pt x="118" y="783" on="1"/>
        <pt x="127" y="778" on="0"/>
        <pt x="149" y="782" on="0"/>
        <pt x="163" y="783" on="1"/>
        <pt x="177" y="784" on="1"/>
        <pt x="185" y="784" on="1"/>
        <pt x="190" y="784" on="0"/>
        <pt x="195" y="787" on="1"/>
        <pt x="207" y="783" on="1"/>
        <pt x="239" y="795" on="0"/>
        <pt x="268" y="788" on="1"/>
        <pt x="273" y="780" on="0"/>
        <pt x="272" y="763" on="0"/>
        <pt x="275" y="753" on="1"/>
        <pt x="271" y="743" on="0"/>
        <pt x="254" y="736" on="0"/>
        <pt x="242" y="729" on="0"/>
        <pt x="235" y="723" on="0"/>
        <pt x="230" y="721" on="1"/>
        <pt x="227" y="718" on="0"/>
        <pt x="221" y="711" on="0"/>
        <pt x="216" y="712" on="1"/>
        <pt x="215" y="704" on="0"/>
        <pt x="208" y="698" on="0"/>
        <pt x="204" y="684" on="0"/>
        <pt x="207" y="668" on="0"/>
        <pt x="205" y="656" on="0"/>
        <pt x="203" y="651" on="0"/>
        <pt x="205" y="646" on="0"/>
        <pt x="204" y="617" on="0"/>
        <pt x="204" y="597" on="0"/>
        <pt x="209" y="585" on="1"/>
        <pt x="205" y="574" on="0"/>
        <pt x="205" y="548" on="0"/>
        <pt x="201" y="541" on="1"/>
        <pt x="206" y="529" on="0"/>
        <pt x="205" y="517" on="1"/>
        <pt x="203" y="503" on="1"/>
        <pt x="203" y="498" on="0"/>
        <pt x="206" y="488" on="0"/>
        <pt x="208" y="475" on="0"/>
        <pt x="208" y="467" on="1"/>
        <pt x="205" y="432" on="0"/>
        <pt x="202" y="420" on="1"/>
        <pt x="204" y="415" on="0"/>
        <pt x="204" y="410" on="1"/>
        <pt x="204" y="396" on="1"/>
        <pt x="203" y="388" on="0"/>
        <pt x="205" y="379" on="0"/>
        <pt x="203" y="373" on="0"/>
        <pt x="198" y="366" on="0"/>
        <pt x="198" y="361" on="1"/>
        <pt x="202" y="342" on="0"/>
        <pt x="195" y="269" on="0"/>
        <pt x="197" y="262" on="0"/>
        <pt x="191" y="246" on="0"/>
        <pt x="193" y="238" on="0"/>
      </contour>
    </TTGlyph>
</ttFont>
